<ttFont>
    <TTGlyph name="A" xMin="-63" yMin="-19" xMax="1044" yMax="1359">
      <contour>
        <pt x="427" y="1148" on="1"/>
        <pt x="427" y="1178" on="0"/>
        <pt x="398" y="1178" on="1"/>
        <pt x="282" y="1178" on="1"/>
        <pt x="237" y="1178" on="0"/>
        <pt x="214" y="1152" on="1"/>
        <pt x="174" y="1107" on="0"/>
        <pt x="174" y="1060" on="1"/>
        <pt x="174" y="1003" on="1"/>
        <pt x="174" y="925" on="0"/>
        <pt x="101" y="895" on="1"/>
        <pt x="79" y="886" on="0"/>
        <pt x="30" y="886" on="0"/>
        <pt x="-13" y="904" on="0"/>
        <pt x="-28" y="920" on="1"/>
        <pt x="-63" y="954" on="0"/>
        <pt x="-63" y="1003" on="1"/>
        <pt x="-63" y="1063" on="1"/>
        <pt x="-63" y="1185" on="0"/>
        <pt x="111" y="1359" on="0"/>
        <pt x="233" y="1359" on="1"/>
        <pt x="689" y="1359" on="1"/>
        <pt x="855" y="1359" on="0"/>
        <pt x="950" y="1278" on="1"/>
        <pt x="1044" y="1199" on="0"/>
        <pt x="1044" y="1063" on="1"/>
        <pt x="1044" y="98" on="1"/>
        <pt x="1044" y="22" on="0"/>
        <pt x="972" y="-10" on="1"/>
        <pt x="951" y="-19" on="0"/>
        <pt x="902" y="-19" on="0"/>
        <pt x="858" y="0" on="0"/>
        <pt x="842" y="16" on="1"/>
        <pt x="807" y="49" on="0"/>
        <pt x="807" y="98" on="1"/>
        <pt x="807" y="433" on="1"/>
        <pt x="570" y="433" on="1"/>
        <pt x="570" y="98" on="1"/>
        <pt x="570" y="50" on="0"/>
        <pt x="544" y="24" on="1"/>
        <pt x="501" y="-19" on="0"/>
        <pt x="427" y="-19" on="0"/>
        <pt x="383" y="0" on="0"/>
        <pt x="367" y="16" on="1"/>
        <pt x="333" y="48" on="0"/>
        <pt x="333" y="98" on="1"/>
        <pt x="333" y="433" on="1"/>
        <pt x="261" y="433" on="1"/>
        <pt x="226" y="433" on="0"/>
        <pt x="206" y="452" on="1"/>
        <pt x="173" y="486" on="0"/>
        <pt x="173" y="561" on="0"/>
        <pt x="224" y="614" on="0"/>
        <pt x="261" y="614" on="1"/>
        <pt x="333" y="614" on="1"/>
        <pt x="333" y="955" on="1"/>
        <pt x="333" y="1050" on="0"/>
        <pt x="418" y="1130" on="1"/>
        <pt x="427" y="1138" on="0"/>
      </contour>
      <contour>
        <pt x="570" y="614" on="1"/>
        <pt x="807" y="614" on="1"/>
        <pt x="807" y="1059" on="1"/>
        <pt x="807" y="1109" on="0"/>
        <pt x="782" y="1134" on="1"/>
        <pt x="738" y="1178" on="0"/>
        <pt x="663" y="1178" on="0"/>
        <pt x="620" y="1159" on="0"/>
        <pt x="604" y="1143" on="1"/>
        <pt x="570" y="1109" on="0"/>
        <pt x="570" y="1060" on="1"/>
      </contour>
    </TTGlyph>
    <TTGlyph name="AE" xMin="104" yMin="-19" xMax="1653" yMax="1359">
      <contour>
        <pt x="594" y="1148" on="1"/>
        <pt x="594" y="1178" on="0"/>
        <pt x="565" y="1178" on="1"/>
        <pt x="449" y="1178" on="1"/>
        <pt x="404" y="1178" on="0"/>
        <pt x="381" y="1152" on="1"/>
        <pt x="341" y="1107" on="0"/>
        <pt x="341" y="1060" on="1"/>
        <pt x="341" y="1003" on="1"/>
        <pt x="341" y="925" on="0"/>
        <pt x="268" y="895" on="1"/>
        <pt x="246" y="886" on="0"/>
        <pt x="197" y="886" on="0"/>
        <pt x="154" y="904" on="0"/>
        <pt x="138" y="920" on="1"/>
        <pt x="104" y="954" on="0"/>
        <pt x="104" y="1003" on="1"/>
        <pt x="104" y="1063" on="1"/>
        <pt x="104" y="1185" on="0"/>
        <pt x="278" y="1359" on="0"/>
        <pt x="400" y="1359" on="1"/>
        <pt x="826" y="1359" on="1"/>
        <pt x="985" y="1359" on="0"/>
        <pt x="1069" y="1259" on="1"/>
        <pt x="1080" y="1247" on="0"/>
        <pt x="1104" y="1247" on="0"/>
        <pt x="1115" y="1259" on="1"/>
        <pt x="1197" y="1359" on="0"/>
        <pt x="1360" y="1359" on="1"/>
        <pt x="1563" y="1359" on="1"/>
        <pt x="1623" y="1359" on="0"/>
        <pt x="1646" y="1304" on="1"/>
        <pt x="1653" y="1288" on="0"/>
        <pt x="1653" y="1251" on="0"/>
        <pt x="1639" y="1218" on="0"/>
        <pt x="1627" y="1206" on="1"/>
        <pt x="1601" y="1178" on="0"/>
        <pt x="1563" y="1178" on="1"/>
        <pt x="1329" y="1178" on="1"/>
        <pt x="1281" y="1178" on="0"/>
        <pt x="1211" y="1125" on="0"/>
        <pt x="1211" y="1072" on="1"/>
        <pt x="1211" y="667" on="1"/>
        <pt x="1474" y="667" on="1"/>
        <pt x="1512" y="667" on="0"/>
        <pt x="1563" y="615" on="0"/>
        <pt x="1563" y="540" on="0"/>
        <pt x="1512" y="487" on="0"/>
        <pt x="1474" y="487" on="1"/>
        <pt x="1211" y="487" on="1"/>
        <pt x="1211" y="298" on="1"/>
        <pt x="1211" y="247" on="0"/>
        <pt x="1236" y="223" on="1"/>
        <pt x="1280" y="181" on="0"/>
        <pt x="1329" y="181" on="1"/>
        <pt x="1563" y="181" on="1"/>
        <pt x="1622" y="181" on="0"/>
        <pt x="1646" y="124" on="1"/>
        <pt x="1653" y="108" on="0"/>
        <pt x="1653" y="71" on="0"/>
        <pt x="1639" y="38" on="0"/>
        <pt x="1627" y="26" on="1"/>
        <pt x="1601" y="0" on="0"/>
        <pt x="1563" y="0" on="1"/>
        <pt x="1270" y="0" on="1"/>
        <pt x="1148" y="0" on="0"/>
        <pt x="974" y="174" on="0"/>
        <pt x="974" y="296" on="1"/>
        <pt x="974" y="486" on="1"/>
        <pt x="737" y="486" on="1"/>
        <pt x="737" y="98" on="1"/>
        <pt x="737" y="50" on="0"/>
        <pt x="712" y="24" on="1"/>
        <pt x="668" y="-19" on="0"/>
        <pt x="594" y="-19" on="0"/>
        <pt x="550" y="0" on="0"/>
        <pt x="534" y="16" on="1"/>
        <pt x="500" y="48" on="0"/>
        <pt x="500" y="98" on="1"/>
        <pt x="500" y="486" on="1"/>
        <pt x="428" y="486" on="1"/>
        <pt x="393" y="486" on="0"/>
        <pt x="374" y="506" on="1"/>
        <pt x="340" y="539" on="0"/>
        <pt x="340" y="614" on="0"/>
        <pt x="391" y="667" on="0"/>
        <pt x="428" y="667" on="1"/>
        <pt x="500" y="667" on="1"/>
        <pt x="500" y="955" on="1"/>
        <pt x="500" y="1050" on="0"/>
        <pt x="586" y="1130" on="1"/>
        <pt x="594" y="1138" on="0"/>
      </contour>
      <contour>
        <pt x="737" y="667" on="1"/>
        <pt x="974" y="667" on="1"/>
        <pt x="974" y="1059" on="1"/>
        <pt x="974" y="1109" on="0"/>
        <pt x="949" y="1134" on="1"/>
        <pt x="905" y="1178" on="0"/>
        <pt x="830" y="1178" on="0"/>
        <pt x="787" y="1159" on="0"/>
        <pt x="771" y="1143" on="1"/>
        <pt x="737" y="1109" on="0"/>
        <pt x="737" y="1060" on="1"/>
      </contour>
    </TTGlyph>
    <TTGlyph name="AEacute" xMin="104" yMin="-19" xMax="1653" yMax="1886">
      <contour>
        <pt x="594" y="1148" on="1"/>
        <pt x="594" y="1178" on="0"/>
        <pt x="565" y="1178" on="1"/>
        <pt x="449" y="1178" on="1"/>
        <pt x="404" y="1178" on="0"/>
        <pt x="381" y="1152" on="1"/>
        <pt x="341" y="1107" on="0"/>
        <pt x="341" y="1060" on="1"/>
        <pt x="341" y="1003" on="1"/>
        <pt x="341" y="925" on="0"/>
        <pt x="268" y="895" on="1"/>
        <pt x="246" y="886" on="0"/>
        <pt x="197" y="886" on="0"/>
        <pt x="154" y="904" on="0"/>
        <pt x="138" y="920" on="1"/>
        <pt x="104" y="954" on="0"/>
        <pt x="104" y="1003" on="1"/>
        <pt x="104" y="1063" on="1"/>
        <pt x="104" y="1185" on="0"/>
        <pt x="278" y="1359" on="0"/>
        <pt x="400" y="1359" on="1"/>
        <pt x="826" y="1359" on="1"/>
        <pt x="985" y="1359" on="0"/>
        <pt x="1069" y="1259" on="1"/>
        <pt x="1080" y="1247" on="0"/>
        <pt x="1104" y="1247" on="0"/>
        <pt x="1115" y="1259" on="1"/>
        <pt x="1197" y="1359" on="0"/>
        <pt x="1360" y="1359" on="1"/>
        <pt x="1563" y="1359" on="1"/>
        <pt x="1623" y="1359" on="0"/>
        <pt x="1646" y="1304" on="1"/>
        <pt x="1653" y="1288" on="0"/>
        <pt x="1653" y="1251" on="0"/>
        <pt x="1639" y="1218" on="0"/>
        <pt x="1627" y="1206" on="1"/>
        <pt x="1601" y="1178" on="0"/>
        <pt x="1563" y="1178" on="1"/>
        <pt x="1329" y="1178" on="1"/>
        <pt x="1281" y="1178" on="0"/>
        <pt x="1211" y="1125" on="0"/>
        <pt x="1211" y="1072" on="1"/>
        <pt x="1211" y="667" on="1"/>
        <pt x="1474" y="667" on="1"/>
        <pt x="1512" y="667" on="0"/>
        <pt x="1563" y="615" on="0"/>
        <pt x="1563" y="540" on="0"/>
        <pt x="1512" y="487" on="0"/>
        <pt x="1474" y="487" on="1"/>
        <pt x="1211" y="487" on="1"/>
        <pt x="1211" y="298" on="1"/>
        <pt x="1211" y="247" on="0"/>
        <pt x="1236" y="223" on="1"/>
        <pt x="1280" y="181" on="0"/>
        <pt x="1329" y="181" on="1"/>
        <pt x="1563" y="181" on="1"/>
        <pt x="1622" y="181" on="0"/>
        <pt x="1646" y="124" on="1"/>
        <pt x="1653" y="108" on="0"/>
        <pt x="1653" y="71" on="0"/>
        <pt x="1639" y="38" on="0"/>
        <pt x="1627" y="26" on="1"/>
        <pt x="1601" y="0" on="0"/>
        <pt x="1563" y="0" on="1"/>
        <pt x="1270" y="0" on="1"/>
        <pt x="1148" y="0" on="0"/>
        <pt x="974" y="174" on="0"/>
        <pt x="974" y="296" on="1"/>
        <pt x="974" y="486" on="1"/>
        <pt x="737" y="486" on="1"/>
        <pt x="737" y="98" on="1"/>
        <pt x="737" y="50" on="0"/>
        <pt x="712" y="24" on="1"/>
        <pt x="668" y="-19" on="0"/>
        <pt x="594" y="-19" on="0"/>
        <pt x="550" y="0" on="0"/>
        <pt x="534" y="16" on="1"/>
        <pt x="500" y="48" on="0"/>
        <pt x="500" y="98" on="1"/>
        <pt x="500" y="486" on="1"/>
        <pt x="428" y="486" on="1"/>
        <pt x="393" y="486" on="0"/>
        <pt x="374" y="506" on="1"/>
        <pt x="340" y="539" on="0"/>
        <pt x="340" y="614" on="0"/>
        <pt x="391" y="667" on="0"/>
        <pt x="428" y="667" on="1"/>
        <pt x="500" y="667" on="1"/>
        <pt x="500" y="955" on="1"/>
        <pt x="500" y="1050" on="0"/>
        <pt x="586" y="1130" on="1"/>
        <pt x="594" y="1138" on="0"/>
      </contour>
      <contour>
        <pt x="737" y="667" on="1"/>
        <pt x="974" y="667" on="1"/>
        <pt x="974" y="1059" on="1"/>
        <pt x="974" y="1109" on="0"/>
        <pt x="949" y="1134" on="1"/>
        <pt x="905" y="1178" on="0"/>
        <pt x="830" y="1178" on="0"/>
        <pt x="787" y="1159" on="0"/>
        <pt x="771" y="1143" on="1"/>
        <pt x="737" y="1109" on="0"/>
        <pt x="737" y="1060" on="1"/>
      </contour>
      <contour>
        <pt x="1123" y="1820" on="1"/>
        <pt x="1171" y="1886" on="0"/>
        <pt x="1234" y="1886" on="1"/>
        <pt x="1276" y="1886" on="0"/>
        <pt x="1301" y="1860" on="1"/>
        <pt x="1343" y="1819" on="0"/>
        <pt x="1343" y="1781" on="1"/>
        <pt x="1343" y="1705" on="0"/>
        <pt x="1280" y="1662" on="1"/>
        <pt x="1060" y="1508" on="1"/>
        <pt x="1036" y="1492" on="0"/>
        <pt x="1017" y="1492" on="1"/>
        <pt x="983" y="1492" on="0"/>
        <pt x="949" y="1528" on="0"/>
        <pt x="949" y="1579" on="0"/>
        <pt x="966" y="1602" on="1"/>
      </contour>
    </TTGlyph>
    <TTGlyph name="Aacute" xMin="-63" yMin="-19" xMax="1044" yMax="1886">
      <contour>
        <pt x="427" y="1148" on="1"/>
        <pt x="427" y="1178" on="0"/>
        <pt x="398" y="1178" on="1"/>
        <pt x="282" y="1178" on="1"/>
        <pt x="237" y="1178" on="0"/>
        <pt x="214" y="1152" on="1"/>
        <pt x="174" y="1107" on="0"/>
        <pt x="174" y="1060" on="1"/>
        <pt x="174" y="1003" on="1"/>
        <pt x="174" y="925" on="0"/>
        <pt x="101" y="895" on="1"/>
        <pt x="79" y="886" on="0"/>
        <pt x="30" y="886" on="0"/>
        <pt x="-13" y="904" on="0"/>
        <pt x="-28" y="920" on="1"/>
        <pt x="-63" y="954" on="0"/>
        <pt x="-63" y="1003" on="1"/>
        <pt x="-63" y="1063" on="1"/>
        <pt x="-63" y="1185" on="0"/>
        <pt x="111" y="1359" on="0"/>
        <pt x="233" y="1359" on="1"/>
        <pt x="689" y="1359" on="1"/>
        <pt x="855" y="1359" on="0"/>
        <pt x="950" y="1278" on="1"/>
        <pt x="1044" y="1199" on="0"/>
        <pt x="1044" y="1063" on="1"/>
        <pt x="1044" y="98" on="1"/>
        <pt x="1044" y="22" on="0"/>
        <pt x="972" y="-10" on="1"/>
        <pt x="951" y="-19" on="0"/>
        <pt x="902" y="-19" on="0"/>
        <pt x="858" y="0" on="0"/>
        <pt x="842" y="16" on="1"/>
        <pt x="807" y="49" on="0"/>
        <pt x="807" y="98" on="1"/>
        <pt x="807" y="433" on="1"/>
        <pt x="570" y="433" on="1"/>
        <pt x="570" y="98" on="1"/>
        <pt x="570" y="50" on="0"/>
        <pt x="544" y="24" on="1"/>
        <pt x="501" y="-19" on="0"/>
        <pt x="427" y="-19" on="0"/>
        <pt x="383" y="0" on="0"/>
        <pt x="367" y="16" on="1"/>
        <pt x="333" y="48" on="0"/>
        <pt x="333" y="98" on="1"/>
        <pt x="333" y="433" on="1"/>
        <pt x="261" y="433" on="1"/>
        <pt x="226" y="433" on="0"/>
        <pt x="206" y="452" on="1"/>
        <pt x="173" y="486" on="0"/>
        <pt x="173" y="561" on="0"/>
        <pt x="224" y="614" on="0"/>
        <pt x="261" y="614" on="1"/>
        <pt x="333" y="614" on="1"/>
        <pt x="333" y="955" on="1"/>
        <pt x="333" y="1050" on="0"/>
        <pt x="418" y="1130" on="1"/>
        <pt x="427" y="1138" on="0"/>
      </contour>
      <contour>
        <pt x="570" y="614" on="1"/>
        <pt x="807" y="614" on="1"/>
        <pt x="807" y="1059" on="1"/>
        <pt x="807" y="1109" on="0"/>
        <pt x="782" y="1134" on="1"/>
        <pt x="738" y="1178" on="0"/>
        <pt x="663" y="1178" on="0"/>
        <pt x="620" y="1159" on="0"/>
        <pt x="604" y="1143" on="1"/>
        <pt x="570" y="1109" on="0"/>
        <pt x="570" y="1060" on="1"/>
      </contour>
      <contour>
        <pt x="726" y="1820" on="1"/>
        <pt x="774" y="1886" on="0"/>
        <pt x="837" y="1886" on="1"/>
        <pt x="879" y="1886" on="0"/>
        <pt x="904" y="1860" on="1"/>
        <pt x="946" y="1819" on="0"/>
        <pt x="946" y="1781" on="1"/>
        <pt x="946" y="1705" on="0"/>
        <pt x="883" y="1662" on="1"/>
        <pt x="663" y="1508" on="1"/>
        <pt x="639" y="1492" on="0"/>
        <pt x="620" y="1492" on="1"/>
        <pt x="586" y="1492" on="0"/>
        <pt x="552" y="1528" on="0"/>
        <pt x="552" y="1579" on="0"/>
        <pt x="569" y="1602" on="1"/>
      </contour>
    </TTGlyph>
    <TTGlyph name="Abreve" xMin="-63" yMin="-19" xMax="1044" yMax="1879">
      <contour>
        <pt x="427" y="1148" on="1"/>
        <pt x="427" y="1178" on="0"/>
        <pt x="398" y="1178" on="1"/>
        <pt x="282" y="1178" on="1"/>
        <pt x="237" y="1178" on="0"/>
        <pt x="214" y="1152" on="1"/>
        <pt x="174" y="1107" on="0"/>
        <pt x="174" y="1060" on="1"/>
        <pt x="174" y="1003" on="1"/>
        <pt x="174" y="925" on="0"/>
        <pt x="101" y="895" on="1"/>
        <pt x="79" y="886" on="0"/>
        <pt x="30" y="886" on="0"/>
        <pt x="-13" y="904" on="0"/>
        <pt x="-28" y="920" on="1"/>
        <pt x="-63" y="954" on="0"/>
        <pt x="-63" y="1003" on="1"/>
        <pt x="-63" y="1063" on="1"/>
        <pt x="-63" y="1185" on="0"/>
        <pt x="111" y="1359" on="0"/>
        <pt x="233" y="1359" on="1"/>
        <pt x="689" y="1359" on="1"/>
        <pt x="855" y="1359" on="0"/>
        <pt x="950" y="1278" on="1"/>
        <pt x="1044" y="1199" on="0"/>
        <pt x="1044" y="1063" on="1"/>
        <pt x="1044" y="98" on="1"/>
        <pt x="1044" y="22" on="0"/>
        <pt x="972" y="-10" on="1"/>
        <pt x="951" y="-19" on="0"/>
        <pt x="902" y="-19" on="0"/>
        <pt x="858" y="0" on="0"/>
        <pt x="842" y="16" on="1"/>
        <pt x="807" y="49" on="0"/>
        <pt x="807" y="98" on="1"/>
        <pt x="807" y="433" on="1"/>
        <pt x="570" y="433" on="1"/>
        <pt x="570" y="98" on="1"/>
        <pt x="570" y="50" on="0"/>
        <pt x="544" y="24" on="1"/>
        <pt x="501" y="-19" on="0"/>
        <pt x="427" y="-19" on="0"/>
        <pt x="383" y="0" on="0"/>
        <pt x="367" y="16" on="1"/>
        <pt x="333" y="48" on="0"/>
        <pt x="333" y="98" on="1"/>
        <pt x="333" y="433" on="1"/>
        <pt x="261" y="433" on="1"/>
        <pt x="226" y="433" on="0"/>
        <pt x="206" y="452" on="1"/>
        <pt x="173" y="486" on="0"/>
        <pt x="173" y="561" on="0"/>
        <pt x="224" y="614" on="0"/>
        <pt x="261" y="614" on="1"/>
        <pt x="333" y="614" on="1"/>
        <pt x="333" y="955" on="1"/>
        <pt x="333" y="1050" on="0"/>
        <pt x="418" y="1130" on="1"/>
        <pt x="427" y="1138" on="0"/>
      </contour>
      <contour>
        <pt x="570" y="614" on="1"/>
        <pt x="807" y="614" on="1"/>
        <pt x="807" y="1059" on="1"/>
        <pt x="807" y="1109" on="0"/>
        <pt x="782" y="1134" on="1"/>
        <pt x="738" y="1178" on="0"/>
        <pt x="663" y="1178" on="0"/>
        <pt x="620" y="1159" on="0"/>
        <pt x="604" y="1143" on="1"/>
        <pt x="570" y="1109" on="0"/>
        <pt x="570" y="1060" on="1"/>
      </contour>
      <contour>
        <pt x="690" y="1686" on="1"/>
        <pt x="792" y="1686" on="0"/>
        <pt x="828" y="1768" on="1"/>
        <pt x="838" y="1790" on="0"/>
        <pt x="838" y="1843" on="0"/>
        <pt x="878" y="1879" on="0"/>
        <pt x="928" y="1879" on="0"/>
        <pt x="971" y="1846" on="0"/>
        <pt x="971" y="1742" on="0"/>
        <pt x="936" y="1643" on="0"/>
        <pt x="882" y="1575" on="0"/>
        <pt x="815" y="1535" on="0"/>
        <pt x="784" y="1524" on="1"/>
        <pt x="733" y="1506" on="0"/>
        <pt x="690" y="1506" on="1"/>
        <pt x="614" y="1506" on="0"/>
        <pt x="531" y="1555" on="1"/>
        <pt x="460" y="1598" on="0"/>
        <pt x="427" y="1692" on="1"/>
        <pt x="409" y="1742" on="0"/>
        <pt x="409" y="1846" on="0"/>
        <pt x="452" y="1879" on="0"/>
        <pt x="502" y="1879" on="0"/>
        <pt x="542" y="1843" on="0"/>
        <pt x="542" y="1790" on="0"/>
        <pt x="562" y="1745" on="0"/>
        <pt x="581" y="1727" on="1"/>
        <pt x="623" y="1686" on="0"/>
      </contour>
    </TTGlyph>
    <TTGlyph name="Acircumflex" xMin="-63" yMin="-19" xMax="1044" yMax="1888">
      <contour>
        <pt x="427" y="1148" on="1"/>
        <pt x="427" y="1178" on="0"/>
        <pt x="398" y="1178" on="1"/>
        <pt x="282" y="1178" on="1"/>
        <pt x="237" y="1178" on="0"/>
        <pt x="214" y="1152" on="1"/>
        <pt x="174" y="1107" on="0"/>
        <pt x="174" y="1060" on="1"/>
        <pt x="174" y="1003" on="1"/>
        <pt x="174" y="925" on="0"/>
        <pt x="101" y="895" on="1"/>
        <pt x="79" y="886" on="0"/>
        <pt x="30" y="886" on="0"/>
        <pt x="-13" y="904" on="0"/>
        <pt x="-28" y="920" on="1"/>
        <pt x="-63" y="954" on="0"/>
        <pt x="-63" y="1003" on="1"/>
        <pt x="-63" y="1063" on="1"/>
        <pt x="-63" y="1185" on="0"/>
        <pt x="111" y="1359" on="0"/>
        <pt x="233" y="1359" on="1"/>
        <pt x="689" y="1359" on="1"/>
        <pt x="855" y="1359" on="0"/>
        <pt x="950" y="1278" on="1"/>
        <pt x="1044" y="1199" on="0"/>
        <pt x="1044" y="1063" on="1"/>
        <pt x="1044" y="98" on="1"/>
        <pt x="1044" y="22" on="0"/>
        <pt x="972" y="-10" on="1"/>
        <pt x="951" y="-19" on="0"/>
        <pt x="902" y="-19" on="0"/>
        <pt x="858" y="0" on="0"/>
        <pt x="842" y="16" on="1"/>
        <pt x="807" y="49" on="0"/>
        <pt x="807" y="98" on="1"/>
        <pt x="807" y="433" on="1"/>
        <pt x="570" y="433" on="1"/>
        <pt x="570" y="98" on="1"/>
        <pt x="570" y="50" on="0"/>
        <pt x="544" y="24" on="1"/>
        <pt x="501" y="-19" on="0"/>
        <pt x="427" y="-19" on="0"/>
        <pt x="383" y="0" on="0"/>
        <pt x="367" y="16" on="1"/>
        <pt x="333" y="48" on="0"/>
        <pt x="333" y="98" on="1"/>
        <pt x="333" y="433" on="1"/>
        <pt x="261" y="433" on="1"/>
        <pt x="226" y="433" on="0"/>
        <pt x="206" y="452" on="1"/>
        <pt x="173" y="486" on="0"/>
        <pt x="173" y="561" on="0"/>
        <pt x="224" y="614" on="0"/>
        <pt x="261" y="614" on="1"/>
        <pt x="333" y="614" on="1"/>
        <pt x="333" y="955" on="1"/>
        <pt x="333" y="1050" on="0"/>
        <pt x="418" y="1130" on="1"/>
        <pt x="427" y="1138" on="0"/>
      </contour>
      <contour>
        <pt x="570" y="614" on="1"/>
        <pt x="807" y="614" on="1"/>
        <pt x="807" y="1059" on="1"/>
        <pt x="807" y="1109" on="0"/>
        <pt x="782" y="1134" on="1"/>
        <pt x="738" y="1178" on="0"/>
        <pt x="663" y="1178" on="0"/>
        <pt x="620" y="1159" on="0"/>
        <pt x="604" y="1143" on="1"/>
        <pt x="570" y="1109" on="0"/>
        <pt x="570" y="1060" on="1"/>
      </contour>
      <contour>
        <pt x="921" y="1599" on="1"/>
        <pt x="934" y="1575" on="0"/>
        <pt x="934" y="1531" on="0"/>
        <pt x="900" y="1493" on="0"/>
        <pt x="880" y="1493" on="1"/>
        <pt x="840" y="1493" on="0"/>
        <pt x="820" y="1513" on="1"/>
        <pt x="689" y="1647" on="1"/>
        <pt x="558" y="1513" on="1"/>
        <pt x="538" y="1493" on="0"/>
        <pt x="478" y="1493" on="0"/>
        <pt x="444" y="1531" on="0"/>
        <pt x="444" y="1575" on="0"/>
        <pt x="457" y="1599" on="1"/>
        <pt x="577" y="1812" on="1"/>
        <pt x="619" y="1888" on="0"/>
        <pt x="690" y="1888" on="1"/>
        <pt x="755" y="1888" on="0"/>
        <pt x="801" y="1812" on="1"/>
      </contour>
    </TTGlyph>
    <TTGlyph name="Adieresis" xMin="-63" yMin="-19" xMax="1044" yMax="1778">
      <contour>
        <pt x="427" y="1148" on="1"/>
        <pt x="427" y="1178" on="0"/>
        <pt x="398" y="1178" on="1"/>
        <pt x="282" y="1178" on="1"/>
        <pt x="237" y="1178" on="0"/>
        <pt x="214" y="1152" on="1"/>
        <pt x="174" y="1107" on="0"/>
        <pt x="174" y="1060" on="1"/>
        <pt x="174" y="1003" on="1"/>
        <pt x="174" y="925" on="0"/>
        <pt x="101" y="895" on="1"/>
        <pt x="79" y="886" on="0"/>
        <pt x="30" y="886" on="0"/>
        <pt x="-13" y="904" on="0"/>
        <pt x="-28" y="920" on="1"/>
        <pt x="-63" y="954" on="0"/>
        <pt x="-63" y="1003" on="1"/>
        <pt x="-63" y="1063" on="1"/>
        <pt x="-63" y="1185" on="0"/>
        <pt x="111" y="1359" on="0"/>
        <pt x="233" y="1359" on="1"/>
        <pt x="689" y="1359" on="1"/>
        <pt x="855" y="1359" on="0"/>
        <pt x="950" y="1278" on="1"/>
        <pt x="1044" y="1199" on="0"/>
        <pt x="1044" y="1063" on="1"/>
        <pt x="1044" y="98" on="1"/>
        <pt x="1044" y="22" on="0"/>
        <pt x="972" y="-10" on="1"/>
        <pt x="951" y="-19" on="0"/>
        <pt x="902" y="-19" on="0"/>
        <pt x="858" y="0" on="0"/>
        <pt x="842" y="16" on="1"/>
        <pt x="807" y="49" on="0"/>
        <pt x="807" y="98" on="1"/>
        <pt x="807" y="433" on="1"/>
        <pt x="570" y="433" on="1"/>
        <pt x="570" y="98" on="1"/>
        <pt x="570" y="50" on="0"/>
        <pt x="544" y="24" on="1"/>
        <pt x="501" y="-19" on="0"/>
        <pt x="427" y="-19" on="0"/>
        <pt x="383" y="0" on="0"/>
        <pt x="367" y="16" on="1"/>
        <pt x="333" y="48" on="0"/>
        <pt x="333" y="98" on="1"/>
        <pt x="333" y="433" on="1"/>
        <pt x="261" y="433" on="1"/>
        <pt x="226" y="433" on="0"/>
        <pt x="206" y="452" on="1"/>
        <pt x="173" y="486" on="0"/>
        <pt x="173" y="561" on="0"/>
        <pt x="224" y="614" on="0"/>
        <pt x="261" y="614" on="1"/>
        <pt x="333" y="614" on="1"/>
        <pt x="333" y="955" on="1"/>
        <pt x="333" y="1050" on="0"/>
        <pt x="418" y="1130" on="1"/>
        <pt x="427" y="1138" on="0"/>
      </contour>
      <contour>
        <pt x="570" y="614" on="1"/>
        <pt x="807" y="614" on="1"/>
        <pt x="807" y="1059" on="1"/>
        <pt x="807" y="1109" on="0"/>
        <pt x="782" y="1134" on="1"/>
        <pt x="738" y="1178" on="0"/>
        <pt x="663" y="1178" on="0"/>
        <pt x="620" y="1159" on="0"/>
        <pt x="604" y="1143" on="1"/>
        <pt x="570" y="1109" on="0"/>
        <pt x="570" y="1060" on="1"/>
      </contour>
      <contour>
        <pt x="477" y="1778" on="1"/>
        <pt x="532" y="1778" on="0"/>
        <pt x="571" y="1738" on="1"/>
        <pt x="612" y="1698" on="0"/>
        <pt x="612" y="1616" on="0"/>
        <pt x="590" y="1568" on="0"/>
        <pt x="571" y="1550" on="1"/>
        <pt x="532" y="1510" on="0"/>
        <pt x="477" y="1510" on="1"/>
        <pt x="422" y="1510" on="0"/>
        <pt x="383" y="1550" on="1"/>
        <pt x="342" y="1590" on="0"/>
        <pt x="342" y="1630" on="1"/>
        <pt x="342" y="1698" on="0"/>
        <pt x="422" y="1778" on="0"/>
      </contour>
      <contour>
        <pt x="779" y="1568" on="0"/>
        <pt x="758" y="1616" on="0"/>
        <pt x="758" y="1671" on="0"/>
        <pt x="779" y="1720" on="0"/>
        <pt x="797" y="1738" on="1"/>
        <pt x="837" y="1778" on="0"/>
        <pt x="920" y="1778" on="0"/>
        <pt x="969" y="1757" on="0"/>
        <pt x="987" y="1738" on="1"/>
        <pt x="1027" y="1699" on="0"/>
        <pt x="1027" y="1616" on="0"/>
        <pt x="1006" y="1568" on="0"/>
        <pt x="987" y="1550" on="1"/>
        <pt x="948" y="1510" on="0"/>
        <pt x="865" y="1510" on="0"/>
        <pt x="816" y="1531" on="0"/>
      </contour>
    </TTGlyph>
    <TTGlyph name="Agrave" xMin="-63" yMin="-19" xMax="1044" yMax="1886">
      <contour>
        <pt x="427" y="1148" on="1"/>
        <pt x="427" y="1178" on="0"/>
        <pt x="398" y="1178" on="1"/>
        <pt x="282" y="1178" on="1"/>
        <pt x="237" y="1178" on="0"/>
        <pt x="214" y="1152" on="1"/>
        <pt x="174" y="1107" on="0"/>
        <pt x="174" y="1060" on="1"/>
        <pt x="174" y="1003" on="1"/>
        <pt x="174" y="925" on="0"/>
        <pt x="101" y="895" on="1"/>
        <pt x="79" y="886" on="0"/>
        <pt x="30" y="886" on="0"/>
        <pt x="-13" y="904" on="0"/>
        <pt x="-28" y="920" on="1"/>
        <pt x="-63" y="954" on="0"/>
        <pt x="-63" y="1003" on="1"/>
        <pt x="-63" y="1063" on="1"/>
        <pt x="-63" y="1185" on="0"/>
        <pt x="111" y="1359" on="0"/>
        <pt x="233" y="1359" on="1"/>
        <pt x="689" y="1359" on="1"/>
        <pt x="855" y="1359" on="0"/>
        <pt x="950" y="1278" on="1"/>
        <pt x="1044" y="1199" on="0"/>
        <pt x="1044" y="1063" on="1"/>
        <pt x="1044" y="98" on="1"/>
        <pt x="1044" y="22" on="0"/>
        <pt x="972" y="-10" on="1"/>
        <pt x="951" y="-19" on="0"/>
        <pt x="902" y="-19" on="0"/>
        <pt x="858" y="0" on="0"/>
        <pt x="842" y="16" on="1"/>
        <pt x="807" y="49" on="0"/>
        <pt x="807" y="98" on="1"/>
        <pt x="807" y="433" on="1"/>
        <pt x="570" y="433" on="1"/>
        <pt x="570" y="98" on="1"/>
        <pt x="570" y="50" on="0"/>
        <pt x="544" y="24" on="1"/>
        <pt x="501" y="-19" on="0"/>
        <pt x="427" y="-19" on="0"/>
        <pt x="383" y="0" on="0"/>
        <pt x="367" y="16" on="1"/>
        <pt x="333" y="48" on="0"/>
        <pt x="333" y="98" on="1"/>
        <pt x="333" y="433" on="1"/>
        <pt x="261" y="433" on="1"/>
        <pt x="226" y="433" on="0"/>
        <pt x="206" y="452" on="1"/>
        <pt x="173" y="486" on="0"/>
        <pt x="173" y="561" on="0"/>
        <pt x="224" y="614" on="0"/>
        <pt x="261" y="614" on="1"/>
        <pt x="333" y="614" on="1"/>
        <pt x="333" y="955" on="1"/>
        <pt x="333" y="1050" on="0"/>
        <pt x="418" y="1130" on="1"/>
        <pt x="427" y="1138" on="0"/>
      </contour>
      <contour>
        <pt x="570" y="614" on="1"/>
        <pt x="807" y="614" on="1"/>
        <pt x="807" y="1059" on="1"/>
        <pt x="807" y="1109" on="0"/>
        <pt x="782" y="1134" on="1"/>
        <pt x="738" y="1178" on="0"/>
        <pt x="663" y="1178" on="0"/>
        <pt x="620" y="1159" on="0"/>
        <pt x="604" y="1143" on="1"/>
        <pt x="570" y="1109" on="0"/>
        <pt x="570" y="1060" on="1"/>
      </contour>
      <contour>
        <pt x="810" y="1602" on="1"/>
        <pt x="827" y="1579" on="0"/>
        <pt x="827" y="1528" on="0"/>
        <pt x="814" y="1514" on="1"/>
        <pt x="792" y="1492" on="0"/>
        <pt x="740" y="1492" on="0"/>
        <pt x="716" y="1508" on="1"/>
        <pt x="496" y="1662" on="1"/>
        <pt x="433" y="1705" on="0"/>
        <pt x="433" y="1775" on="1"/>
        <pt x="433" y="1819" on="0"/>
        <pt x="458" y="1844" on="1"/>
        <pt x="500" y="1886" on="0"/>
        <pt x="537" y="1886" on="1"/>
        <pt x="605" y="1886" on="0"/>
        <pt x="653" y="1820" on="1"/>
      </contour>
    </TTGlyph>
    <TTGlyph name="Amacron" xMin="-63" yMin="-19" xMax="1044" yMax="1736">
      <contour>
        <pt x="427" y="1148" on="1"/>
        <pt x="427" y="1178" on="0"/>
        <pt x="398" y="1178" on="1"/>
        <pt x="282" y="1178" on="1"/>
        <pt x="237" y="1178" on="0"/>
        <pt x="214" y="1152" on="1"/>
        <pt x="174" y="1107" on="0"/>
        <pt x="174" y="1060" on="1"/>
        <pt x="174" y="1003" on="1"/>
        <pt x="174" y="925" on="0"/>
        <pt x="101" y="895" on="1"/>
        <pt x="79" y="886" on="0"/>
        <pt x="30" y="886" on="0"/>
        <pt x="-13" y="904" on="0"/>
        <pt x="-28" y="920" on="1"/>
        <pt x="-63" y="954" on="0"/>
        <pt x="-63" y="1003" on="1"/>
        <pt x="-63" y="1063" on="1"/>
        <pt x="-63" y="1185" on="0"/>
        <pt x="111" y="1359" on="0"/>
        <pt x="233" y="1359" on="1"/>
        <pt x="689" y="1359" on="1"/>
        <pt x="855" y="1359" on="0"/>
        <pt x="950" y="1278" on="1"/>
        <pt x="1044" y="1199" on="0"/>
        <pt x="1044" y="1063" on="1"/>
        <pt x="1044" y="98" on="1"/>
        <pt x="1044" y="22" on="0"/>
        <pt x="972" y="-10" on="1"/>
        <pt x="951" y="-19" on="0"/>
        <pt x="902" y="-19" on="0"/>
        <pt x="858" y="0" on="0"/>
        <pt x="842" y="16" on="1"/>
        <pt x="807" y="49" on="0"/>
        <pt x="807" y="98" on="1"/>
        <pt x="807" y="433" on="1"/>
        <pt x="570" y="433" on="1"/>
        <pt x="570" y="98" on="1"/>
        <pt x="570" y="50" on="0"/>
        <pt x="544" y="24" on="1"/>
        <pt x="501" y="-19" on="0"/>
        <pt x="427" y="-19" on="0"/>
        <pt x="383" y="0" on="0"/>
        <pt x="367" y="16" on="1"/>
        <pt x="333" y="48" on="0"/>
        <pt x="333" y="98" on="1"/>
        <pt x="333" y="433" on="1"/>
        <pt x="261" y="433" on="1"/>
        <pt x="226" y="433" on="0"/>
        <pt x="206" y="452" on="1"/>
        <pt x="173" y="486" on="0"/>
        <pt x="173" y="561" on="0"/>
        <pt x="224" y="614" on="0"/>
        <pt x="261" y="614" on="1"/>
        <pt x="333" y="614" on="1"/>
        <pt x="333" y="955" on="1"/>
        <pt x="333" y="1050" on="0"/>
        <pt x="418" y="1130" on="1"/>
        <pt x="427" y="1138" on="0"/>
      </contour>
      <contour>
        <pt x="570" y="614" on="1"/>
        <pt x="807" y="614" on="1"/>
        <pt x="807" y="1059" on="1"/>
        <pt x="807" y="1109" on="0"/>
        <pt x="782" y="1134" on="1"/>
        <pt x="738" y="1178" on="0"/>
        <pt x="663" y="1178" on="0"/>
        <pt x="620" y="1159" on="0"/>
        <pt x="604" y="1143" on="1"/>
        <pt x="570" y="1109" on="0"/>
        <pt x="570" y="1060" on="1"/>
      </contour>
      <contour>
        <pt x="964" y="1697" on="0"/>
        <pt x="978" y="1664" on="0"/>
        <pt x="978" y="1627" on="0"/>
        <pt x="964" y="1594" on="0"/>
        <pt x="952" y="1582" on="1"/>
        <pt x="927" y="1555" on="0"/>
        <pt x="890" y="1555" on="1"/>
        <pt x="487" y="1555" on="1"/>
        <pt x="452" y="1555" on="0"/>
        <pt x="433" y="1574" on="1"/>
        <pt x="399" y="1608" on="0"/>
        <pt x="399" y="1664" on="0"/>
        <pt x="413" y="1697" on="0"/>
        <pt x="425" y="1710" on="1"/>
        <pt x="450" y="1736" on="0"/>
        <pt x="487" y="1736" on="1"/>
        <pt x="890" y="1736" on="1"/>
        <pt x="925" y="1736" on="0"/>
      </contour>
    </TTGlyph>
    <TTGlyph name="Aogonek" xMin="-63" yMin="-438" xMax="1044" yMax="1359">
      <contour>
        <pt x="427" y="1148" on="1"/>
        <pt x="427" y="1178" on="0"/>
        <pt x="398" y="1178" on="1"/>
        <pt x="282" y="1178" on="1"/>
        <pt x="237" y="1178" on="0"/>
        <pt x="214" y="1152" on="1"/>
        <pt x="174" y="1107" on="0"/>
        <pt x="174" y="1060" on="1"/>
        <pt x="174" y="1003" on="1"/>
        <pt x="174" y="925" on="0"/>
        <pt x="101" y="895" on="1"/>
        <pt x="79" y="886" on="0"/>
        <pt x="30" y="886" on="0"/>
        <pt x="-13" y="904" on="0"/>
        <pt x="-28" y="920" on="1"/>
        <pt x="-63" y="954" on="0"/>
        <pt x="-63" y="1003" on="1"/>
        <pt x="-63" y="1063" on="1"/>
        <pt x="-63" y="1185" on="0"/>
        <pt x="111" y="1359" on="0"/>
        <pt x="233" y="1359" on="1"/>
        <pt x="689" y="1359" on="1"/>
        <pt x="855" y="1359" on="0"/>
        <pt x="950" y="1278" on="1"/>
        <pt x="1044" y="1199" on="0"/>
        <pt x="1044" y="1063" on="1"/>
        <pt x="1044" y="98" on="1"/>
        <pt x="1044" y="61" on="0"/>
        <pt x="1003" y="3" on="0"/>
        <pt x="970" y="-10" on="1"/>
        <pt x="872" y="-127" on="1"/>
        <pt x="825" y="-182" on="0"/>
        <pt x="825" y="-218" on="1"/>
        <pt x="825" y="-290" on="0"/>
        <pt x="898" y="-290" on="1"/>
        <pt x="971" y="-290" on="1"/>
        <pt x="1000" y="-290" on="0"/>
        <pt x="1043" y="-333" on="0"/>
        <pt x="1043" y="-394" on="0"/>
        <pt x="1001" y="-438" on="0"/>
        <pt x="971" y="-438" on="1"/>
        <pt x="829" y="-438" on="1"/>
        <pt x="716" y="-438" on="0"/>
        <pt x="609" y="-349" on="0"/>
        <pt x="609" y="-275" on="1"/>
        <pt x="609" y="-191" on="0"/>
        <pt x="746" y="-52" on="1"/>
        <pt x="829" y="30" on="1"/>
        <pt x="807" y="60" on="0"/>
        <pt x="807" y="98" on="1"/>
        <pt x="807" y="433" on="1"/>
        <pt x="570" y="433" on="1"/>
        <pt x="570" y="98" on="1"/>
        <pt x="570" y="50" on="0"/>
        <pt x="544" y="24" on="1"/>
        <pt x="501" y="-19" on="0"/>
        <pt x="427" y="-19" on="0"/>
        <pt x="383" y="0" on="0"/>
        <pt x="367" y="16" on="1"/>
        <pt x="333" y="48" on="0"/>
        <pt x="333" y="98" on="1"/>
        <pt x="333" y="433" on="1"/>
        <pt x="261" y="433" on="1"/>
        <pt x="226" y="433" on="0"/>
        <pt x="206" y="452" on="1"/>
        <pt x="173" y="486" on="0"/>
        <pt x="173" y="561" on="0"/>
        <pt x="224" y="614" on="0"/>
        <pt x="261" y="614" on="1"/>
        <pt x="333" y="614" on="1"/>
        <pt x="333" y="955" on="1"/>
        <pt x="333" y="1050" on="0"/>
        <pt x="418" y="1130" on="1"/>
        <pt x="427" y="1138" on="0"/>
      </contour>
      <contour>
        <pt x="570" y="614" on="1"/>
        <pt x="807" y="614" on="1"/>
        <pt x="807" y="1059" on="1"/>
        <pt x="807" y="1109" on="0"/>
        <pt x="782" y="1134" on="1"/>
        <pt x="738" y="1178" on="0"/>
        <pt x="663" y="1178" on="0"/>
        <pt x="620" y="1159" on="0"/>
        <pt x="604" y="1143" on="1"/>
        <pt x="570" y="1109" on="0"/>
        <pt x="570" y="1060" on="1"/>
      </contour>
    </TTGlyph>
    <TTGlyph name="Aring" xMin="-63" yMin="-19" xMax="1044" yMax="1925">
      <contour>
        <pt x="427" y="1148" on="1"/>
        <pt x="427" y="1178" on="0"/>
        <pt x="398" y="1178" on="1"/>
        <pt x="282" y="1178" on="1"/>
        <pt x="237" y="1178" on="0"/>
        <pt x="214" y="1152" on="1"/>
        <pt x="174" y="1107" on="0"/>
        <pt x="174" y="1060" on="1"/>
        <pt x="174" y="1003" on="1"/>
        <pt x="174" y="925" on="0"/>
        <pt x="101" y="895" on="1"/>
        <pt x="79" y="886" on="0"/>
        <pt x="30" y="886" on="0"/>
        <pt x="-13" y="904" on="0"/>
        <pt x="-28" y="920" on="1"/>
        <pt x="-63" y="954" on="0"/>
        <pt x="-63" y="1003" on="1"/>
        <pt x="-63" y="1063" on="1"/>
        <pt x="-63" y="1185" on="0"/>
        <pt x="111" y="1359" on="0"/>
        <pt x="233" y="1359" on="1"/>
        <pt x="689" y="1359" on="1"/>
        <pt x="855" y="1359" on="0"/>
        <pt x="950" y="1278" on="1"/>
        <pt x="1044" y="1199" on="0"/>
        <pt x="1044" y="1063" on="1"/>
        <pt x="1044" y="98" on="1"/>
        <pt x="1044" y="22" on="0"/>
        <pt x="972" y="-10" on="1"/>
        <pt x="951" y="-19" on="0"/>
        <pt x="902" y="-19" on="0"/>
        <pt x="858" y="0" on="0"/>
        <pt x="842" y="16" on="1"/>
        <pt x="807" y="49" on="0"/>
        <pt x="807" y="98" on="1"/>
        <pt x="807" y="433" on="1"/>
        <pt x="570" y="433" on="1"/>
        <pt x="570" y="98" on="1"/>
        <pt x="570" y="50" on="0"/>
        <pt x="544" y="24" on="1"/>
        <pt x="501" y="-19" on="0"/>
        <pt x="427" y="-19" on="0"/>
        <pt x="383" y="0" on="0"/>
        <pt x="367" y="16" on="1"/>
        <pt x="333" y="48" on="0"/>
        <pt x="333" y="98" on="1"/>
        <pt x="333" y="433" on="1"/>
        <pt x="261" y="433" on="1"/>
        <pt x="226" y="433" on="0"/>
        <pt x="206" y="452" on="1"/>
        <pt x="173" y="486" on="0"/>
        <pt x="173" y="561" on="0"/>
        <pt x="224" y="614" on="0"/>
        <pt x="261" y="614" on="1"/>
        <pt x="333" y="614" on="1"/>
        <pt x="333" y="955" on="1"/>
        <pt x="333" y="1050" on="0"/>
        <pt x="418" y="1130" on="1"/>
        <pt x="427" y="1138" on="0"/>
      </contour>
      <contour>
        <pt x="570" y="614" on="1"/>
        <pt x="807" y="614" on="1"/>
        <pt x="807" y="1059" on="1"/>
        <pt x="807" y="1109" on="0"/>
        <pt x="782" y="1134" on="1"/>
        <pt x="738" y="1178" on="0"/>
        <pt x="663" y="1178" on="0"/>
        <pt x="620" y="1159" on="0"/>
        <pt x="604" y="1143" on="1"/>
        <pt x="570" y="1109" on="0"/>
        <pt x="570" y="1060" on="1"/>
      </contour>
      <contour>
        <pt x="689" y="1485" on="1"/>
        <pt x="644" y="1485" on="0"/>
        <pt x="564" y="1520" on="0"/>
        <pt x="533" y="1549" on="1"/>
        <pt x="468" y="1613" on="0"/>
        <pt x="468" y="1704" on="1"/>
        <pt x="468" y="1795" on="0"/>
        <pt x="533" y="1859" on="1"/>
        <pt x="601" y="1925" on="0"/>
        <pt x="689" y="1925" on="1"/>
        <pt x="780" y="1925" on="0"/>
        <pt x="845" y="1859" on="1"/>
        <pt x="908" y="1794" on="0"/>
        <pt x="908" y="1704" on="1"/>
        <pt x="908" y="1612" on="0"/>
        <pt x="781" y="1485" on="0"/>
      </contour>
      <contour>
        <pt x="743" y="1784" on="0"/>
        <pt x="708" y="1800" on="0"/>
        <pt x="647" y="1800" on="0"/>
        <pt x="592" y="1744" on="0"/>
        <pt x="592" y="1685" on="0"/>
        <pt x="608" y="1650" on="0"/>
        <pt x="621" y="1637" on="1"/>
        <pt x="651" y="1609" on="0"/>
        <pt x="707" y="1609" on="0"/>
        <pt x="742" y="1625" on="0"/>
        <pt x="755" y="1638" on="1"/>
        <pt x="785" y="1666" on="0"/>
        <pt x="785" y="1723" on="0"/>
        <pt x="769" y="1758" on="0"/>
      </contour>
    </TTGlyph>
    <TTGlyph name="Atilde" xMin="-63" yMin="-19" xMax="1044" yMax="1812">
      <contour>
        <pt x="427" y="1148" on="1"/>
        <pt x="427" y="1178" on="0"/>
        <pt x="398" y="1178" on="1"/>
        <pt x="282" y="1178" on="1"/>
        <pt x="237" y="1178" on="0"/>
        <pt x="214" y="1152" on="1"/>
        <pt x="174" y="1107" on="0"/>
        <pt x="174" y="1060" on="1"/>
        <pt x="174" y="1003" on="1"/>
        <pt x="174" y="925" on="0"/>
        <pt x="101" y="895" on="1"/>
        <pt x="79" y="886" on="0"/>
        <pt x="30" y="886" on="0"/>
        <pt x="-13" y="904" on="0"/>
        <pt x="-28" y="920" on="1"/>
        <pt x="-63" y="954" on="0"/>
        <pt x="-63" y="1003" on="1"/>
        <pt x="-63" y="1063" on="1"/>
        <pt x="-63" y="1185" on="0"/>
        <pt x="111" y="1359" on="0"/>
        <pt x="233" y="1359" on="1"/>
        <pt x="689" y="1359" on="1"/>
        <pt x="855" y="1359" on="0"/>
        <pt x="950" y="1278" on="1"/>
        <pt x="1044" y="1199" on="0"/>
        <pt x="1044" y="1063" on="1"/>
        <pt x="1044" y="98" on="1"/>
        <pt x="1044" y="22" on="0"/>
        <pt x="972" y="-10" on="1"/>
        <pt x="951" y="-19" on="0"/>
        <pt x="902" y="-19" on="0"/>
        <pt x="858" y="0" on="0"/>
        <pt x="842" y="16" on="1"/>
        <pt x="807" y="49" on="0"/>
        <pt x="807" y="98" on="1"/>
        <pt x="807" y="433" on="1"/>
        <pt x="570" y="433" on="1"/>
        <pt x="570" y="98" on="1"/>
        <pt x="570" y="50" on="0"/>
        <pt x="544" y="24" on="1"/>
        <pt x="501" y="-19" on="0"/>
        <pt x="427" y="-19" on="0"/>
        <pt x="383" y="0" on="0"/>
        <pt x="367" y="16" on="1"/>
        <pt x="333" y="48" on="0"/>
        <pt x="333" y="98" on="1"/>
        <pt x="333" y="433" on="1"/>
        <pt x="261" y="433" on="1"/>
        <pt x="226" y="433" on="0"/>
        <pt x="206" y="452" on="1"/>
        <pt x="173" y="486" on="0"/>
        <pt x="173" y="561" on="0"/>
        <pt x="224" y="614" on="0"/>
        <pt x="261" y="614" on="1"/>
        <pt x="333" y="614" on="1"/>
        <pt x="333" y="955" on="1"/>
        <pt x="333" y="1050" on="0"/>
        <pt x="418" y="1130" on="1"/>
        <pt x="427" y="1138" on="0"/>
      </contour>
      <contour>
        <pt x="570" y="614" on="1"/>
        <pt x="807" y="614" on="1"/>
        <pt x="807" y="1059" on="1"/>
        <pt x="807" y="1109" on="0"/>
        <pt x="782" y="1134" on="1"/>
        <pt x="738" y="1178" on="0"/>
        <pt x="663" y="1178" on="0"/>
        <pt x="620" y="1159" on="0"/>
        <pt x="604" y="1143" on="1"/>
        <pt x="570" y="1109" on="0"/>
        <pt x="570" y="1060" on="1"/>
      </contour>
      <contour>
        <pt x="923" y="1767" on="1"/>
        <pt x="943" y="1784" on="0"/>
        <pt x="994" y="1784" on="0"/>
        <pt x="1027" y="1748" on="0"/>
        <pt x="1027" y="1696" on="0"/>
        <pt x="986" y="1636" on="0"/>
        <pt x="937" y="1578" on="0"/>
        <pt x="908" y="1556" on="1"/>
        <pt x="848" y="1511" on="0"/>
        <pt x="716" y="1511" on="0"/>
        <pt x="634" y="1569" on="0"/>
        <pt x="614" y="1592" on="1"/>
        <pt x="588" y="1624" on="1"/>
        <pt x="581" y="1631" on="0"/>
        <pt x="572" y="1631" on="1"/>
        <pt x="561" y="1631" on="0"/>
        <pt x="534" y="1608" on="1"/>
        <pt x="472" y="1556" on="1"/>
        <pt x="452" y="1539" on="0"/>
        <pt x="401" y="1539" on="0"/>
        <pt x="368" y="1575" on="0"/>
        <pt x="368" y="1627" on="0"/>
        <pt x="408" y="1687" on="0"/>
        <pt x="457" y="1746" on="0"/>
        <pt x="486" y="1767" on="1"/>
        <pt x="547" y="1812" on="0"/>
        <pt x="621" y="1812" on="1"/>
        <pt x="700" y="1812" on="0"/>
        <pt x="758" y="1752" on="1"/>
        <pt x="793" y="1715" on="1"/>
        <pt x="801" y="1707" on="0"/>
        <pt x="814" y="1692" on="0"/>
        <pt x="823" y="1692" on="1"/>
        <pt x="834" y="1692" on="0"/>
        <pt x="861" y="1715" on="1"/>
      </contour>
    </TTGlyph>
    <TTGlyph name="B" xMin="-62" yMin="0" xMax="1042" yMax="1359">
      <contour>
        <pt x="231" y="0" on="1"/>
        <pt x="194" y="0" on="0"/>
        <pt x="174" y="19" on="1"/>
        <pt x="140" y="51" on="0"/>
        <pt x="140" y="108" on="0"/>
        <pt x="154" y="141" on="0"/>
        <pt x="166" y="154" on="1"/>
        <pt x="194" y="181" on="0"/>
        <pt x="231" y="181" on="1"/>
        <pt x="333" y="181" on="1"/>
        <pt x="333" y="955" on="1"/>
        <pt x="333" y="1050" on="0"/>
        <pt x="418" y="1130" on="1"/>
        <pt x="427" y="1138" on="0"/>
        <pt x="427" y="1157" on="0"/>
        <pt x="414" y="1178" on="0"/>
        <pt x="395" y="1178" on="1"/>
        <pt x="283" y="1178" on="1"/>
        <pt x="238" y="1178" on="0"/>
        <pt x="215" y="1152" on="1"/>
        <pt x="175" y="1107" on="0"/>
        <pt x="175" y="1060" on="1"/>
        <pt x="175" y="1003" on="1"/>
        <pt x="175" y="925" on="0"/>
        <pt x="102" y="895" on="1"/>
        <pt x="80" y="886" on="0"/>
        <pt x="31" y="886" on="0"/>
        <pt x="-12" y="904" on="0"/>
        <pt x="-28" y="920" on="1"/>
        <pt x="-62" y="954" on="0"/>
        <pt x="-62" y="1003" on="1"/>
        <pt x="-62" y="1063" on="1"/>
        <pt x="-62" y="1185" on="0"/>
        <pt x="112" y="1359" on="0"/>
        <pt x="234" y="1359" on="1"/>
        <pt x="697" y="1359" on="1"/>
        <pt x="933" y="1359" on="0"/>
        <pt x="1014" y="1197" on="1"/>
        <pt x="1042" y="1141" on="0"/>
        <pt x="1042" y="1063" on="1"/>
        <pt x="1042" y="852" on="1"/>
        <pt x="1042" y="687" on="0"/>
        <pt x="880" y="626" on="1"/>
        <pt x="947" y="587" on="0"/>
        <pt x="973" y="546" on="1"/>
        <pt x="1019" y="475" on="0"/>
        <pt x="1019" y="380" on="1"/>
        <pt x="1019" y="296" on="1"/>
        <pt x="1019" y="173" on="0"/>
        <pt x="933" y="87" on="1"/>
        <pt x="846" y="0" on="0"/>
        <pt x="724" y="0" on="1"/>
      </contour>
      <contour>
        <pt x="570" y="722" on="1"/>
        <pt x="689" y="722" on="1"/>
        <pt x="765" y="722" on="0"/>
        <pt x="796" y="794" on="1"/>
        <pt x="806" y="815" on="0"/>
        <pt x="806" y="841" on="1"/>
        <pt x="806" y="1061" on="1"/>
        <pt x="806" y="1108" on="0"/>
        <pt x="781" y="1134" on="1"/>
        <pt x="739" y="1178" on="0"/>
        <pt x="660" y="1178" on="0"/>
        <pt x="616" y="1159" on="0"/>
        <pt x="601" y="1142" on="1"/>
        <pt x="570" y="1108" on="0"/>
        <pt x="570" y="1061" on="1"/>
      </contour>
      <contour>
        <pt x="664" y="181" on="1"/>
        <pt x="713" y="181" on="0"/>
        <pt x="738" y="206" on="1"/>
        <pt x="783" y="251" on="0"/>
        <pt x="783" y="300" on="1"/>
        <pt x="783" y="424" on="1"/>
        <pt x="783" y="473" on="0"/>
        <pt x="758" y="498" on="1"/>
        <pt x="714" y="542" on="0"/>
        <pt x="664" y="542" on="1"/>
        <pt x="570" y="542" on="1"/>
        <pt x="570" y="181" on="1"/>
      </contour>
    </TTGlyph>
    <TTGlyph name="C" xMin="156" yMin="-19" xMax="876" yMax="1379">
      <contour>
        <pt x="633" y="1006" on="0"/>
        <pt x="659" y="1049" on="0"/>
        <pt x="659" y="1105" on="0"/>
        <pt x="639" y="1148" on="0"/>
        <pt x="621" y="1164" on="1"/>
        <pt x="582" y="1199" on="0"/>
        <pt x="462" y="1199" on="0"/>
        <pt x="393" y="1130" on="0"/>
        <pt x="393" y="1080" on="1"/>
        <pt x="393" y="268" on="1"/>
        <pt x="393" y="217" on="0"/>
        <pt x="460" y="162" on="0"/>
        <pt x="561" y="162" on="0"/>
        <pt x="629" y="217" on="0"/>
        <pt x="629" y="268" on="1"/>
        <pt x="629" y="333" on="1"/>
        <pt x="629" y="383" on="0"/>
        <pt x="654" y="408" on="1"/>
        <pt x="697" y="451" on="0"/>
        <pt x="771" y="451" on="0"/>
        <pt x="815" y="433" on="0"/>
        <pt x="831" y="417" on="1"/>
        <pt x="866" y="382" on="0"/>
        <pt x="866" y="333" on="1"/>
        <pt x="866" y="274" on="1"/>
        <pt x="866" y="65" on="0"/>
        <pt x="662" y="2" on="1"/>
        <pt x="596" y="-19" on="0"/>
        <pt x="427" y="-19" on="0"/>
        <pt x="295" y="22" on="0"/>
        <pt x="250" y="60" on="1"/>
        <pt x="156" y="140" on="0"/>
        <pt x="156" y="277" on="1"/>
        <pt x="156" y="1085" on="1"/>
        <pt x="156" y="1220" on="0"/>
        <pt x="248" y="1298" on="1"/>
        <pt x="344" y="1379" on="0"/>
        <pt x="511" y="1379" on="1"/>
        <pt x="683" y="1379" on="0"/>
        <pt x="780" y="1298" on="1"/>
        <pt x="876" y="1219" on="0"/>
        <pt x="876" y="1084" on="1"/>
        <pt x="876" y="873" on="0"/>
        <pt x="768" y="799" on="1"/>
        <pt x="735" y="776" on="0"/>
        <pt x="668" y="776" on="0"/>
        <pt x="625" y="794" on="0"/>
        <pt x="609" y="810" on="1"/>
        <pt x="575" y="842" on="0"/>
        <pt x="575" y="924" on="0"/>
        <pt x="601" y="967" on="0"/>
      </contour>
    </TTGlyph>
    <TTGlyph name="Cacute" xMin="156" yMin="-19" xMax="876" yMax="1886">
      <contour>
        <pt x="633" y="1006" on="0"/>
        <pt x="659" y="1049" on="0"/>
        <pt x="659" y="1105" on="0"/>
        <pt x="639" y="1148" on="0"/>
        <pt x="621" y="1164" on="1"/>
        <pt x="582" y="1199" on="0"/>
        <pt x="462" y="1199" on="0"/>
        <pt x="393" y="1130" on="0"/>
        <pt x="393" y="1080" on="1"/>
        <pt x="393" y="268" on="1"/>
        <pt x="393" y="217" on="0"/>
        <pt x="460" y="162" on="0"/>
        <pt x="561" y="162" on="0"/>
        <pt x="629" y="217" on="0"/>
        <pt x="629" y="268" on="1"/>
        <pt x="629" y="333" on="1"/>
        <pt x="629" y="383" on="0"/>
        <pt x="654" y="408" on="1"/>
        <pt x="697" y="451" on="0"/>
        <pt x="771" y="451" on="0"/>
        <pt x="815" y="433" on="0"/>
        <pt x="831" y="417" on="1"/>
        <pt x="866" y="382" on="0"/>
        <pt x="866" y="333" on="1"/>
        <pt x="866" y="274" on="1"/>
        <pt x="866" y="65" on="0"/>
        <pt x="662" y="2" on="1"/>
        <pt x="596" y="-19" on="0"/>
        <pt x="427" y="-19" on="0"/>
        <pt x="295" y="22" on="0"/>
        <pt x="250" y="60" on="1"/>
        <pt x="156" y="140" on="0"/>
        <pt x="156" y="277" on="1"/>
        <pt x="156" y="1085" on="1"/>
        <pt x="156" y="1220" on="0"/>
        <pt x="248" y="1298" on="1"/>
        <pt x="344" y="1379" on="0"/>
        <pt x="511" y="1379" on="1"/>
        <pt x="683" y="1379" on="0"/>
        <pt x="780" y="1298" on="1"/>
        <pt x="876" y="1219" on="0"/>
        <pt x="876" y="1084" on="1"/>
        <pt x="876" y="873" on="0"/>
        <pt x="768" y="799" on="1"/>
        <pt x="735" y="776" on="0"/>
        <pt x="668" y="776" on="0"/>
        <pt x="625" y="794" on="0"/>
        <pt x="609" y="810" on="1"/>
        <pt x="575" y="842" on="0"/>
        <pt x="575" y="924" on="0"/>
        <pt x="601" y="967" on="0"/>
      </contour>
      <contour>
        <pt x="547" y="1820" on="1"/>
        <pt x="595" y="1886" on="0"/>
        <pt x="658" y="1886" on="1"/>
        <pt x="700" y="1886" on="0"/>
        <pt x="725" y="1860" on="1"/>
        <pt x="767" y="1819" on="0"/>
        <pt x="767" y="1781" on="1"/>
        <pt x="767" y="1705" on="0"/>
        <pt x="704" y="1662" on="1"/>
        <pt x="484" y="1508" on="1"/>
        <pt x="460" y="1492" on="0"/>
        <pt x="441" y="1492" on="1"/>
        <pt x="407" y="1492" on="0"/>
        <pt x="373" y="1528" on="0"/>
        <pt x="373" y="1579" on="0"/>
        <pt x="390" y="1602" on="1"/>
      </contour>
    </TTGlyph>
    <TTGlyph name="Ccaron" xMin="156" yMin="-19" xMax="876" yMax="1888">
      <contour>
        <pt x="633" y="1006" on="0"/>
        <pt x="659" y="1049" on="0"/>
        <pt x="659" y="1105" on="0"/>
        <pt x="639" y="1148" on="0"/>
        <pt x="621" y="1164" on="1"/>
        <pt x="582" y="1199" on="0"/>
        <pt x="462" y="1199" on="0"/>
        <pt x="393" y="1130" on="0"/>
        <pt x="393" y="1080" on="1"/>
        <pt x="393" y="268" on="1"/>
        <pt x="393" y="217" on="0"/>
        <pt x="460" y="162" on="0"/>
        <pt x="561" y="162" on="0"/>
        <pt x="629" y="217" on="0"/>
        <pt x="629" y="268" on="1"/>
        <pt x="629" y="333" on="1"/>
        <pt x="629" y="383" on="0"/>
        <pt x="654" y="408" on="1"/>
        <pt x="697" y="451" on="0"/>
        <pt x="771" y="451" on="0"/>
        <pt x="815" y="433" on="0"/>
        <pt x="831" y="417" on="1"/>
        <pt x="866" y="382" on="0"/>
        <pt x="866" y="333" on="1"/>
        <pt x="866" y="274" on="1"/>
        <pt x="866" y="65" on="0"/>
        <pt x="662" y="2" on="1"/>
        <pt x="596" y="-19" on="0"/>
        <pt x="427" y="-19" on="0"/>
        <pt x="295" y="22" on="0"/>
        <pt x="250" y="60" on="1"/>
        <pt x="156" y="140" on="0"/>
        <pt x="156" y="277" on="1"/>
        <pt x="156" y="1085" on="1"/>
        <pt x="156" y="1220" on="0"/>
        <pt x="248" y="1298" on="1"/>
        <pt x="344" y="1379" on="0"/>
        <pt x="511" y="1379" on="1"/>
        <pt x="683" y="1379" on="0"/>
        <pt x="780" y="1298" on="1"/>
        <pt x="876" y="1219" on="0"/>
        <pt x="876" y="1084" on="1"/>
        <pt x="876" y="873" on="0"/>
        <pt x="768" y="799" on="1"/>
        <pt x="735" y="776" on="0"/>
        <pt x="668" y="776" on="0"/>
        <pt x="625" y="794" on="0"/>
        <pt x="609" y="810" on="1"/>
        <pt x="575" y="842" on="0"/>
        <pt x="575" y="924" on="0"/>
        <pt x="601" y="967" on="0"/>
      </contour>
      <contour>
        <pt x="279" y="1782" on="1"/>
        <pt x="266" y="1806" on="0"/>
        <pt x="266" y="1850" on="0"/>
        <pt x="300" y="1888" on="0"/>
        <pt x="320" y="1888" on="1"/>
        <pt x="360" y="1888" on="0"/>
        <pt x="380" y="1868" on="1"/>
        <pt x="511" y="1734" on="1"/>
        <pt x="642" y="1868" on="1"/>
        <pt x="662" y="1888" on="0"/>
        <pt x="722" y="1888" on="0"/>
        <pt x="756" y="1850" on="0"/>
        <pt x="756" y="1806" on="0"/>
        <pt x="743" y="1782" on="1"/>
        <pt x="623" y="1569" on="1"/>
        <pt x="581" y="1493" on="0"/>
        <pt x="510" y="1493" on="1"/>
        <pt x="445" y="1493" on="0"/>
        <pt x="399" y="1569" on="1"/>
      </contour>
    </TTGlyph>
    <TTGlyph name="Ccedilla" xMin="156" yMin="-438" xMax="876" yMax="1379">
      <contour>
        <pt x="416" y="-204" on="1"/>
        <pt x="389" y="-204" on="0"/>
        <pt x="355" y="-172" on="0"/>
        <pt x="355" y="-124" on="0"/>
        <pt x="369" y="-91" on="1"/>
        <pt x="405" y="-9" on="1"/>
        <pt x="285" y="14" on="0"/>
        <pt x="156" y="162" on="0"/>
        <pt x="156" y="277" on="1"/>
        <pt x="156" y="1085" on="1"/>
        <pt x="156" y="1220" on="0"/>
        <pt x="248" y="1298" on="1"/>
        <pt x="344" y="1379" on="0"/>
        <pt x="511" y="1379" on="1"/>
        <pt x="683" y="1379" on="0"/>
        <pt x="780" y="1298" on="1"/>
        <pt x="876" y="1219" on="0"/>
        <pt x="876" y="1084" on="1"/>
        <pt x="876" y="873" on="0"/>
        <pt x="768" y="799" on="1"/>
        <pt x="735" y="776" on="0"/>
        <pt x="668" y="776" on="0"/>
        <pt x="625" y="794" on="0"/>
        <pt x="609" y="810" on="1"/>
        <pt x="575" y="842" on="0"/>
        <pt x="575" y="924" on="0"/>
        <pt x="601" y="967" on="0"/>
        <pt x="617" y="986" on="1"/>
        <pt x="659" y="1038" on="0"/>
        <pt x="659" y="1105" on="0"/>
        <pt x="639" y="1148" on="0"/>
        <pt x="621" y="1164" on="1"/>
        <pt x="582" y="1199" on="0"/>
        <pt x="462" y="1199" on="0"/>
        <pt x="393" y="1130" on="0"/>
        <pt x="393" y="1080" on="1"/>
        <pt x="393" y="268" on="1"/>
        <pt x="393" y="217" on="0"/>
        <pt x="460" y="162" on="0"/>
        <pt x="561" y="162" on="0"/>
        <pt x="629" y="217" on="0"/>
        <pt x="629" y="268" on="1"/>
        <pt x="629" y="333" on="1"/>
        <pt x="629" y="383" on="0"/>
        <pt x="654" y="408" on="1"/>
        <pt x="697" y="451" on="0"/>
        <pt x="771" y="451" on="0"/>
        <pt x="815" y="433" on="0"/>
        <pt x="831" y="417" on="1"/>
        <pt x="866" y="382" on="0"/>
        <pt x="866" y="333" on="1"/>
        <pt x="866" y="274" on="1"/>
        <pt x="866" y="72" on="0"/>
        <pt x="676" y="6" on="1"/>
        <pt x="614" y="-15" on="0"/>
        <pt x="535" y="-18" on="1"/>
        <pt x="503" y="-92" on="1"/>
        <pt x="595" y="-92" on="0"/>
        <pt x="648" y="-144" on="1"/>
        <pt x="697" y="-190" on="0"/>
        <pt x="697" y="-265" on="1"/>
        <pt x="697" y="-384" on="0"/>
        <pt x="574" y="-424" on="1"/>
        <pt x="532" y="-438" on="0"/>
        <pt x="476" y="-438" on="1"/>
        <pt x="315" y="-438" on="1"/>
        <pt x="292" y="-438" on="0"/>
        <pt x="260" y="-405" on="0"/>
        <pt x="260" y="-358" on="0"/>
        <pt x="292" y="-325" on="0"/>
        <pt x="315" y="-325" on="1"/>
        <pt x="436" y="-325" on="1"/>
        <pt x="468" y="-325" on="0"/>
        <pt x="509" y="-288" on="0"/>
        <pt x="509" y="-239" on="0"/>
        <pt x="470" y="-204" on="0"/>
        <pt x="442" y="-204" on="1"/>
      </contour>
    </TTGlyph>
    <TTGlyph name="Ccircumflex" xMin="156" yMin="-19" xMax="876" yMax="1888">
      <contour>
        <pt x="633" y="1006" on="0"/>
        <pt x="659" y="1049" on="0"/>
        <pt x="659" y="1105" on="0"/>
        <pt x="639" y="1148" on="0"/>
        <pt x="621" y="1164" on="1"/>
        <pt x="582" y="1199" on="0"/>
        <pt x="462" y="1199" on="0"/>
        <pt x="393" y="1130" on="0"/>
        <pt x="393" y="1080" on="1"/>
        <pt x="393" y="268" on="1"/>
        <pt x="393" y="217" on="0"/>
        <pt x="460" y="162" on="0"/>
        <pt x="561" y="162" on="0"/>
        <pt x="629" y="217" on="0"/>
        <pt x="629" y="268" on="1"/>
        <pt x="629" y="333" on="1"/>
        <pt x="629" y="383" on="0"/>
        <pt x="654" y="408" on="1"/>
        <pt x="697" y="451" on="0"/>
        <pt x="771" y="451" on="0"/>
        <pt x="815" y="433" on="0"/>
        <pt x="831" y="417" on="1"/>
        <pt x="866" y="382" on="0"/>
        <pt x="866" y="333" on="1"/>
        <pt x="866" y="274" on="1"/>
        <pt x="866" y="65" on="0"/>
        <pt x="662" y="2" on="1"/>
        <pt x="596" y="-19" on="0"/>
        <pt x="427" y="-19" on="0"/>
        <pt x="295" y="22" on="0"/>
        <pt x="250" y="60" on="1"/>
        <pt x="156" y="140" on="0"/>
        <pt x="156" y="277" on="1"/>
        <pt x="156" y="1085" on="1"/>
        <pt x="156" y="1220" on="0"/>
        <pt x="248" y="1298" on="1"/>
        <pt x="344" y="1379" on="0"/>
        <pt x="511" y="1379" on="1"/>
        <pt x="683" y="1379" on="0"/>
        <pt x="780" y="1298" on="1"/>
        <pt x="876" y="1219" on="0"/>
        <pt x="876" y="1084" on="1"/>
        <pt x="876" y="873" on="0"/>
        <pt x="768" y="799" on="1"/>
        <pt x="735" y="776" on="0"/>
        <pt x="668" y="776" on="0"/>
        <pt x="625" y="794" on="0"/>
        <pt x="609" y="810" on="1"/>
        <pt x="575" y="842" on="0"/>
        <pt x="575" y="924" on="0"/>
        <pt x="601" y="967" on="0"/>
      </contour>
      <contour>
        <pt x="742" y="1599" on="1"/>
        <pt x="755" y="1575" on="0"/>
        <pt x="755" y="1531" on="0"/>
        <pt x="721" y="1493" on="0"/>
        <pt x="701" y="1493" on="1"/>
        <pt x="661" y="1493" on="0"/>
        <pt x="641" y="1513" on="1"/>
        <pt x="510" y="1647" on="1"/>
        <pt x="379" y="1513" on="1"/>
        <pt x="359" y="1493" on="0"/>
        <pt x="299" y="1493" on="0"/>
        <pt x="265" y="1531" on="0"/>
        <pt x="265" y="1575" on="0"/>
        <pt x="278" y="1599" on="1"/>
        <pt x="398" y="1812" on="1"/>
        <pt x="440" y="1888" on="0"/>
        <pt x="511" y="1888" on="1"/>
        <pt x="576" y="1888" on="0"/>
        <pt x="622" y="1812" on="1"/>
      </contour>
    </TTGlyph>
    <TTGlyph name="Cdotaccent" xMin="156" yMin="-19" xMax="876" yMax="1778">
      <contour>
        <pt x="633" y="1006" on="0"/>
        <pt x="659" y="1049" on="0"/>
        <pt x="659" y="1105" on="0"/>
        <pt x="639" y="1148" on="0"/>
        <pt x="621" y="1164" on="1"/>
        <pt x="582" y="1199" on="0"/>
        <pt x="462" y="1199" on="0"/>
        <pt x="393" y="1130" on="0"/>
        <pt x="393" y="1080" on="1"/>
        <pt x="393" y="268" on="1"/>
        <pt x="393" y="217" on="0"/>
        <pt x="460" y="162" on="0"/>
        <pt x="561" y="162" on="0"/>
        <pt x="629" y="217" on="0"/>
        <pt x="629" y="268" on="1"/>
        <pt x="629" y="333" on="1"/>
        <pt x="629" y="383" on="0"/>
        <pt x="654" y="408" on="1"/>
        <pt x="697" y="451" on="0"/>
        <pt x="771" y="451" on="0"/>
        <pt x="815" y="433" on="0"/>
        <pt x="831" y="417" on="1"/>
        <pt x="866" y="382" on="0"/>
        <pt x="866" y="333" on="1"/>
        <pt x="866" y="274" on="1"/>
        <pt x="866" y="65" on="0"/>
        <pt x="662" y="2" on="1"/>
        <pt x="596" y="-19" on="0"/>
        <pt x="427" y="-19" on="0"/>
        <pt x="295" y="22" on="0"/>
        <pt x="250" y="60" on="1"/>
        <pt x="156" y="140" on="0"/>
        <pt x="156" y="277" on="1"/>
        <pt x="156" y="1085" on="1"/>
        <pt x="156" y="1220" on="0"/>
        <pt x="248" y="1298" on="1"/>
        <pt x="344" y="1379" on="0"/>
        <pt x="511" y="1379" on="1"/>
        <pt x="683" y="1379" on="0"/>
        <pt x="780" y="1298" on="1"/>
        <pt x="876" y="1219" on="0"/>
        <pt x="876" y="1084" on="1"/>
        <pt x="876" y="873" on="0"/>
        <pt x="768" y="799" on="1"/>
        <pt x="735" y="776" on="0"/>
        <pt x="668" y="776" on="0"/>
        <pt x="625" y="794" on="0"/>
        <pt x="609" y="810" on="1"/>
        <pt x="575" y="842" on="0"/>
        <pt x="575" y="924" on="0"/>
        <pt x="601" y="967" on="0"/>
      </contour>
      <contour>
        <pt x="511" y="1778" on="1"/>
        <pt x="566" y="1778" on="0"/>
        <pt x="606" y="1738" on="1"/>
        <pt x="646" y="1698" on="0"/>
        <pt x="646" y="1616" on="0"/>
        <pt x="624" y="1568" on="0"/>
        <pt x="606" y="1550" on="1"/>
        <pt x="566" y="1510" on="0"/>
        <pt x="511" y="1510" on="1"/>
        <pt x="456" y="1510" on="0"/>
        <pt x="416" y="1550" on="1"/>
        <pt x="376" y="1590" on="0"/>
        <pt x="376" y="1630" on="1"/>
        <pt x="376" y="1698" on="0"/>
        <pt x="456" y="1778" on="0"/>
      </contour>
    </TTGlyph>
    <TTGlyph name="D" xMin="-63" yMin="0" xMax="1041" yMax="1359">
      <contour>
        <pt x="174" y="1003" on="1"/>
        <pt x="174" y="925" on="0"/>
        <pt x="101" y="895" on="1"/>
        <pt x="79" y="886" on="0"/>
        <pt x="30" y="886" on="0"/>
        <pt x="-13" y="904" on="0"/>
        <pt x="-29" y="920" on="1"/>
        <pt x="-63" y="952" on="0"/>
        <pt x="-63" y="1003" on="1"/>
        <pt x="-63" y="1063" on="1"/>
        <pt x="-63" y="1185" on="0"/>
        <pt x="111" y="1359" on="0"/>
        <pt x="233" y="1359" on="1"/>
        <pt x="746" y="1359" on="1"/>
        <pt x="868" y="1359" on="0"/>
        <pt x="955" y="1272" on="1"/>
        <pt x="1041" y="1186" on="0"/>
        <pt x="1041" y="1063" on="1"/>
        <pt x="1041" y="296" on="1"/>
        <pt x="1041" y="173" on="0"/>
        <pt x="955" y="87" on="1"/>
        <pt x="868" y="0" on="0"/>
        <pt x="746" y="0" on="1"/>
        <pt x="221" y="0" on="1"/>
        <pt x="184" y="0" on="0"/>
        <pt x="164" y="19" on="1"/>
        <pt x="130" y="51" on="0"/>
        <pt x="130" y="108" on="0"/>
        <pt x="144" y="141" on="0"/>
        <pt x="156" y="154" on="1"/>
        <pt x="184" y="181" on="0"/>
        <pt x="221" y="181" on="1"/>
        <pt x="333" y="181" on="1"/>
        <pt x="333" y="956" on="1"/>
        <pt x="333" y="1051" on="0"/>
        <pt x="418" y="1131" on="1"/>
        <pt x="427" y="1139" on="0"/>
        <pt x="427" y="1158" on="0"/>
        <pt x="414" y="1179" on="0"/>
        <pt x="395" y="1179" on="1"/>
        <pt x="282" y="1179" on="1"/>
        <pt x="238" y="1179" on="0"/>
        <pt x="214" y="1152" on="1"/>
        <pt x="174" y="1107" on="0"/>
        <pt x="174" y="1060" on="1"/>
      </contour>
      <contour>
        <pt x="570" y="181" on="1"/>
        <pt x="689" y="181" on="1"/>
        <pt x="736" y="181" on="0"/>
        <pt x="762" y="206" on="1"/>
        <pt x="805" y="247" on="0"/>
        <pt x="805" y="298" on="1"/>
        <pt x="805" y="1060" on="1"/>
        <pt x="805" y="1110" on="0"/>
        <pt x="780" y="1135" on="1"/>
        <pt x="736" y="1179" on="0"/>
        <pt x="662" y="1179" on="0"/>
        <pt x="618" y="1160" on="0"/>
        <pt x="602" y="1144" on="1"/>
        <pt x="570" y="1110" on="0"/>
        <pt x="570" y="1061" on="1"/>
      </contour>
    </TTGlyph>
    <TTGlyph name="Dcaron" xMin="-63" yMin="0" xMax="1041" yMax="1888">
      <contour>
        <pt x="174" y="1003" on="1"/>
        <pt x="174" y="925" on="0"/>
        <pt x="101" y="895" on="1"/>
        <pt x="79" y="886" on="0"/>
        <pt x="30" y="886" on="0"/>
        <pt x="-13" y="904" on="0"/>
        <pt x="-29" y="920" on="1"/>
        <pt x="-63" y="952" on="0"/>
        <pt x="-63" y="1003" on="1"/>
        <pt x="-63" y="1063" on="1"/>
        <pt x="-63" y="1185" on="0"/>
        <pt x="111" y="1359" on="0"/>
        <pt x="233" y="1359" on="1"/>
        <pt x="746" y="1359" on="1"/>
        <pt x="868" y="1359" on="0"/>
        <pt x="955" y="1272" on="1"/>
        <pt x="1041" y="1186" on="0"/>
        <pt x="1041" y="1063" on="1"/>
        <pt x="1041" y="296" on="1"/>
        <pt x="1041" y="173" on="0"/>
        <pt x="955" y="87" on="1"/>
        <pt x="868" y="0" on="0"/>
        <pt x="746" y="0" on="1"/>
        <pt x="221" y="0" on="1"/>
        <pt x="184" y="0" on="0"/>
        <pt x="164" y="19" on="1"/>
        <pt x="130" y="51" on="0"/>
        <pt x="130" y="108" on="0"/>
        <pt x="144" y="141" on="0"/>
        <pt x="156" y="154" on="1"/>
        <pt x="184" y="181" on="0"/>
        <pt x="221" y="181" on="1"/>
        <pt x="333" y="181" on="1"/>
        <pt x="333" y="956" on="1"/>
        <pt x="333" y="1051" on="0"/>
        <pt x="418" y="1131" on="1"/>
        <pt x="427" y="1139" on="0"/>
        <pt x="427" y="1158" on="0"/>
        <pt x="414" y="1179" on="0"/>
        <pt x="395" y="1179" on="1"/>
        <pt x="282" y="1179" on="1"/>
        <pt x="238" y="1179" on="0"/>
        <pt x="214" y="1152" on="1"/>
        <pt x="174" y="1107" on="0"/>
        <pt x="174" y="1060" on="1"/>
      </contour>
      <contour>
        <pt x="570" y="181" on="1"/>
        <pt x="689" y="181" on="1"/>
        <pt x="736" y="181" on="0"/>
        <pt x="762" y="206" on="1"/>
        <pt x="805" y="247" on="0"/>
        <pt x="805" y="298" on="1"/>
        <pt x="805" y="1060" on="1"/>
        <pt x="805" y="1110" on="0"/>
        <pt x="780" y="1135" on="1"/>
        <pt x="736" y="1179" on="0"/>
        <pt x="662" y="1179" on="0"/>
        <pt x="618" y="1160" on="0"/>
        <pt x="602" y="1144" on="1"/>
        <pt x="570" y="1110" on="0"/>
        <pt x="570" y="1061" on="1"/>
      </contour>
      <contour>
        <pt x="426" y="1782" on="1"/>
        <pt x="413" y="1806" on="0"/>
        <pt x="413" y="1850" on="0"/>
        <pt x="447" y="1888" on="0"/>
        <pt x="467" y="1888" on="1"/>
        <pt x="507" y="1888" on="0"/>
        <pt x="527" y="1868" on="1"/>
        <pt x="658" y="1734" on="1"/>
        <pt x="789" y="1868" on="1"/>
        <pt x="809" y="1888" on="0"/>
        <pt x="869" y="1888" on="0"/>
        <pt x="903" y="1850" on="0"/>
        <pt x="903" y="1806" on="0"/>
        <pt x="890" y="1782" on="1"/>
        <pt x="770" y="1569" on="1"/>
        <pt x="728" y="1493" on="0"/>
        <pt x="657" y="1493" on="1"/>
        <pt x="592" y="1493" on="0"/>
        <pt x="546" y="1569" on="1"/>
      </contour>
    </TTGlyph>
    <TTGlyph name="Dcroat" xMin="60" yMin="0" xMax="1165" yMax="1359">
      <contour>
        <pt x="297" y="1003" on="1"/>
        <pt x="297" y="925" on="0"/>
        <pt x="224" y="895" on="1"/>
        <pt x="202" y="886" on="0"/>
        <pt x="153" y="886" on="0"/>
        <pt x="110" y="904" on="0"/>
        <pt x="94" y="920" on="1"/>
        <pt x="60" y="952" on="0"/>
        <pt x="60" y="1003" on="1"/>
        <pt x="60" y="1063" on="1"/>
        <pt x="60" y="1185" on="0"/>
        <pt x="234" y="1359" on="0"/>
        <pt x="356" y="1359" on="1"/>
        <pt x="870" y="1359" on="1"/>
        <pt x="992" y="1359" on="0"/>
        <pt x="1079" y="1272" on="1"/>
        <pt x="1165" y="1186" on="0"/>
        <pt x="1165" y="1063" on="1"/>
        <pt x="1165" y="296" on="1"/>
        <pt x="1165" y="173" on="0"/>
        <pt x="1079" y="87" on="1"/>
        <pt x="992" y="0" on="0"/>
        <pt x="870" y="0" on="1"/>
        <pt x="324" y="0" on="1"/>
        <pt x="287" y="0" on="0"/>
        <pt x="267" y="19" on="1"/>
        <pt x="233" y="51" on="0"/>
        <pt x="233" y="108" on="0"/>
        <pt x="247" y="141" on="0"/>
        <pt x="260" y="154" on="1"/>
        <pt x="287" y="181" on="0"/>
        <pt x="324" y="181" on="1"/>
        <pt x="456" y="181" on="1"/>
        <pt x="456" y="559" on="1"/>
        <pt x="329" y="559" on="1"/>
        <pt x="302" y="559" on="0"/>
        <pt x="267" y="591" on="0"/>
        <pt x="268" y="639" on="0"/>
        <pt x="301" y="671" on="0"/>
        <pt x="326" y="671" on="1"/>
        <pt x="456" y="671" on="1"/>
        <pt x="456" y="956" on="1"/>
        <pt x="456" y="1051" on="0"/>
        <pt x="542" y="1131" on="1"/>
        <pt x="550" y="1139" on="0"/>
        <pt x="550" y="1158" on="0"/>
        <pt x="537" y="1179" on="0"/>
        <pt x="518" y="1179" on="1"/>
        <pt x="405" y="1179" on="1"/>
        <pt x="361" y="1179" on="0"/>
        <pt x="337" y="1152" on="1"/>
        <pt x="297" y="1107" on="0"/>
        <pt x="297" y="1060" on="1"/>
      </contour>
      <contour>
        <pt x="693" y="559" on="1"/>
        <pt x="693" y="181" on="1"/>
        <pt x="812" y="181" on="1"/>
        <pt x="888" y="181" on="0"/>
        <pt x="920" y="252" on="1"/>
        <pt x="929" y="273" on="0"/>
        <pt x="929" y="298" on="1"/>
        <pt x="929" y="1060" on="1"/>
        <pt x="929" y="1108" on="0"/>
        <pt x="904" y="1134" on="1"/>
        <pt x="861" y="1179" on="0"/>
        <pt x="812" y="1179" on="1"/>
        <pt x="802" y="1179" on="1"/>
        <pt x="755" y="1176" on="0"/>
        <pt x="693" y="1110" on="0"/>
        <pt x="693" y="1061" on="1"/>
        <pt x="693" y="671" on="1"/>
        <pt x="753" y="671" on="1"/>
        <pt x="777" y="671" on="0"/>
        <pt x="810" y="638" on="0"/>
        <pt x="810" y="590" on="0"/>
        <pt x="777" y="559" on="0"/>
        <pt x="754" y="559" on="1"/>
      </contour>
    </TTGlyph>
    <TTGlyph name="Delta" xMin="130" yMin="0" xMax="1042" yMax="1378">
      <contour>
        <pt x="220" y="0" on="1"/>
        <pt x="180" y="0" on="0"/>
        <pt x="162" y="25" on="1"/>
        <pt x="130" y="68" on="0"/>
        <pt x="130" y="128" on="0"/>
        <pt x="135" y="148" on="1"/>
        <pt x="451" y="1278" on="1"/>
        <pt x="462" y="1319" on="0"/>
        <pt x="531" y="1378" on="0"/>
        <pt x="625" y="1378" on="0"/>
        <pt x="689" y="1322" on="0"/>
        <pt x="701" y="1281" on="1"/>
        <pt x="1037" y="151" on="1"/>
        <pt x="1042" y="136" on="0"/>
        <pt x="1042" y="93" on="0"/>
        <pt x="1029" y="52" on="0"/>
        <pt x="1018" y="36" on="1"/>
        <pt x="992" y="0" on="0"/>
        <pt x="952" y="0" on="1"/>
      </contour>
      <contour>
        <pt x="367" y="181" on="1"/>
        <pt x="784" y="181" on="1"/>
        <pt x="664" y="646" on="1"/>
        <pt x="650" y="698" on="0"/>
        <pt x="635" y="762" on="1"/>
        <pt x="604" y="898" on="1"/>
        <pt x="589" y="971" on="0"/>
        <pt x="577" y="1048" on="1"/>
        <pt x="565" y="971" on="0"/>
        <pt x="548" y="898" on="1"/>
        <pt x="516" y="760" on="1"/>
        <pt x="500" y="696" on="0"/>
        <pt x="486" y="644" on="1"/>
      </contour>
    </TTGlyph>
    <TTGlyph name="E" xMin="152" yMin="0" xMax="884" yMax="1379">
      <contour>
        <pt x="520" y="1379" on="1"/>
        <pt x="606" y="1379" on="0"/>
        <pt x="742" y="1339" on="0"/>
        <pt x="788" y="1300" on="1"/>
        <pt x="884" y="1221" on="0"/>
        <pt x="884" y="1084" on="1"/>
        <pt x="884" y="873" on="0"/>
        <pt x="776" y="799" on="1"/>
        <pt x="743" y="776" on="0"/>
        <pt x="676" y="776" on="0"/>
        <pt x="633" y="794" on="0"/>
        <pt x="617" y="810" on="1"/>
        <pt x="583" y="842" on="0"/>
        <pt x="583" y="924" on="0"/>
        <pt x="609" y="967" on="0"/>
        <pt x="625" y="986" on="1"/>
        <pt x="667" y="1038" on="0"/>
        <pt x="667" y="1136" on="0"/>
        <pt x="592" y="1198" on="0"/>
        <pt x="466" y="1198" on="0"/>
        <pt x="388" y="1143" on="0"/>
        <pt x="388" y="1092" on="1"/>
        <pt x="388" y="785" on="1"/>
        <pt x="388" y="736" on="0"/>
        <pt x="413" y="710" on="1"/>
        <pt x="455" y="666" on="0"/>
        <pt x="505" y="666" on="1"/>
        <pt x="523" y="666" on="1"/>
        <pt x="561" y="666" on="0"/>
        <pt x="612" y="613" on="0"/>
        <pt x="612" y="538" on="0"/>
        <pt x="561" y="486" on="0"/>
        <pt x="498" y="486" on="0"/>
        <pt x="455" y="468" on="0"/>
        <pt x="439" y="452" on="1"/>
        <pt x="405" y="418" on="0"/>
        <pt x="405" y="368" on="1"/>
        <pt x="405" y="298" on="1"/>
        <pt x="405" y="248" on="0"/>
        <pt x="430" y="223" on="1"/>
        <pt x="473" y="180" on="0"/>
        <pt x="523" y="180" on="1"/>
        <pt x="568" y="180" on="0"/>
        <pt x="591" y="204" on="1"/>
        <pt x="633" y="248" on="0"/>
        <pt x="633" y="320" on="0"/>
        <pt x="651" y="363" on="0"/>
        <pt x="667" y="379" on="1"/>
        <pt x="702" y="414" on="0"/>
        <pt x="751" y="414" on="1"/>
        <pt x="799" y="414" on="0"/>
        <pt x="824" y="388" on="1"/>
        <pt x="868" y="345" on="0"/>
        <pt x="868" y="228" on="0"/>
        <pt x="821" y="119" on="0"/>
        <pt x="777" y="80" on="1"/>
        <pt x="685" y="0" on="0"/>
        <pt x="523" y="0" on="1"/>
        <pt x="356" y="0" on="0"/>
        <pt x="260" y="80" on="1"/>
        <pt x="168" y="159" on="0"/>
        <pt x="168" y="294" on="1"/>
        <pt x="168" y="324" on="1"/>
        <pt x="168" y="460" on="0"/>
        <pt x="252" y="532" on="1"/>
        <pt x="277" y="554" on="0"/>
        <pt x="309" y="572" on="1"/>
        <pt x="223" y="606" on="0"/>
        <pt x="152" y="717" on="0"/>
        <pt x="152" y="796" on="1"/>
        <pt x="152" y="1083" on="1"/>
        <pt x="152" y="1220" on="0"/>
        <pt x="346" y="1379" on="0"/>
      </contour>
    </TTGlyph>
    <TTGlyph name="Eacute" xMin="152" yMin="0" xMax="884" yMax="1886">
      <contour>
        <pt x="520" y="1379" on="1"/>
        <pt x="606" y="1379" on="0"/>
        <pt x="742" y="1339" on="0"/>
        <pt x="788" y="1300" on="1"/>
        <pt x="884" y="1221" on="0"/>
        <pt x="884" y="1084" on="1"/>
        <pt x="884" y="873" on="0"/>
        <pt x="776" y="799" on="1"/>
        <pt x="743" y="776" on="0"/>
        <pt x="676" y="776" on="0"/>
        <pt x="633" y="794" on="0"/>
        <pt x="617" y="810" on="1"/>
        <pt x="583" y="842" on="0"/>
        <pt x="583" y="924" on="0"/>
        <pt x="609" y="967" on="0"/>
        <pt x="625" y="986" on="1"/>
        <pt x="667" y="1038" on="0"/>
        <pt x="667" y="1136" on="0"/>
        <pt x="592" y="1198" on="0"/>
        <pt x="466" y="1198" on="0"/>
        <pt x="388" y="1143" on="0"/>
        <pt x="388" y="1092" on="1"/>
        <pt x="388" y="785" on="1"/>
        <pt x="388" y="736" on="0"/>
        <pt x="413" y="710" on="1"/>
        <pt x="455" y="666" on="0"/>
        <pt x="505" y="666" on="1"/>
        <pt x="523" y="666" on="1"/>
        <pt x="561" y="666" on="0"/>
        <pt x="612" y="613" on="0"/>
        <pt x="612" y="538" on="0"/>
        <pt x="561" y="486" on="0"/>
        <pt x="498" y="486" on="0"/>
        <pt x="455" y="468" on="0"/>
        <pt x="439" y="452" on="1"/>
        <pt x="405" y="418" on="0"/>
        <pt x="405" y="368" on="1"/>
        <pt x="405" y="298" on="1"/>
        <pt x="405" y="248" on="0"/>
        <pt x="430" y="223" on="1"/>
        <pt x="473" y="180" on="0"/>
        <pt x="523" y="180" on="1"/>
        <pt x="568" y="180" on="0"/>
        <pt x="591" y="204" on="1"/>
        <pt x="633" y="248" on="0"/>
        <pt x="633" y="320" on="0"/>
        <pt x="651" y="363" on="0"/>
        <pt x="667" y="379" on="1"/>
        <pt x="702" y="414" on="0"/>
        <pt x="751" y="414" on="1"/>
        <pt x="799" y="414" on="0"/>
        <pt x="824" y="388" on="1"/>
        <pt x="868" y="345" on="0"/>
        <pt x="868" y="228" on="0"/>
        <pt x="821" y="119" on="0"/>
        <pt x="777" y="80" on="1"/>
        <pt x="685" y="0" on="0"/>
        <pt x="523" y="0" on="1"/>
        <pt x="356" y="0" on="0"/>
        <pt x="260" y="80" on="1"/>
        <pt x="168" y="159" on="0"/>
        <pt x="168" y="294" on="1"/>
        <pt x="168" y="324" on="1"/>
        <pt x="168" y="460" on="0"/>
        <pt x="252" y="532" on="1"/>
        <pt x="277" y="554" on="0"/>
        <pt x="309" y="572" on="1"/>
        <pt x="223" y="606" on="0"/>
        <pt x="152" y="717" on="0"/>
        <pt x="152" y="796" on="1"/>
        <pt x="152" y="1083" on="1"/>
        <pt x="152" y="1220" on="0"/>
        <pt x="346" y="1379" on="0"/>
      </contour>
      <contour>
        <pt x="560" y="1820" on="1"/>
        <pt x="608" y="1886" on="0"/>
        <pt x="671" y="1886" on="1"/>
        <pt x="713" y="1886" on="0"/>
        <pt x="738" y="1860" on="1"/>
        <pt x="780" y="1819" on="0"/>
        <pt x="780" y="1781" on="1"/>
        <pt x="780" y="1705" on="0"/>
        <pt x="717" y="1662" on="1"/>
        <pt x="497" y="1508" on="1"/>
        <pt x="473" y="1492" on="0"/>
        <pt x="454" y="1492" on="1"/>
        <pt x="420" y="1492" on="0"/>
        <pt x="386" y="1528" on="0"/>
        <pt x="386" y="1579" on="0"/>
        <pt x="403" y="1602" on="1"/>
      </contour>
    </TTGlyph>
    <TTGlyph name="Ebreve" xMin="152" yMin="0" xMax="884" yMax="1879">
      <contour>
        <pt x="520" y="1379" on="1"/>
        <pt x="606" y="1379" on="0"/>
        <pt x="742" y="1339" on="0"/>
        <pt x="788" y="1300" on="1"/>
        <pt x="884" y="1221" on="0"/>
        <pt x="884" y="1084" on="1"/>
        <pt x="884" y="873" on="0"/>
        <pt x="776" y="799" on="1"/>
        <pt x="743" y="776" on="0"/>
        <pt x="676" y="776" on="0"/>
        <pt x="633" y="794" on="0"/>
        <pt x="617" y="810" on="1"/>
        <pt x="583" y="842" on="0"/>
        <pt x="583" y="924" on="0"/>
        <pt x="609" y="967" on="0"/>
        <pt x="625" y="986" on="1"/>
        <pt x="667" y="1038" on="0"/>
        <pt x="667" y="1136" on="0"/>
        <pt x="592" y="1198" on="0"/>
        <pt x="466" y="1198" on="0"/>
        <pt x="388" y="1143" on="0"/>
        <pt x="388" y="1092" on="1"/>
        <pt x="388" y="785" on="1"/>
        <pt x="388" y="736" on="0"/>
        <pt x="413" y="710" on="1"/>
        <pt x="455" y="666" on="0"/>
        <pt x="505" y="666" on="1"/>
        <pt x="523" y="666" on="1"/>
        <pt x="561" y="666" on="0"/>
        <pt x="612" y="613" on="0"/>
        <pt x="612" y="538" on="0"/>
        <pt x="561" y="486" on="0"/>
        <pt x="498" y="486" on="0"/>
        <pt x="455" y="468" on="0"/>
        <pt x="439" y="452" on="1"/>
        <pt x="405" y="418" on="0"/>
        <pt x="405" y="368" on="1"/>
        <pt x="405" y="298" on="1"/>
        <pt x="405" y="248" on="0"/>
        <pt x="430" y="223" on="1"/>
        <pt x="473" y="180" on="0"/>
        <pt x="523" y="180" on="1"/>
        <pt x="568" y="180" on="0"/>
        <pt x="591" y="204" on="1"/>
        <pt x="633" y="248" on="0"/>
        <pt x="633" y="320" on="0"/>
        <pt x="651" y="363" on="0"/>
        <pt x="667" y="379" on="1"/>
        <pt x="702" y="414" on="0"/>
        <pt x="751" y="414" on="1"/>
        <pt x="799" y="414" on="0"/>
        <pt x="824" y="388" on="1"/>
        <pt x="868" y="345" on="0"/>
        <pt x="868" y="228" on="0"/>
        <pt x="821" y="119" on="0"/>
        <pt x="777" y="80" on="1"/>
        <pt x="685" y="0" on="0"/>
        <pt x="523" y="0" on="1"/>
        <pt x="356" y="0" on="0"/>
        <pt x="260" y="80" on="1"/>
        <pt x="168" y="159" on="0"/>
        <pt x="168" y="294" on="1"/>
        <pt x="168" y="324" on="1"/>
        <pt x="168" y="460" on="0"/>
        <pt x="252" y="532" on="1"/>
        <pt x="277" y="554" on="0"/>
        <pt x="309" y="572" on="1"/>
        <pt x="223" y="606" on="0"/>
        <pt x="152" y="717" on="0"/>
        <pt x="152" y="796" on="1"/>
        <pt x="152" y="1083" on="1"/>
        <pt x="152" y="1220" on="0"/>
        <pt x="346" y="1379" on="0"/>
      </contour>
      <contour>
        <pt x="524" y="1686" on="1"/>
        <pt x="626" y="1686" on="0"/>
        <pt x="662" y="1768" on="1"/>
        <pt x="672" y="1790" on="0"/>
        <pt x="672" y="1843" on="0"/>
        <pt x="712" y="1879" on="0"/>
        <pt x="762" y="1879" on="0"/>
        <pt x="805" y="1846" on="0"/>
        <pt x="805" y="1742" on="0"/>
        <pt x="770" y="1643" on="0"/>
        <pt x="716" y="1575" on="0"/>
        <pt x="649" y="1535" on="0"/>
        <pt x="618" y="1524" on="1"/>
        <pt x="567" y="1506" on="0"/>
        <pt x="524" y="1506" on="1"/>
        <pt x="448" y="1506" on="0"/>
        <pt x="365" y="1555" on="1"/>
        <pt x="294" y="1598" on="0"/>
        <pt x="261" y="1692" on="1"/>
        <pt x="243" y="1742" on="0"/>
        <pt x="243" y="1846" on="0"/>
        <pt x="286" y="1879" on="0"/>
        <pt x="336" y="1879" on="0"/>
        <pt x="376" y="1843" on="0"/>
        <pt x="376" y="1790" on="0"/>
        <pt x="396" y="1745" on="0"/>
        <pt x="415" y="1727" on="1"/>
        <pt x="457" y="1686" on="0"/>
      </contour>
    </TTGlyph>
    <TTGlyph name="Ecaron" xMin="152" yMin="0" xMax="884" yMax="1888">
      <contour>
        <pt x="520" y="1379" on="1"/>
        <pt x="606" y="1379" on="0"/>
        <pt x="742" y="1339" on="0"/>
        <pt x="788" y="1300" on="1"/>
        <pt x="884" y="1221" on="0"/>
        <pt x="884" y="1084" on="1"/>
        <pt x="884" y="873" on="0"/>
        <pt x="776" y="799" on="1"/>
        <pt x="743" y="776" on="0"/>
        <pt x="676" y="776" on="0"/>
        <pt x="633" y="794" on="0"/>
        <pt x="617" y="810" on="1"/>
        <pt x="583" y="842" on="0"/>
        <pt x="583" y="924" on="0"/>
        <pt x="609" y="967" on="0"/>
        <pt x="625" y="986" on="1"/>
        <pt x="667" y="1038" on="0"/>
        <pt x="667" y="1136" on="0"/>
        <pt x="592" y="1198" on="0"/>
        <pt x="466" y="1198" on="0"/>
        <pt x="388" y="1143" on="0"/>
        <pt x="388" y="1092" on="1"/>
        <pt x="388" y="785" on="1"/>
        <pt x="388" y="736" on="0"/>
        <pt x="413" y="710" on="1"/>
        <pt x="455" y="666" on="0"/>
        <pt x="505" y="666" on="1"/>
        <pt x="523" y="666" on="1"/>
        <pt x="561" y="666" on="0"/>
        <pt x="612" y="613" on="0"/>
        <pt x="612" y="538" on="0"/>
        <pt x="561" y="486" on="0"/>
        <pt x="498" y="486" on="0"/>
        <pt x="455" y="468" on="0"/>
        <pt x="439" y="452" on="1"/>
        <pt x="405" y="418" on="0"/>
        <pt x="405" y="368" on="1"/>
        <pt x="405" y="298" on="1"/>
        <pt x="405" y="248" on="0"/>
        <pt x="430" y="223" on="1"/>
        <pt x="473" y="180" on="0"/>
        <pt x="523" y="180" on="1"/>
        <pt x="568" y="180" on="0"/>
        <pt x="591" y="204" on="1"/>
        <pt x="633" y="248" on="0"/>
        <pt x="633" y="320" on="0"/>
        <pt x="651" y="363" on="0"/>
        <pt x="667" y="379" on="1"/>
        <pt x="702" y="414" on="0"/>
        <pt x="751" y="414" on="1"/>
        <pt x="799" y="414" on="0"/>
        <pt x="824" y="388" on="1"/>
        <pt x="868" y="345" on="0"/>
        <pt x="868" y="228" on="0"/>
        <pt x="821" y="119" on="0"/>
        <pt x="777" y="80" on="1"/>
        <pt x="685" y="0" on="0"/>
        <pt x="523" y="0" on="1"/>
        <pt x="356" y="0" on="0"/>
        <pt x="260" y="80" on="1"/>
        <pt x="168" y="159" on="0"/>
        <pt x="168" y="294" on="1"/>
        <pt x="168" y="324" on="1"/>
        <pt x="168" y="460" on="0"/>
        <pt x="252" y="532" on="1"/>
        <pt x="277" y="554" on="0"/>
        <pt x="309" y="572" on="1"/>
        <pt x="223" y="606" on="0"/>
        <pt x="152" y="717" on="0"/>
        <pt x="152" y="796" on="1"/>
        <pt x="152" y="1083" on="1"/>
        <pt x="152" y="1220" on="0"/>
        <pt x="346" y="1379" on="0"/>
      </contour>
      <contour>
        <pt x="292" y="1782" on="1"/>
        <pt x="279" y="1806" on="0"/>
        <pt x="279" y="1850" on="0"/>
        <pt x="313" y="1888" on="0"/>
        <pt x="333" y="1888" on="1"/>
        <pt x="373" y="1888" on="0"/>
        <pt x="393" y="1868" on="1"/>
        <pt x="524" y="1734" on="1"/>
        <pt x="655" y="1868" on="1"/>
        <pt x="675" y="1888" on="0"/>
        <pt x="735" y="1888" on="0"/>
        <pt x="769" y="1850" on="0"/>
        <pt x="769" y="1806" on="0"/>
        <pt x="756" y="1782" on="1"/>
        <pt x="636" y="1569" on="1"/>
        <pt x="594" y="1493" on="0"/>
        <pt x="523" y="1493" on="1"/>
        <pt x="458" y="1493" on="0"/>
        <pt x="412" y="1569" on="1"/>
      </contour>
    </TTGlyph>
    <TTGlyph name="Ecircumflex" xMin="152" yMin="0" xMax="884" yMax="1888">
      <contour>
        <pt x="520" y="1379" on="1"/>
        <pt x="606" y="1379" on="0"/>
        <pt x="742" y="1339" on="0"/>
        <pt x="788" y="1300" on="1"/>
        <pt x="884" y="1221" on="0"/>
        <pt x="884" y="1084" on="1"/>
        <pt x="884" y="873" on="0"/>
        <pt x="776" y="799" on="1"/>
        <pt x="743" y="776" on="0"/>
        <pt x="676" y="776" on="0"/>
        <pt x="633" y="794" on="0"/>
        <pt x="617" y="810" on="1"/>
        <pt x="583" y="842" on="0"/>
        <pt x="583" y="924" on="0"/>
        <pt x="609" y="967" on="0"/>
        <pt x="625" y="986" on="1"/>
        <pt x="667" y="1038" on="0"/>
        <pt x="667" y="1136" on="0"/>
        <pt x="592" y="1198" on="0"/>
        <pt x="466" y="1198" on="0"/>
        <pt x="388" y="1143" on="0"/>
        <pt x="388" y="1092" on="1"/>
        <pt x="388" y="785" on="1"/>
        <pt x="388" y="736" on="0"/>
        <pt x="413" y="710" on="1"/>
        <pt x="455" y="666" on="0"/>
        <pt x="505" y="666" on="1"/>
        <pt x="523" y="666" on="1"/>
        <pt x="561" y="666" on="0"/>
        <pt x="612" y="613" on="0"/>
        <pt x="612" y="538" on="0"/>
        <pt x="561" y="486" on="0"/>
        <pt x="498" y="486" on="0"/>
        <pt x="455" y="468" on="0"/>
        <pt x="439" y="452" on="1"/>
        <pt x="405" y="418" on="0"/>
        <pt x="405" y="368" on="1"/>
        <pt x="405" y="298" on="1"/>
        <pt x="405" y="248" on="0"/>
        <pt x="430" y="223" on="1"/>
        <pt x="473" y="180" on="0"/>
        <pt x="523" y="180" on="1"/>
        <pt x="568" y="180" on="0"/>
        <pt x="591" y="204" on="1"/>
        <pt x="633" y="248" on="0"/>
        <pt x="633" y="320" on="0"/>
        <pt x="651" y="363" on="0"/>
        <pt x="667" y="379" on="1"/>
        <pt x="702" y="414" on="0"/>
        <pt x="751" y="414" on="1"/>
        <pt x="799" y="414" on="0"/>
        <pt x="824" y="388" on="1"/>
        <pt x="868" y="345" on="0"/>
        <pt x="868" y="228" on="0"/>
        <pt x="821" y="119" on="0"/>
        <pt x="777" y="80" on="1"/>
        <pt x="685" y="0" on="0"/>
        <pt x="523" y="0" on="1"/>
        <pt x="356" y="0" on="0"/>
        <pt x="260" y="80" on="1"/>
        <pt x="168" y="159" on="0"/>
        <pt x="168" y="294" on="1"/>
        <pt x="168" y="324" on="1"/>
        <pt x="168" y="460" on="0"/>
        <pt x="252" y="532" on="1"/>
        <pt x="277" y="554" on="0"/>
        <pt x="309" y="572" on="1"/>
        <pt x="223" y="606" on="0"/>
        <pt x="152" y="717" on="0"/>
        <pt x="152" y="796" on="1"/>
        <pt x="152" y="1083" on="1"/>
        <pt x="152" y="1220" on="0"/>
        <pt x="346" y="1379" on="0"/>
      </contour>
      <contour>
        <pt x="755" y="1599" on="1"/>
        <pt x="768" y="1575" on="0"/>
        <pt x="768" y="1531" on="0"/>
        <pt x="734" y="1493" on="0"/>
        <pt x="714" y="1493" on="1"/>
        <pt x="674" y="1493" on="0"/>
        <pt x="654" y="1513" on="1"/>
        <pt x="523" y="1647" on="1"/>
        <pt x="392" y="1513" on="1"/>
        <pt x="372" y="1493" on="0"/>
        <pt x="312" y="1493" on="0"/>
        <pt x="278" y="1531" on="0"/>
        <pt x="278" y="1575" on="0"/>
        <pt x="291" y="1599" on="1"/>
        <pt x="411" y="1812" on="1"/>
        <pt x="453" y="1888" on="0"/>
        <pt x="524" y="1888" on="1"/>
        <pt x="589" y="1888" on="0"/>
        <pt x="635" y="1812" on="1"/>
      </contour>
    </TTGlyph>
    <TTGlyph name="Edieresis" xMin="152" yMin="0" xMax="884" yMax="1778">
      <contour>
        <pt x="520" y="1379" on="1"/>
        <pt x="606" y="1379" on="0"/>
        <pt x="742" y="1339" on="0"/>
        <pt x="788" y="1300" on="1"/>
        <pt x="884" y="1221" on="0"/>
        <pt x="884" y="1084" on="1"/>
        <pt x="884" y="873" on="0"/>
        <pt x="776" y="799" on="1"/>
        <pt x="743" y="776" on="0"/>
        <pt x="676" y="776" on="0"/>
        <pt x="633" y="794" on="0"/>
        <pt x="617" y="810" on="1"/>
        <pt x="583" y="842" on="0"/>
        <pt x="583" y="924" on="0"/>
        <pt x="609" y="967" on="0"/>
        <pt x="625" y="986" on="1"/>
        <pt x="667" y="1038" on="0"/>
        <pt x="667" y="1136" on="0"/>
        <pt x="592" y="1198" on="0"/>
        <pt x="466" y="1198" on="0"/>
        <pt x="388" y="1143" on="0"/>
        <pt x="388" y="1092" on="1"/>
        <pt x="388" y="785" on="1"/>
        <pt x="388" y="736" on="0"/>
        <pt x="413" y="710" on="1"/>
        <pt x="455" y="666" on="0"/>
        <pt x="505" y="666" on="1"/>
        <pt x="523" y="666" on="1"/>
        <pt x="561" y="666" on="0"/>
        <pt x="612" y="613" on="0"/>
        <pt x="612" y="538" on="0"/>
        <pt x="561" y="486" on="0"/>
        <pt x="498" y="486" on="0"/>
        <pt x="455" y="468" on="0"/>
        <pt x="439" y="452" on="1"/>
        <pt x="405" y="418" on="0"/>
        <pt x="405" y="368" on="1"/>
        <pt x="405" y="298" on="1"/>
        <pt x="405" y="248" on="0"/>
        <pt x="430" y="223" on="1"/>
        <pt x="473" y="180" on="0"/>
        <pt x="523" y="180" on="1"/>
        <pt x="568" y="180" on="0"/>
        <pt x="591" y="204" on="1"/>
        <pt x="633" y="248" on="0"/>
        <pt x="633" y="320" on="0"/>
        <pt x="651" y="363" on="0"/>
        <pt x="667" y="379" on="1"/>
        <pt x="702" y="414" on="0"/>
        <pt x="751" y="414" on="1"/>
        <pt x="799" y="414" on="0"/>
        <pt x="824" y="388" on="1"/>
        <pt x="868" y="345" on="0"/>
        <pt x="868" y="228" on="0"/>
        <pt x="821" y="119" on="0"/>
        <pt x="777" y="80" on="1"/>
        <pt x="685" y="0" on="0"/>
        <pt x="523" y="0" on="1"/>
        <pt x="356" y="0" on="0"/>
        <pt x="260" y="80" on="1"/>
        <pt x="168" y="159" on="0"/>
        <pt x="168" y="294" on="1"/>
        <pt x="168" y="324" on="1"/>
        <pt x="168" y="460" on="0"/>
        <pt x="252" y="532" on="1"/>
        <pt x="277" y="554" on="0"/>
        <pt x="309" y="572" on="1"/>
        <pt x="223" y="606" on="0"/>
        <pt x="152" y="717" on="0"/>
        <pt x="152" y="796" on="1"/>
        <pt x="152" y="1083" on="1"/>
        <pt x="152" y="1220" on="0"/>
        <pt x="346" y="1379" on="0"/>
      </contour>
      <contour>
        <pt x="311" y="1778" on="1"/>
        <pt x="366" y="1778" on="0"/>
        <pt x="405" y="1738" on="1"/>
        <pt x="446" y="1698" on="0"/>
        <pt x="446" y="1616" on="0"/>
        <pt x="424" y="1568" on="0"/>
        <pt x="405" y="1550" on="1"/>
        <pt x="366" y="1510" on="0"/>
        <pt x="311" y="1510" on="1"/>
        <pt x="256" y="1510" on="0"/>
        <pt x="217" y="1550" on="1"/>
        <pt x="176" y="1590" on="0"/>
        <pt x="176" y="1630" on="1"/>
        <pt x="176" y="1698" on="0"/>
        <pt x="256" y="1778" on="0"/>
      </contour>
      <contour>
        <pt x="613" y="1568" on="0"/>
        <pt x="592" y="1616" on="0"/>
        <pt x="592" y="1671" on="0"/>
        <pt x="613" y="1720" on="0"/>
        <pt x="631" y="1738" on="1"/>
        <pt x="671" y="1778" on="0"/>
        <pt x="754" y="1778" on="0"/>
        <pt x="803" y="1757" on="0"/>
        <pt x="821" y="1738" on="1"/>
        <pt x="861" y="1699" on="0"/>
        <pt x="861" y="1616" on="0"/>
        <pt x="840" y="1568" on="0"/>
        <pt x="821" y="1550" on="1"/>
        <pt x="782" y="1510" on="0"/>
        <pt x="699" y="1510" on="0"/>
        <pt x="650" y="1531" on="0"/>
      </contour>
    </TTGlyph>
    <TTGlyph name="Edotaccent" xMin="152" yMin="0" xMax="884" yMax="1778">
      <contour>
        <pt x="520" y="1379" on="1"/>
        <pt x="606" y="1379" on="0"/>
        <pt x="742" y="1339" on="0"/>
        <pt x="788" y="1300" on="1"/>
        <pt x="884" y="1221" on="0"/>
        <pt x="884" y="1084" on="1"/>
        <pt x="884" y="873" on="0"/>
        <pt x="776" y="799" on="1"/>
        <pt x="743" y="776" on="0"/>
        <pt x="676" y="776" on="0"/>
        <pt x="633" y="794" on="0"/>
        <pt x="617" y="810" on="1"/>
        <pt x="583" y="842" on="0"/>
        <pt x="583" y="924" on="0"/>
        <pt x="609" y="967" on="0"/>
        <pt x="625" y="986" on="1"/>
        <pt x="667" y="1038" on="0"/>
        <pt x="667" y="1136" on="0"/>
        <pt x="592" y="1198" on="0"/>
        <pt x="466" y="1198" on="0"/>
        <pt x="388" y="1143" on="0"/>
        <pt x="388" y="1092" on="1"/>
        <pt x="388" y="785" on="1"/>
        <pt x="388" y="736" on="0"/>
        <pt x="413" y="710" on="1"/>
        <pt x="455" y="666" on="0"/>
        <pt x="505" y="666" on="1"/>
        <pt x="523" y="666" on="1"/>
        <pt x="561" y="666" on="0"/>
        <pt x="612" y="613" on="0"/>
        <pt x="612" y="538" on="0"/>
        <pt x="561" y="486" on="0"/>
        <pt x="498" y="486" on="0"/>
        <pt x="455" y="468" on="0"/>
        <pt x="439" y="452" on="1"/>
        <pt x="405" y="418" on="0"/>
        <pt x="405" y="368" on="1"/>
        <pt x="405" y="298" on="1"/>
        <pt x="405" y="248" on="0"/>
        <pt x="430" y="223" on="1"/>
        <pt x="473" y="180" on="0"/>
        <pt x="523" y="180" on="1"/>
        <pt x="568" y="180" on="0"/>
        <pt x="591" y="204" on="1"/>
        <pt x="633" y="248" on="0"/>
        <pt x="633" y="320" on="0"/>
        <pt x="651" y="363" on="0"/>
        <pt x="667" y="379" on="1"/>
        <pt x="702" y="414" on="0"/>
        <pt x="751" y="414" on="1"/>
        <pt x="799" y="414" on="0"/>
        <pt x="824" y="388" on="1"/>
        <pt x="868" y="345" on="0"/>
        <pt x="868" y="228" on="0"/>
        <pt x="821" y="119" on="0"/>
        <pt x="777" y="80" on="1"/>
        <pt x="685" y="0" on="0"/>
        <pt x="523" y="0" on="1"/>
        <pt x="356" y="0" on="0"/>
        <pt x="260" y="80" on="1"/>
        <pt x="168" y="159" on="0"/>
        <pt x="168" y="294" on="1"/>
        <pt x="168" y="324" on="1"/>
        <pt x="168" y="460" on="0"/>
        <pt x="252" y="532" on="1"/>
        <pt x="277" y="554" on="0"/>
        <pt x="309" y="572" on="1"/>
        <pt x="223" y="606" on="0"/>
        <pt x="152" y="717" on="0"/>
        <pt x="152" y="796" on="1"/>
        <pt x="152" y="1083" on="1"/>
        <pt x="152" y="1220" on="0"/>
        <pt x="346" y="1379" on="0"/>
      </contour>
      <contour>
        <pt x="524" y="1778" on="1"/>
        <pt x="579" y="1778" on="0"/>
        <pt x="619" y="1738" on="1"/>
        <pt x="659" y="1698" on="0"/>
        <pt x="659" y="1616" on="0"/>
        <pt x="637" y="1568" on="0"/>
        <pt x="619" y="1550" on="1"/>
        <pt x="579" y="1510" on="0"/>
        <pt x="524" y="1510" on="1"/>
        <pt x="469" y="1510" on="0"/>
        <pt x="429" y="1550" on="1"/>
        <pt x="389" y="1590" on="0"/>
        <pt x="389" y="1630" on="1"/>
        <pt x="389" y="1698" on="0"/>
        <pt x="469" y="1778" on="0"/>
      </contour>
    </TTGlyph>
    <TTGlyph name="Egrave" xMin="152" yMin="0" xMax="884" yMax="1886">
      <contour>
        <pt x="520" y="1379" on="1"/>
        <pt x="606" y="1379" on="0"/>
        <pt x="742" y="1339" on="0"/>
        <pt x="788" y="1300" on="1"/>
        <pt x="884" y="1221" on="0"/>
        <pt x="884" y="1084" on="1"/>
        <pt x="884" y="873" on="0"/>
        <pt x="776" y="799" on="1"/>
        <pt x="743" y="776" on="0"/>
        <pt x="676" y="776" on="0"/>
        <pt x="633" y="794" on="0"/>
        <pt x="617" y="810" on="1"/>
        <pt x="583" y="842" on="0"/>
        <pt x="583" y="924" on="0"/>
        <pt x="609" y="967" on="0"/>
        <pt x="625" y="986" on="1"/>
        <pt x="667" y="1038" on="0"/>
        <pt x="667" y="1136" on="0"/>
        <pt x="592" y="1198" on="0"/>
        <pt x="466" y="1198" on="0"/>
        <pt x="388" y="1143" on="0"/>
        <pt x="388" y="1092" on="1"/>
        <pt x="388" y="785" on="1"/>
        <pt x="388" y="736" on="0"/>
        <pt x="413" y="710" on="1"/>
        <pt x="455" y="666" on="0"/>
        <pt x="505" y="666" on="1"/>
        <pt x="523" y="666" on="1"/>
        <pt x="561" y="666" on="0"/>
        <pt x="612" y="613" on="0"/>
        <pt x="612" y="538" on="0"/>
        <pt x="561" y="486" on="0"/>
        <pt x="498" y="486" on="0"/>
        <pt x="455" y="468" on="0"/>
        <pt x="439" y="452" on="1"/>
        <pt x="405" y="418" on="0"/>
        <pt x="405" y="368" on="1"/>
        <pt x="405" y="298" on="1"/>
        <pt x="405" y="248" on="0"/>
        <pt x="430" y="223" on="1"/>
        <pt x="473" y="180" on="0"/>
        <pt x="523" y="180" on="1"/>
        <pt x="568" y="180" on="0"/>
        <pt x="591" y="204" on="1"/>
        <pt x="633" y="248" on="0"/>
        <pt x="633" y="320" on="0"/>
        <pt x="651" y="363" on="0"/>
        <pt x="667" y="379" on="1"/>
        <pt x="702" y="414" on="0"/>
        <pt x="751" y="414" on="1"/>
        <pt x="799" y="414" on="0"/>
        <pt x="824" y="388" on="1"/>
        <pt x="868" y="345" on="0"/>
        <pt x="868" y="228" on="0"/>
        <pt x="821" y="119" on="0"/>
        <pt x="777" y="80" on="1"/>
        <pt x="685" y="0" on="0"/>
        <pt x="523" y="0" on="1"/>
        <pt x="356" y="0" on="0"/>
        <pt x="260" y="80" on="1"/>
        <pt x="168" y="159" on="0"/>
        <pt x="168" y="294" on="1"/>
        <pt x="168" y="324" on="1"/>
        <pt x="168" y="460" on="0"/>
        <pt x="252" y="532" on="1"/>
        <pt x="277" y="554" on="0"/>
        <pt x="309" y="572" on="1"/>
        <pt x="223" y="606" on="0"/>
        <pt x="152" y="717" on="0"/>
        <pt x="152" y="796" on="1"/>
        <pt x="152" y="1083" on="1"/>
        <pt x="152" y="1220" on="0"/>
        <pt x="346" y="1379" on="0"/>
      </contour>
      <contour>
        <pt x="644" y="1602" on="1"/>
        <pt x="661" y="1579" on="0"/>
        <pt x="661" y="1528" on="0"/>
        <pt x="648" y="1514" on="1"/>
        <pt x="626" y="1492" on="0"/>
        <pt x="574" y="1492" on="0"/>
        <pt x="550" y="1508" on="1"/>
        <pt x="330" y="1662" on="1"/>
        <pt x="267" y="1705" on="0"/>
        <pt x="267" y="1775" on="1"/>
        <pt x="267" y="1819" on="0"/>
        <pt x="292" y="1844" on="1"/>
        <pt x="334" y="1886" on="0"/>
        <pt x="371" y="1886" on="1"/>
        <pt x="439" y="1886" on="0"/>
        <pt x="487" y="1820" on="1"/>
      </contour>
    </TTGlyph>
    <TTGlyph name="Emacron" xMin="152" yMin="0" xMax="884" yMax="1736">
      <contour>
        <pt x="520" y="1379" on="1"/>
        <pt x="606" y="1379" on="0"/>
        <pt x="742" y="1339" on="0"/>
        <pt x="788" y="1300" on="1"/>
        <pt x="884" y="1221" on="0"/>
        <pt x="884" y="1084" on="1"/>
        <pt x="884" y="873" on="0"/>
        <pt x="776" y="799" on="1"/>
        <pt x="743" y="776" on="0"/>
        <pt x="676" y="776" on="0"/>
        <pt x="633" y="794" on="0"/>
        <pt x="617" y="810" on="1"/>
        <pt x="583" y="842" on="0"/>
        <pt x="583" y="924" on="0"/>
        <pt x="609" y="967" on="0"/>
        <pt x="625" y="986" on="1"/>
        <pt x="667" y="1038" on="0"/>
        <pt x="667" y="1136" on="0"/>
        <pt x="592" y="1198" on="0"/>
        <pt x="466" y="1198" on="0"/>
        <pt x="388" y="1143" on="0"/>
        <pt x="388" y="1092" on="1"/>
        <pt x="388" y="785" on="1"/>
        <pt x="388" y="736" on="0"/>
        <pt x="413" y="710" on="1"/>
        <pt x="455" y="666" on="0"/>
        <pt x="505" y="666" on="1"/>
        <pt x="523" y="666" on="1"/>
        <pt x="561" y="666" on="0"/>
        <pt x="612" y="613" on="0"/>
        <pt x="612" y="538" on="0"/>
        <pt x="561" y="486" on="0"/>
        <pt x="498" y="486" on="0"/>
        <pt x="455" y="468" on="0"/>
        <pt x="439" y="452" on="1"/>
        <pt x="405" y="418" on="0"/>
        <pt x="405" y="368" on="1"/>
        <pt x="405" y="298" on="1"/>
        <pt x="405" y="248" on="0"/>
        <pt x="430" y="223" on="1"/>
        <pt x="473" y="180" on="0"/>
        <pt x="523" y="180" on="1"/>
        <pt x="568" y="180" on="0"/>
        <pt x="591" y="204" on="1"/>
        <pt x="633" y="248" on="0"/>
        <pt x="633" y="320" on="0"/>
        <pt x="651" y="363" on="0"/>
        <pt x="667" y="379" on="1"/>
        <pt x="702" y="414" on="0"/>
        <pt x="751" y="414" on="1"/>
        <pt x="799" y="414" on="0"/>
        <pt x="824" y="388" on="1"/>
        <pt x="868" y="345" on="0"/>
        <pt x="868" y="228" on="0"/>
        <pt x="821" y="119" on="0"/>
        <pt x="777" y="80" on="1"/>
        <pt x="685" y="0" on="0"/>
        <pt x="523" y="0" on="1"/>
        <pt x="356" y="0" on="0"/>
        <pt x="260" y="80" on="1"/>
        <pt x="168" y="159" on="0"/>
        <pt x="168" y="294" on="1"/>
        <pt x="168" y="324" on="1"/>
        <pt x="168" y="460" on="0"/>
        <pt x="252" y="532" on="1"/>
        <pt x="277" y="554" on="0"/>
        <pt x="309" y="572" on="1"/>
        <pt x="223" y="606" on="0"/>
        <pt x="152" y="717" on="0"/>
        <pt x="152" y="796" on="1"/>
        <pt x="152" y="1083" on="1"/>
        <pt x="152" y="1220" on="0"/>
        <pt x="346" y="1379" on="0"/>
      </contour>
      <contour>
        <pt x="798" y="1697" on="0"/>
        <pt x="812" y="1664" on="0"/>
        <pt x="812" y="1627" on="0"/>
        <pt x="798" y="1594" on="0"/>
        <pt x="786" y="1582" on="1"/>
        <pt x="761" y="1555" on="0"/>
        <pt x="724" y="1555" on="1"/>
        <pt x="321" y="1555" on="1"/>
        <pt x="286" y="1555" on="0"/>
        <pt x="267" y="1574" on="1"/>
        <pt x="233" y="1608" on="0"/>
        <pt x="233" y="1664" on="0"/>
        <pt x="247" y="1697" on="0"/>
        <pt x="259" y="1710" on="1"/>
        <pt x="284" y="1736" on="0"/>
        <pt x="321" y="1736" on="1"/>
        <pt x="724" y="1736" on="1"/>
        <pt x="759" y="1736" on="0"/>
      </contour>
    </TTGlyph>
    <TTGlyph name="Eng" xMin="-63" yMin="-474" xMax="1045" yMax="1379">
      <contour>
        <pt x="569" y="98" on="1"/>
        <pt x="569" y="22" on="0"/>
        <pt x="498" y="-10" on="1"/>
        <pt x="477" y="-19" on="0"/>
        <pt x="428" y="-19" on="0"/>
        <pt x="384" y="0" on="0"/>
        <pt x="368" y="16" on="1"/>
        <pt x="333" y="49" on="0"/>
        <pt x="333" y="98" on="1"/>
        <pt x="333" y="1179" on="1"/>
        <pt x="288" y="1179" on="1"/>
        <pt x="240" y="1177" on="0"/>
        <pt x="216" y="1152" on="1"/>
        <pt x="174" y="1108" on="0"/>
        <pt x="174" y="1060" on="1"/>
        <pt x="174" y="1003" on="1"/>
        <pt x="174" y="925" on="0"/>
        <pt x="101" y="895" on="1"/>
        <pt x="79" y="886" on="0"/>
        <pt x="30" y="886" on="0"/>
        <pt x="-13" y="904" on="0"/>
        <pt x="-28" y="920" on="1"/>
        <pt x="-63" y="954" on="0"/>
        <pt x="-63" y="1003" on="1"/>
        <pt x="-63" y="1063" on="1"/>
        <pt x="-63" y="1186" on="0"/>
        <pt x="24" y="1272" on="1"/>
        <pt x="113" y="1359" on="0"/>
        <pt x="233" y="1359" on="1"/>
        <pt x="451" y="1359" on="1"/>
        <pt x="510" y="1359" on="0"/>
        <pt x="546" y="1310" on="1"/>
        <pt x="561" y="1286" on="0"/>
        <pt x="588" y="1286" on="0"/>
        <pt x="596" y="1294" on="1"/>
        <pt x="614" y="1311" on="1"/>
        <pt x="687" y="1379" on="0"/>
        <pt x="782" y="1379" on="1"/>
        <pt x="890" y="1379" on="0"/>
        <pt x="968" y="1292" on="1"/>
        <pt x="1044" y="1206" on="0"/>
        <pt x="1044" y="1083" on="1"/>
        <pt x="1045" y="-178" on="1"/>
        <pt x="1045" y="-300" on="0"/>
        <pt x="960" y="-387" on="1"/>
        <pt x="874" y="-474" on="0"/>
        <pt x="751" y="-474" on="1"/>
        <pt x="595" y="-474" on="1"/>
        <pt x="537" y="-474" on="0"/>
        <pt x="512" y="-420" on="1"/>
        <pt x="505" y="-403" on="0"/>
        <pt x="505" y="-384" on="1"/>
        <pt x="505" y="-348" on="0"/>
        <pt x="524" y="-327" on="1"/>
        <pt x="557" y="-293" on="0"/>
        <pt x="595" y="-293" on="1"/>
        <pt x="693" y="-293" on="1"/>
        <pt x="743" y="-293" on="0"/>
        <pt x="767" y="-268" on="1"/>
        <pt x="808" y="-225" on="0"/>
        <pt x="808" y="-176" on="1"/>
        <pt x="808" y="1080" on="1"/>
        <pt x="808" y="1129" on="0"/>
        <pt x="782" y="1154" on="1"/>
        <pt x="738" y="1199" on="0"/>
        <pt x="690" y="1199" on="1"/>
        <pt x="642" y="1199" on="0"/>
        <pt x="616" y="1176" on="1"/>
        <pt x="569" y="1134" on="0"/>
        <pt x="569" y="1087" on="1"/>
      </contour>
    </TTGlyph>
    <TTGlyph name="Eogonek" xMin="152" yMin="-438" xMax="884" yMax="1379">
      <contour>
        <pt x="623" y="9" on="1"/>
        <pt x="511" y="-124" on="1"/>
        <pt x="462" y="-183" on="0"/>
        <pt x="462" y="-219" on="1"/>
        <pt x="462" y="-290" on="0"/>
        <pt x="535" y="-290" on="1"/>
        <pt x="608" y="-290" on="1"/>
        <pt x="637" y="-290" on="0"/>
        <pt x="680" y="-333" on="0"/>
        <pt x="680" y="-394" on="0"/>
        <pt x="638" y="-438" on="0"/>
        <pt x="608" y="-438" on="1"/>
        <pt x="466" y="-438" on="1"/>
        <pt x="353" y="-438" on="0"/>
        <pt x="246" y="-349" on="0"/>
        <pt x="246" y="-275" on="1"/>
        <pt x="246" y="-193" on="0"/>
        <pt x="366" y="-70" on="1"/>
        <pt x="441" y="5" on="1"/>
        <pt x="308" y="24" on="0"/>
        <pt x="168" y="176" on="0"/>
        <pt x="168" y="294" on="1"/>
        <pt x="168" y="324" on="1"/>
        <pt x="168" y="460" on="0"/>
        <pt x="252" y="532" on="1"/>
        <pt x="277" y="554" on="0"/>
        <pt x="309" y="572" on="1"/>
        <pt x="223" y="606" on="0"/>
        <pt x="152" y="717" on="0"/>
        <pt x="152" y="796" on="1"/>
        <pt x="152" y="1083" on="1"/>
        <pt x="152" y="1220" on="0"/>
        <pt x="346" y="1379" on="0"/>
        <pt x="519" y="1379" on="1"/>
        <pt x="782" y="1379" on="0"/>
        <pt x="860" y="1208" on="1"/>
        <pt x="884" y="1153" on="0"/>
        <pt x="884" y="1016" on="0"/>
        <pt x="858" y="903" on="0"/>
        <pt x="834" y="862" on="1"/>
        <pt x="783" y="776" on="0"/>
        <pt x="701" y="776" on="1"/>
        <pt x="652" y="776" on="0"/>
        <pt x="626" y="800" on="1"/>
        <pt x="583" y="842" on="0"/>
        <pt x="583" y="924" on="0"/>
        <pt x="609" y="967" on="0"/>
        <pt x="625" y="986" on="1"/>
        <pt x="667" y="1038" on="0"/>
        <pt x="667" y="1136" on="0"/>
        <pt x="592" y="1198" on="0"/>
        <pt x="466" y="1198" on="0"/>
        <pt x="388" y="1143" on="0"/>
        <pt x="388" y="1092" on="1"/>
        <pt x="388" y="785" on="1"/>
        <pt x="388" y="736" on="0"/>
        <pt x="413" y="710" on="1"/>
        <pt x="455" y="666" on="0"/>
        <pt x="505" y="666" on="1"/>
        <pt x="523" y="666" on="1"/>
        <pt x="561" y="666" on="0"/>
        <pt x="612" y="613" on="0"/>
        <pt x="612" y="538" on="0"/>
        <pt x="561" y="486" on="0"/>
        <pt x="498" y="486" on="0"/>
        <pt x="455" y="468" on="0"/>
        <pt x="439" y="452" on="1"/>
        <pt x="405" y="418" on="0"/>
        <pt x="405" y="368" on="1"/>
        <pt x="405" y="298" on="1"/>
        <pt x="405" y="248" on="0"/>
        <pt x="430" y="223" on="1"/>
        <pt x="473" y="180" on="0"/>
        <pt x="523" y="180" on="1"/>
        <pt x="568" y="180" on="0"/>
        <pt x="591" y="204" on="1"/>
        <pt x="633" y="248" on="0"/>
        <pt x="633" y="320" on="0"/>
        <pt x="651" y="363" on="0"/>
        <pt x="667" y="379" on="1"/>
        <pt x="702" y="414" on="0"/>
        <pt x="751" y="414" on="1"/>
        <pt x="799" y="414" on="0"/>
        <pt x="824" y="388" on="1"/>
        <pt x="868" y="345" on="0"/>
        <pt x="868" y="296" on="1"/>
        <pt x="868" y="182" on="0"/>
        <pt x="741" y="32" on="0"/>
      </contour>
    </TTGlyph>
    <TTGlyph name="Eth" xMin="60" yMin="0" xMax="1165" yMax="1359">
      <contour>
        <pt x="297" y="1003" on="1"/>
        <pt x="297" y="925" on="0"/>
        <pt x="224" y="895" on="1"/>
        <pt x="202" y="886" on="0"/>
        <pt x="153" y="886" on="0"/>
        <pt x="110" y="904" on="0"/>
        <pt x="94" y="920" on="1"/>
        <pt x="60" y="952" on="0"/>
        <pt x="60" y="1003" on="1"/>
        <pt x="60" y="1063" on="1"/>
        <pt x="60" y="1185" on="0"/>
        <pt x="234" y="1359" on="0"/>
        <pt x="356" y="1359" on="1"/>
        <pt x="870" y="1359" on="1"/>
        <pt x="992" y="1359" on="0"/>
        <pt x="1079" y="1272" on="1"/>
        <pt x="1165" y="1186" on="0"/>
        <pt x="1165" y="1063" on="1"/>
        <pt x="1165" y="296" on="1"/>
        <pt x="1165" y="173" on="0"/>
        <pt x="1079" y="87" on="1"/>
        <pt x="992" y="0" on="0"/>
        <pt x="870" y="0" on="1"/>
        <pt x="324" y="0" on="1"/>
        <pt x="287" y="0" on="0"/>
        <pt x="267" y="19" on="1"/>
        <pt x="233" y="51" on="0"/>
        <pt x="233" y="108" on="0"/>
        <pt x="247" y="141" on="0"/>
        <pt x="260" y="154" on="1"/>
        <pt x="287" y="181" on="0"/>
        <pt x="324" y="181" on="1"/>
        <pt x="456" y="181" on="1"/>
        <pt x="456" y="559" on="1"/>
        <pt x="329" y="559" on="1"/>
        <pt x="302" y="559" on="0"/>
        <pt x="267" y="591" on="0"/>
        <pt x="268" y="639" on="0"/>
        <pt x="301" y="671" on="0"/>
        <pt x="326" y="671" on="1"/>
        <pt x="456" y="671" on="1"/>
        <pt x="456" y="956" on="1"/>
        <pt x="456" y="1051" on="0"/>
        <pt x="542" y="1131" on="1"/>
        <pt x="550" y="1139" on="0"/>
        <pt x="550" y="1158" on="0"/>
        <pt x="537" y="1179" on="0"/>
        <pt x="518" y="1179" on="1"/>
        <pt x="405" y="1179" on="1"/>
        <pt x="361" y="1179" on="0"/>
        <pt x="337" y="1152" on="1"/>
        <pt x="297" y="1107" on="0"/>
        <pt x="297" y="1060" on="1"/>
      </contour>
      <contour>
        <pt x="693" y="559" on="1"/>
        <pt x="693" y="181" on="1"/>
        <pt x="812" y="181" on="1"/>
        <pt x="888" y="181" on="0"/>
        <pt x="920" y="252" on="1"/>
        <pt x="929" y="273" on="0"/>
        <pt x="929" y="298" on="1"/>
        <pt x="929" y="1060" on="1"/>
        <pt x="929" y="1108" on="0"/>
        <pt x="904" y="1134" on="1"/>
        <pt x="861" y="1179" on="0"/>
        <pt x="812" y="1179" on="1"/>
        <pt x="802" y="1179" on="1"/>
        <pt x="755" y="1176" on="0"/>
        <pt x="693" y="1110" on="0"/>
        <pt x="693" y="1061" on="1"/>
        <pt x="693" y="671" on="1"/>
        <pt x="753" y="671" on="1"/>
        <pt x="777" y="671" on="0"/>
        <pt x="810" y="638" on="0"/>
        <pt x="810" y="590" on="0"/>
        <pt x="777" y="559" on="0"/>
        <pt x="754" y="559" on="1"/>
      </contour>
    </TTGlyph>
    <TTGlyph name="Euro" xMin="110" yMin="0" xMax="912" yMax="1359">
      <contour>
        <pt x="675" y="1060" on="1"/>
        <pt x="675" y="1110" on="0"/>
        <pt x="650" y="1135" on="1"/>
        <pt x="606" y="1179" on="0"/>
        <pt x="557" y="1179" on="1"/>
        <pt x="508" y="1179" on="0"/>
        <pt x="482" y="1154" on="1"/>
        <pt x="439" y="1110" on="0"/>
        <pt x="439" y="1060" on="1"/>
        <pt x="439" y="754" on="1"/>
        <pt x="784" y="754" on="1"/>
        <pt x="808" y="754" on="0"/>
        <pt x="842" y="722" on="0"/>
        <pt x="841" y="674" on="0"/>
        <pt x="808" y="643" on="0"/>
        <pt x="785" y="643" on="1"/>
        <pt x="439" y="643" on="1"/>
        <pt x="439" y="539" on="1"/>
        <pt x="714" y="539" on="1"/>
        <pt x="738" y="539" on="0"/>
        <pt x="772" y="507" on="0"/>
        <pt x="771" y="459" on="0"/>
        <pt x="738" y="428" on="0"/>
        <pt x="715" y="428" on="1"/>
        <pt x="439" y="428" on="1"/>
        <pt x="439" y="298" on="1"/>
        <pt x="439" y="247" on="0"/>
        <pt x="464" y="223" on="1"/>
        <pt x="508" y="181" on="0"/>
        <pt x="557" y="181" on="1"/>
        <pt x="783" y="181" on="1"/>
        <pt x="842" y="181" on="0"/>
        <pt x="866" y="124" on="1"/>
        <pt x="873" y="108" on="0"/>
        <pt x="873" y="71" on="0"/>
        <pt x="859" y="38" on="0"/>
        <pt x="847" y="26" on="1"/>
        <pt x="821" y="0" on="0"/>
        <pt x="783" y="0" on="1"/>
        <pt x="498" y="0" on="1"/>
        <pt x="376" y="0" on="0"/>
        <pt x="202" y="174" on="0"/>
        <pt x="202" y="296" on="1"/>
        <pt x="202" y="428" on="1"/>
        <pt x="172" y="428" on="1"/>
        <pt x="145" y="428" on="0"/>
        <pt x="110" y="460" on="0"/>
        <pt x="111" y="508" on="0"/>
        <pt x="144" y="539" on="0"/>
        <pt x="169" y="539" on="1"/>
        <pt x="202" y="539" on="1"/>
        <pt x="202" y="643" on="1"/>
        <pt x="172" y="643" on="1"/>
        <pt x="145" y="643" on="0"/>
        <pt x="110" y="675" on="0"/>
        <pt x="111" y="723" on="0"/>
        <pt x="144" y="754" on="0"/>
        <pt x="169" y="754" on="1"/>
        <pt x="202" y="754" on="1"/>
        <pt x="202" y="1065" on="1"/>
        <pt x="202" y="1200" on="0"/>
        <pt x="294" y="1278" on="1"/>
        <pt x="390" y="1359" on="0"/>
        <pt x="557" y="1359" on="1"/>
        <pt x="723" y="1359" on="0"/>
        <pt x="818" y="1278" on="1"/>
        <pt x="912" y="1199" on="0"/>
        <pt x="912" y="1063" on="1"/>
        <pt x="912" y="991" on="1"/>
        <pt x="912" y="941" on="0"/>
        <pt x="886" y="917" on="1"/>
        <pt x="842" y="874" on="0"/>
        <pt x="769" y="874" on="0"/>
        <pt x="726" y="892" on="0"/>
        <pt x="710" y="908" on="1"/>
        <pt x="675" y="941" on="0"/>
        <pt x="675" y="991" on="1"/>
      </contour>
    </TTGlyph>
    <TTGlyph name="F" xMin="54" yMin="0" xMax="1025" yMax="1359">
      <contour>
        <pt x="543" y="1149" on="1"/>
        <pt x="543" y="1179" on="0"/>
        <pt x="514" y="1179" on="1"/>
        <pt x="399" y="1179" on="1"/>
        <pt x="355" y="1179" on="0"/>
        <pt x="331" y="1152" on="1"/>
        <pt x="291" y="1107" on="0"/>
        <pt x="291" y="1060" on="1"/>
        <pt x="291" y="1003" on="1"/>
        <pt x="291" y="925" on="0"/>
        <pt x="218" y="895" on="1"/>
        <pt x="196" y="886" on="0"/>
        <pt x="147" y="886" on="0"/>
        <pt x="104" y="904" on="0"/>
        <pt x="88" y="920" on="1"/>
        <pt x="54" y="954" on="0"/>
        <pt x="54" y="1003" on="1"/>
        <pt x="54" y="1063" on="1"/>
        <pt x="54" y="1185" on="0"/>
        <pt x="228" y="1359" on="0"/>
        <pt x="350" y="1359" on="1"/>
        <pt x="936" y="1359" on="1"/>
        <pt x="974" y="1359" on="0"/>
        <pt x="1025" y="1306" on="0"/>
        <pt x="1025" y="1250" on="0"/>
        <pt x="1011" y="1217" on="0"/>
        <pt x="999" y="1205" on="1"/>
        <pt x="973" y="1179" on="0"/>
        <pt x="936" y="1179" on="1"/>
        <pt x="795" y="1179" on="1"/>
        <pt x="750" y="1179" on="0"/>
        <pt x="726" y="1154" on="1"/>
        <pt x="685" y="1110" on="0"/>
        <pt x="685" y="1061" on="1"/>
        <pt x="685" y="711" on="1"/>
        <pt x="877" y="711" on="1"/>
        <pt x="914" y="711" on="0"/>
        <pt x="934" y="692" on="1"/>
        <pt x="968" y="660" on="0"/>
        <pt x="968" y="603" on="0"/>
        <pt x="954" y="570" on="0"/>
        <pt x="942" y="558" on="1"/>
        <pt x="915" y="531" on="0"/>
        <pt x="877" y="531" on="1"/>
        <pt x="685" y="531" on="1"/>
        <pt x="685" y="296" on="1"/>
        <pt x="685" y="173" on="0"/>
        <pt x="599" y="87" on="1"/>
        <pt x="512" y="0" on="0"/>
        <pt x="390" y="0" on="1"/>
        <pt x="274" y="0" on="1"/>
        <pt x="236" y="0" on="0"/>
        <pt x="184" y="52" on="0"/>
        <pt x="184" y="127" on="0"/>
        <pt x="236" y="181" on="0"/>
        <pt x="274" y="181" on="1"/>
        <pt x="331" y="181" on="1"/>
        <pt x="380" y="181" on="0"/>
        <pt x="406" y="206" on="1"/>
        <pt x="449" y="247" on="0"/>
        <pt x="449" y="298" on="1"/>
        <pt x="449" y="531" on="1"/>
        <pt x="405" y="531" on="1"/>
        <pt x="368" y="531" on="0"/>
        <pt x="348" y="550" on="1"/>
        <pt x="314" y="582" on="0"/>
        <pt x="314" y="639" on="0"/>
        <pt x="328" y="672" on="0"/>
        <pt x="340" y="684" on="1"/>
        <pt x="367" y="711" on="0"/>
        <pt x="405" y="711" on="1"/>
        <pt x="449" y="711" on="1"/>
        <pt x="449" y="956" on="1"/>
        <pt x="449" y="1051" on="0"/>
        <pt x="534" y="1131" on="1"/>
        <pt x="543" y="1139" on="0"/>
      </contour>
    </TTGlyph>
    <TTGlyph name="G" xMin="156" yMin="-439" xMax="876" yMax="1379">
      <contour>
        <pt x="633" y="1006" on="0"/>
        <pt x="659" y="1049" on="0"/>
        <pt x="659" y="1105" on="0"/>
        <pt x="639" y="1148" on="0"/>
        <pt x="621" y="1164" on="1"/>
        <pt x="582" y="1199" on="0"/>
        <pt x="462" y="1199" on="0"/>
        <pt x="393" y="1130" on="0"/>
        <pt x="393" y="1080" on="1"/>
        <pt x="393" y="268" on="1"/>
        <pt x="393" y="217" on="0"/>
        <pt x="461" y="162" on="0"/>
        <pt x="511" y="162" on="1"/>
        <pt x="561" y="162" on="0"/>
        <pt x="629" y="217" on="0"/>
        <pt x="629" y="268" on="1"/>
        <pt x="629" y="440" on="1"/>
        <pt x="629" y="490" on="0"/>
        <pt x="654" y="515" on="1"/>
        <pt x="697" y="558" on="0"/>
        <pt x="771" y="558" on="0"/>
        <pt x="815" y="540" on="0"/>
        <pt x="831" y="524" on="1"/>
        <pt x="866" y="489" on="0"/>
        <pt x="866" y="440" on="1"/>
        <pt x="866" y="-143" on="1"/>
        <pt x="866" y="-266" on="0"/>
        <pt x="780" y="-352" on="1"/>
        <pt x="693" y="-439" on="0"/>
        <pt x="572" y="-439" on="1"/>
        <pt x="454" y="-439" on="1"/>
        <pt x="416" y="-439" on="0"/>
        <pt x="364" y="-387" on="0"/>
        <pt x="364" y="-312" on="0"/>
        <pt x="416" y="-258" on="0"/>
        <pt x="454" y="-258" on="1"/>
        <pt x="511" y="-258" on="1"/>
        <pt x="560" y="-258" on="0"/>
        <pt x="586" y="-234" on="1"/>
        <pt x="629" y="-192" on="0"/>
        <pt x="629" y="-141" on="1"/>
        <pt x="629" y="41" on="1"/>
        <pt x="629" y="60" on="0"/>
        <pt x="608" y="73" on="0"/>
        <pt x="588" y="73" on="0"/>
        <pt x="580" y="64" on="1"/>
        <pt x="563" y="48" on="1"/>
        <pt x="495" y="-20" on="0"/>
        <pt x="407" y="-20" on="1"/>
        <pt x="300" y="-20" on="0"/>
        <pt x="228" y="68" on="1"/>
        <pt x="156" y="154" on="0"/>
        <pt x="156" y="276" on="1"/>
        <pt x="156" y="1085" on="1"/>
        <pt x="156" y="1220" on="0"/>
        <pt x="248" y="1298" on="1"/>
        <pt x="344" y="1379" on="0"/>
        <pt x="511" y="1379" on="1"/>
        <pt x="683" y="1379" on="0"/>
        <pt x="780" y="1298" on="1"/>
        <pt x="876" y="1219" on="0"/>
        <pt x="876" y="1084" on="1"/>
        <pt x="876" y="873" on="0"/>
        <pt x="768" y="799" on="1"/>
        <pt x="735" y="776" on="0"/>
        <pt x="668" y="776" on="0"/>
        <pt x="625" y="794" on="0"/>
        <pt x="609" y="810" on="1"/>
        <pt x="575" y="842" on="0"/>
        <pt x="575" y="924" on="0"/>
        <pt x="601" y="967" on="0"/>
      </contour>
    </TTGlyph>
    <TTGlyph name="Gbreve" xMin="156" yMin="-439" xMax="876" yMax="1879">
      <contour>
        <pt x="633" y="1006" on="0"/>
        <pt x="659" y="1049" on="0"/>
        <pt x="659" y="1105" on="0"/>
        <pt x="639" y="1148" on="0"/>
        <pt x="621" y="1164" on="1"/>
        <pt x="582" y="1199" on="0"/>
        <pt x="462" y="1199" on="0"/>
        <pt x="393" y="1130" on="0"/>
        <pt x="393" y="1080" on="1"/>
        <pt x="393" y="268" on="1"/>
        <pt x="393" y="217" on="0"/>
        <pt x="461" y="162" on="0"/>
        <pt x="511" y="162" on="1"/>
        <pt x="561" y="162" on="0"/>
        <pt x="629" y="217" on="0"/>
        <pt x="629" y="268" on="1"/>
        <pt x="629" y="440" on="1"/>
        <pt x="629" y="490" on="0"/>
        <pt x="654" y="515" on="1"/>
        <pt x="697" y="558" on="0"/>
        <pt x="771" y="558" on="0"/>
        <pt x="815" y="540" on="0"/>
        <pt x="831" y="524" on="1"/>
        <pt x="866" y="489" on="0"/>
        <pt x="866" y="440" on="1"/>
        <pt x="866" y="-143" on="1"/>
        <pt x="866" y="-266" on="0"/>
        <pt x="780" y="-352" on="1"/>
        <pt x="693" y="-439" on="0"/>
        <pt x="572" y="-439" on="1"/>
        <pt x="454" y="-439" on="1"/>
        <pt x="416" y="-439" on="0"/>
        <pt x="364" y="-387" on="0"/>
        <pt x="364" y="-312" on="0"/>
        <pt x="416" y="-258" on="0"/>
        <pt x="454" y="-258" on="1"/>
        <pt x="511" y="-258" on="1"/>
        <pt x="560" y="-258" on="0"/>
        <pt x="586" y="-234" on="1"/>
        <pt x="629" y="-192" on="0"/>
        <pt x="629" y="-141" on="1"/>
        <pt x="629" y="41" on="1"/>
        <pt x="629" y="60" on="0"/>
        <pt x="608" y="73" on="0"/>
        <pt x="588" y="73" on="0"/>
        <pt x="580" y="64" on="1"/>
        <pt x="563" y="48" on="1"/>
        <pt x="495" y="-20" on="0"/>
        <pt x="407" y="-20" on="1"/>
        <pt x="300" y="-20" on="0"/>
        <pt x="228" y="68" on="1"/>
        <pt x="156" y="154" on="0"/>
        <pt x="156" y="276" on="1"/>
        <pt x="156" y="1085" on="1"/>
        <pt x="156" y="1220" on="0"/>
        <pt x="248" y="1298" on="1"/>
        <pt x="344" y="1379" on="0"/>
        <pt x="511" y="1379" on="1"/>
        <pt x="683" y="1379" on="0"/>
        <pt x="780" y="1298" on="1"/>
        <pt x="876" y="1219" on="0"/>
        <pt x="876" y="1084" on="1"/>
        <pt x="876" y="873" on="0"/>
        <pt x="768" y="799" on="1"/>
        <pt x="735" y="776" on="0"/>
        <pt x="668" y="776" on="0"/>
        <pt x="625" y="794" on="0"/>
        <pt x="609" y="810" on="1"/>
        <pt x="575" y="842" on="0"/>
        <pt x="575" y="924" on="0"/>
        <pt x="601" y="967" on="0"/>
      </contour>
      <contour>
        <pt x="512" y="1686" on="1"/>
        <pt x="614" y="1686" on="0"/>
        <pt x="650" y="1768" on="1"/>
        <pt x="660" y="1790" on="0"/>
        <pt x="660" y="1843" on="0"/>
        <pt x="700" y="1879" on="0"/>
        <pt x="750" y="1879" on="0"/>
        <pt x="793" y="1846" on="0"/>
        <pt x="793" y="1742" on="0"/>
        <pt x="758" y="1643" on="0"/>
        <pt x="704" y="1575" on="0"/>
        <pt x="637" y="1535" on="0"/>
        <pt x="606" y="1524" on="1"/>
        <pt x="555" y="1506" on="0"/>
        <pt x="512" y="1506" on="1"/>
        <pt x="436" y="1506" on="0"/>
        <pt x="353" y="1555" on="1"/>
        <pt x="282" y="1598" on="0"/>
        <pt x="249" y="1692" on="1"/>
        <pt x="231" y="1742" on="0"/>
        <pt x="231" y="1846" on="0"/>
        <pt x="274" y="1879" on="0"/>
        <pt x="324" y="1879" on="0"/>
        <pt x="364" y="1843" on="0"/>
        <pt x="364" y="1790" on="0"/>
        <pt x="384" y="1745" on="0"/>
        <pt x="403" y="1727" on="1"/>
        <pt x="445" y="1686" on="0"/>
      </contour>
    </TTGlyph>
    <TTGlyph name="Gcircumflex" xMin="156" yMin="-439" xMax="876" yMax="1888">
      <contour>
        <pt x="633" y="1006" on="0"/>
        <pt x="659" y="1049" on="0"/>
        <pt x="659" y="1105" on="0"/>
        <pt x="639" y="1148" on="0"/>
        <pt x="621" y="1164" on="1"/>
        <pt x="582" y="1199" on="0"/>
        <pt x="462" y="1199" on="0"/>
        <pt x="393" y="1130" on="0"/>
        <pt x="393" y="1080" on="1"/>
        <pt x="393" y="268" on="1"/>
        <pt x="393" y="217" on="0"/>
        <pt x="461" y="162" on="0"/>
        <pt x="511" y="162" on="1"/>
        <pt x="561" y="162" on="0"/>
        <pt x="629" y="217" on="0"/>
        <pt x="629" y="268" on="1"/>
        <pt x="629" y="440" on="1"/>
        <pt x="629" y="490" on="0"/>
        <pt x="654" y="515" on="1"/>
        <pt x="697" y="558" on="0"/>
        <pt x="771" y="558" on="0"/>
        <pt x="815" y="540" on="0"/>
        <pt x="831" y="524" on="1"/>
        <pt x="866" y="489" on="0"/>
        <pt x="866" y="440" on="1"/>
        <pt x="866" y="-143" on="1"/>
        <pt x="866" y="-266" on="0"/>
        <pt x="780" y="-352" on="1"/>
        <pt x="693" y="-439" on="0"/>
        <pt x="572" y="-439" on="1"/>
        <pt x="454" y="-439" on="1"/>
        <pt x="416" y="-439" on="0"/>
        <pt x="364" y="-387" on="0"/>
        <pt x="364" y="-312" on="0"/>
        <pt x="416" y="-258" on="0"/>
        <pt x="454" y="-258" on="1"/>
        <pt x="511" y="-258" on="1"/>
        <pt x="560" y="-258" on="0"/>
        <pt x="586" y="-234" on="1"/>
        <pt x="629" y="-192" on="0"/>
        <pt x="629" y="-141" on="1"/>
        <pt x="629" y="41" on="1"/>
        <pt x="629" y="60" on="0"/>
        <pt x="608" y="73" on="0"/>
        <pt x="588" y="73" on="0"/>
        <pt x="580" y="64" on="1"/>
        <pt x="563" y="48" on="1"/>
        <pt x="495" y="-20" on="0"/>
        <pt x="407" y="-20" on="1"/>
        <pt x="300" y="-20" on="0"/>
        <pt x="228" y="68" on="1"/>
        <pt x="156" y="154" on="0"/>
        <pt x="156" y="276" on="1"/>
        <pt x="156" y="1085" on="1"/>
        <pt x="156" y="1220" on="0"/>
        <pt x="248" y="1298" on="1"/>
        <pt x="344" y="1379" on="0"/>
        <pt x="511" y="1379" on="1"/>
        <pt x="683" y="1379" on="0"/>
        <pt x="780" y="1298" on="1"/>
        <pt x="876" y="1219" on="0"/>
        <pt x="876" y="1084" on="1"/>
        <pt x="876" y="873" on="0"/>
        <pt x="768" y="799" on="1"/>
        <pt x="735" y="776" on="0"/>
        <pt x="668" y="776" on="0"/>
        <pt x="625" y="794" on="0"/>
        <pt x="609" y="810" on="1"/>
        <pt x="575" y="842" on="0"/>
        <pt x="575" y="924" on="0"/>
        <pt x="601" y="967" on="0"/>
      </contour>
      <contour>
        <pt x="743" y="1599" on="1"/>
        <pt x="756" y="1575" on="0"/>
        <pt x="756" y="1531" on="0"/>
        <pt x="722" y="1493" on="0"/>
        <pt x="702" y="1493" on="1"/>
        <pt x="662" y="1493" on="0"/>
        <pt x="642" y="1513" on="1"/>
        <pt x="511" y="1647" on="1"/>
        <pt x="380" y="1513" on="1"/>
        <pt x="360" y="1493" on="0"/>
        <pt x="300" y="1493" on="0"/>
        <pt x="266" y="1531" on="0"/>
        <pt x="266" y="1575" on="0"/>
        <pt x="279" y="1599" on="1"/>
        <pt x="399" y="1812" on="1"/>
        <pt x="441" y="1888" on="0"/>
        <pt x="512" y="1888" on="1"/>
        <pt x="577" y="1888" on="0"/>
        <pt x="623" y="1812" on="1"/>
      </contour>
    </TTGlyph>
    <TTGlyph name="Gcommaaccent" xMin="156" yMin="-508" xMax="876" yMax="1379">
      <contour>
        <pt x="633" y="1006" on="0"/>
        <pt x="659" y="1049" on="0"/>
        <pt x="659" y="1105" on="0"/>
        <pt x="639" y="1148" on="0"/>
        <pt x="621" y="1164" on="1"/>
        <pt x="582" y="1199" on="0"/>
        <pt x="462" y="1199" on="0"/>
        <pt x="393" y="1130" on="0"/>
        <pt x="393" y="1080" on="1"/>
        <pt x="393" y="268" on="1"/>
        <pt x="393" y="217" on="0"/>
        <pt x="461" y="162" on="0"/>
        <pt x="511" y="162" on="1"/>
        <pt x="561" y="162" on="0"/>
        <pt x="629" y="217" on="0"/>
        <pt x="629" y="268" on="1"/>
        <pt x="629" y="440" on="1"/>
        <pt x="629" y="490" on="0"/>
        <pt x="654" y="515" on="1"/>
        <pt x="697" y="558" on="0"/>
        <pt x="771" y="558" on="0"/>
        <pt x="815" y="540" on="0"/>
        <pt x="831" y="524" on="1"/>
        <pt x="866" y="489" on="0"/>
        <pt x="866" y="440" on="1"/>
        <pt x="866" y="5" on="1"/>
        <pt x="866" y="-57" on="0"/>
        <pt x="800" y="-125" on="0"/>
        <pt x="740" y="-125" on="1"/>
        <pt x="695" y="-125" on="0"/>
        <pt x="671" y="-100" on="1"/>
        <pt x="629" y="-55" on="0"/>
        <pt x="629" y="5" on="1"/>
        <pt x="629" y="41" on="1"/>
        <pt x="629" y="60" on="0"/>
        <pt x="608" y="73" on="0"/>
        <pt x="588" y="73" on="0"/>
        <pt x="580" y="64" on="1"/>
        <pt x="563" y="48" on="1"/>
        <pt x="495" y="-20" on="0"/>
        <pt x="407" y="-20" on="1"/>
        <pt x="300" y="-20" on="0"/>
        <pt x="228" y="68" on="1"/>
        <pt x="156" y="154" on="0"/>
        <pt x="156" y="276" on="1"/>
        <pt x="156" y="1085" on="1"/>
        <pt x="156" y="1220" on="0"/>
        <pt x="248" y="1298" on="1"/>
        <pt x="344" y="1379" on="0"/>
        <pt x="511" y="1379" on="1"/>
        <pt x="683" y="1379" on="0"/>
        <pt x="780" y="1298" on="1"/>
        <pt x="876" y="1219" on="0"/>
        <pt x="876" y="1084" on="1"/>
        <pt x="876" y="873" on="0"/>
        <pt x="768" y="799" on="1"/>
        <pt x="735" y="776" on="0"/>
        <pt x="668" y="776" on="0"/>
        <pt x="625" y="794" on="0"/>
        <pt x="609" y="810" on="1"/>
        <pt x="575" y="842" on="0"/>
        <pt x="575" y="924" on="0"/>
        <pt x="601" y="967" on="0"/>
      </contour>
      <contour>
        <pt x="457" y="-384" on="0"/>
        <pt x="469" y="-360" on="0"/>
        <pt x="469" y="-310" on="0"/>
        <pt x="446" y="-290" on="1"/>
        <pt x="405" y="-253" on="0"/>
        <pt x="405" y="-179" on="0"/>
        <pt x="423" y="-139" on="0"/>
        <pt x="439" y="-124" on="1"/>
        <pt x="474" y="-93" on="0"/>
        <pt x="553" y="-93" on="0"/>
        <pt x="600" y="-116" on="0"/>
        <pt x="615" y="-136" on="1"/>
        <pt x="644" y="-175" on="0"/>
        <pt x="644" y="-242" on="1"/>
        <pt x="644" y="-378" on="0"/>
        <pt x="572" y="-462" on="1"/>
        <pt x="533" y="-508" on="0"/>
        <pt x="465" y="-508" on="0"/>
        <pt x="431" y="-472" on="0"/>
        <pt x="431" y="-432" on="0"/>
        <pt x="443" y="-408" on="0"/>
      </contour>
    </TTGlyph>
    <TTGlyph name="Gdotaccent" xMin="156" yMin="-439" xMax="876" yMax="1778">
      <contour>
        <pt x="633" y="1006" on="0"/>
        <pt x="659" y="1049" on="0"/>
        <pt x="659" y="1105" on="0"/>
        <pt x="639" y="1148" on="0"/>
        <pt x="621" y="1164" on="1"/>
        <pt x="582" y="1199" on="0"/>
        <pt x="462" y="1199" on="0"/>
        <pt x="393" y="1130" on="0"/>
        <pt x="393" y="1080" on="1"/>
        <pt x="393" y="268" on="1"/>
        <pt x="393" y="217" on="0"/>
        <pt x="461" y="162" on="0"/>
        <pt x="511" y="162" on="1"/>
        <pt x="561" y="162" on="0"/>
        <pt x="629" y="217" on="0"/>
        <pt x="629" y="268" on="1"/>
        <pt x="629" y="440" on="1"/>
        <pt x="629" y="490" on="0"/>
        <pt x="654" y="515" on="1"/>
        <pt x="697" y="558" on="0"/>
        <pt x="771" y="558" on="0"/>
        <pt x="815" y="540" on="0"/>
        <pt x="831" y="524" on="1"/>
        <pt x="866" y="489" on="0"/>
        <pt x="866" y="440" on="1"/>
        <pt x="866" y="-143" on="1"/>
        <pt x="866" y="-266" on="0"/>
        <pt x="780" y="-352" on="1"/>
        <pt x="693" y="-439" on="0"/>
        <pt x="572" y="-439" on="1"/>
        <pt x="454" y="-439" on="1"/>
        <pt x="416" y="-439" on="0"/>
        <pt x="364" y="-387" on="0"/>
        <pt x="364" y="-312" on="0"/>
        <pt x="416" y="-258" on="0"/>
        <pt x="454" y="-258" on="1"/>
        <pt x="511" y="-258" on="1"/>
        <pt x="560" y="-258" on="0"/>
        <pt x="586" y="-234" on="1"/>
        <pt x="629" y="-192" on="0"/>
        <pt x="629" y="-141" on="1"/>
        <pt x="629" y="41" on="1"/>
        <pt x="629" y="60" on="0"/>
        <pt x="608" y="73" on="0"/>
        <pt x="588" y="73" on="0"/>
        <pt x="580" y="64" on="1"/>
        <pt x="563" y="48" on="1"/>
        <pt x="495" y="-20" on="0"/>
        <pt x="407" y="-20" on="1"/>
        <pt x="300" y="-20" on="0"/>
        <pt x="228" y="68" on="1"/>
        <pt x="156" y="154" on="0"/>
        <pt x="156" y="276" on="1"/>
        <pt x="156" y="1085" on="1"/>
        <pt x="156" y="1220" on="0"/>
        <pt x="248" y="1298" on="1"/>
        <pt x="344" y="1379" on="0"/>
        <pt x="511" y="1379" on="1"/>
        <pt x="683" y="1379" on="0"/>
        <pt x="780" y="1298" on="1"/>
        <pt x="876" y="1219" on="0"/>
        <pt x="876" y="1084" on="1"/>
        <pt x="876" y="873" on="0"/>
        <pt x="768" y="799" on="1"/>
        <pt x="735" y="776" on="0"/>
        <pt x="668" y="776" on="0"/>
        <pt x="625" y="794" on="0"/>
        <pt x="609" y="810" on="1"/>
        <pt x="575" y="842" on="0"/>
        <pt x="575" y="924" on="0"/>
        <pt x="601" y="967" on="0"/>
      </contour>
      <contour>
        <pt x="512" y="1778" on="1"/>
        <pt x="567" y="1778" on="0"/>
        <pt x="607" y="1738" on="1"/>
        <pt x="647" y="1698" on="0"/>
        <pt x="647" y="1616" on="0"/>
        <pt x="625" y="1568" on="0"/>
        <pt x="607" y="1550" on="1"/>
        <pt x="567" y="1510" on="0"/>
        <pt x="512" y="1510" on="1"/>
        <pt x="457" y="1510" on="0"/>
        <pt x="417" y="1550" on="1"/>
        <pt x="377" y="1590" on="0"/>
        <pt x="377" y="1630" on="1"/>
        <pt x="377" y="1698" on="0"/>
        <pt x="457" y="1778" on="0"/>
      </contour>
    </TTGlyph>
    <TTGlyph name="H" xMin="64" yMin="0" xMax="1171" yMax="1359">
      <contour>
        <pt x="316" y="472" on="0"/>
        <pt x="302" y="505" on="0"/>
        <pt x="302" y="561" on="0"/>
        <pt x="353" y="614" on="0"/>
        <pt x="390" y="614" on="1"/>
        <pt x="460" y="614" on="1"/>
        <pt x="460" y="1179" on="1"/>
        <pt x="415" y="1179" on="1"/>
        <pt x="364" y="1179" on="0"/>
        <pt x="301" y="1113" on="0"/>
        <pt x="301" y="1060" on="1"/>
        <pt x="301" y="1003" on="1"/>
        <pt x="301" y="925" on="0"/>
        <pt x="228" y="895" on="1"/>
        <pt x="206" y="886" on="0"/>
        <pt x="157" y="886" on="0"/>
        <pt x="114" y="904" on="0"/>
        <pt x="98" y="920" on="1"/>
        <pt x="64" y="954" on="0"/>
        <pt x="64" y="1003" on="1"/>
        <pt x="64" y="1063" on="1"/>
        <pt x="64" y="1186" on="0"/>
        <pt x="152" y="1272" on="1"/>
        <pt x="240" y="1359" on="0"/>
        <pt x="360" y="1359" on="1"/>
        <pt x="578" y="1359" on="1"/>
        <pt x="627" y="1359" on="0"/>
        <pt x="652" y="1334" on="1"/>
        <pt x="696" y="1290" on="0"/>
        <pt x="696" y="1239" on="1"/>
        <pt x="696" y="614" on="1"/>
        <pt x="935" y="614" on="1"/>
        <pt x="935" y="1239" on="1"/>
        <pt x="935" y="1318" on="0"/>
        <pt x="1006" y="1350" on="1"/>
        <pt x="1028" y="1359" on="0"/>
        <pt x="1079" y="1359" on="0"/>
        <pt x="1121" y="1340" on="0"/>
        <pt x="1137" y="1324" on="1"/>
        <pt x="1171" y="1290" on="0"/>
        <pt x="1171" y="1239" on="1"/>
        <pt x="1171" y="117" on="1"/>
        <pt x="1171" y="42" on="0"/>
        <pt x="1100" y="10" on="1"/>
        <pt x="1079" y="0" on="0"/>
        <pt x="1028" y="0" on="0"/>
        <pt x="985" y="19" on="0"/>
        <pt x="969" y="34" on="1"/>
        <pt x="935" y="67" on="0"/>
        <pt x="935" y="117" on="1"/>
        <pt x="935" y="433" on="1"/>
        <pt x="696" y="433" on="1"/>
        <pt x="696" y="296" on="1"/>
        <pt x="696" y="173" on="0"/>
        <pt x="610" y="87" on="1"/>
        <pt x="523" y="0" on="0"/>
        <pt x="401" y="0" on="1"/>
        <pt x="285" y="0" on="1"/>
        <pt x="247" y="0" on="0"/>
        <pt x="195" y="52" on="0"/>
        <pt x="195" y="127" on="0"/>
        <pt x="247" y="181" on="0"/>
        <pt x="285" y="181" on="1"/>
        <pt x="342" y="181" on="1"/>
        <pt x="391" y="181" on="0"/>
        <pt x="417" y="206" on="1"/>
        <pt x="460" y="247" on="0"/>
        <pt x="460" y="298" on="1"/>
        <pt x="460" y="433" on="1"/>
        <pt x="390" y="433" on="1"/>
        <pt x="355" y="433" on="0"/>
      </contour>
    </TTGlyph>
    <TTGlyph name="Hbar" xMin="195" yMin="-19" xMax="1318" yMax="1379">
      <contour>
        <pt x="1173" y="830" on="1"/>
        <pt x="1171" y="98" on="1"/>
        <pt x="1171" y="23" on="0"/>
        <pt x="1100" y="-10" on="1"/>
        <pt x="1079" y="-19" on="0"/>
        <pt x="1028" y="-19" on="0"/>
        <pt x="985" y="0" on="0"/>
        <pt x="969" y="16" on="1"/>
        <pt x="935" y="48" on="0"/>
        <pt x="935" y="98" on="1"/>
        <pt x="935" y="433" on="1"/>
        <pt x="696" y="433" on="1"/>
        <pt x="696" y="296" on="1"/>
        <pt x="696" y="173" on="0"/>
        <pt x="610" y="87" on="1"/>
        <pt x="523" y="0" on="0"/>
        <pt x="401" y="0" on="1"/>
        <pt x="285" y="0" on="1"/>
        <pt x="247" y="0" on="0"/>
        <pt x="195" y="52" on="0"/>
        <pt x="195" y="127" on="0"/>
        <pt x="247" y="181" on="0"/>
        <pt x="285" y="181" on="1"/>
        <pt x="342" y="181" on="1"/>
        <pt x="391" y="181" on="0"/>
        <pt x="417" y="206" on="1"/>
        <pt x="460" y="247" on="0"/>
        <pt x="460" y="298" on="1"/>
        <pt x="460" y="433" on="1"/>
        <pt x="390" y="433" on="1"/>
        <pt x="355" y="433" on="0"/>
        <pt x="336" y="452" on="1"/>
        <pt x="302" y="486" on="0"/>
        <pt x="302" y="561" on="0"/>
        <pt x="353" y="614" on="0"/>
        <pt x="390" y="614" on="1"/>
        <pt x="460" y="614" on="1"/>
        <pt x="460" y="830" on="1"/>
        <pt x="365" y="830" on="1"/>
        <pt x="338" y="830" on="0"/>
        <pt x="303" y="862" on="0"/>
        <pt x="304" y="910" on="0"/>
        <pt x="337" y="942" on="0"/>
        <pt x="362" y="942" on="1"/>
        <pt x="460" y="942" on="1"/>
        <pt x="460" y="1174" on="1"/>
        <pt x="286" y="1174" on="1"/>
        <pt x="226" y="1174" on="0"/>
        <pt x="202" y="1230" on="1"/>
        <pt x="195" y="1246" on="0"/>
        <pt x="195" y="1265" on="1"/>
        <pt x="195" y="1326" on="0"/>
        <pt x="250" y="1352" on="1"/>
        <pt x="267" y="1359" on="0"/>
        <pt x="286" y="1359" on="1"/>
        <pt x="578" y="1359" on="1"/>
        <pt x="627" y="1359" on="0"/>
        <pt x="652" y="1334" on="1"/>
        <pt x="696" y="1290" on="0"/>
        <pt x="696" y="1239" on="1"/>
        <pt x="696" y="942" on="1"/>
        <pt x="936" y="942" on="1"/>
        <pt x="938" y="1259" on="1"/>
        <pt x="938" y="1338" on="0"/>
        <pt x="1010" y="1370" on="1"/>
        <pt x="1031" y="1379" on="0"/>
        <pt x="1082" y="1379" on="0"/>
        <pt x="1124" y="1360" on="0"/>
        <pt x="1140" y="1344" on="1"/>
        <pt x="1174" y="1310" on="0"/>
        <pt x="1174" y="1259" on="1"/>
        <pt x="1173" y="942" on="1"/>
        <pt x="1261" y="942" on="1"/>
        <pt x="1285" y="942" on="0"/>
        <pt x="1318" y="909" on="0"/>
        <pt x="1318" y="861" on="0"/>
        <pt x="1285" y="830" on="0"/>
        <pt x="1262" y="830" on="1"/>
      </contour>
      <contour>
        <pt x="935" y="614" on="1"/>
        <pt x="936" y="830" on="1"/>
        <pt x="696" y="830" on="1"/>
        <pt x="696" y="614" on="1"/>
      </contour>
    </TTGlyph>
    <TTGlyph name="Hcircumflex" xMin="64" yMin="0" xMax="1171" yMax="1888">
      <contour>
        <pt x="316" y="472" on="0"/>
        <pt x="302" y="505" on="0"/>
        <pt x="302" y="561" on="0"/>
        <pt x="353" y="614" on="0"/>
        <pt x="390" y="614" on="1"/>
        <pt x="460" y="614" on="1"/>
        <pt x="460" y="1179" on="1"/>
        <pt x="415" y="1179" on="1"/>
        <pt x="364" y="1179" on="0"/>
        <pt x="301" y="1113" on="0"/>
        <pt x="301" y="1060" on="1"/>
        <pt x="301" y="1003" on="1"/>
        <pt x="301" y="925" on="0"/>
        <pt x="228" y="895" on="1"/>
        <pt x="206" y="886" on="0"/>
        <pt x="157" y="886" on="0"/>
        <pt x="114" y="904" on="0"/>
        <pt x="98" y="920" on="1"/>
        <pt x="64" y="954" on="0"/>
        <pt x="64" y="1003" on="1"/>
        <pt x="64" y="1063" on="1"/>
        <pt x="64" y="1186" on="0"/>
        <pt x="152" y="1272" on="1"/>
        <pt x="240" y="1359" on="0"/>
        <pt x="360" y="1359" on="1"/>
        <pt x="578" y="1359" on="1"/>
        <pt x="627" y="1359" on="0"/>
        <pt x="652" y="1334" on="1"/>
        <pt x="696" y="1290" on="0"/>
        <pt x="696" y="1239" on="1"/>
        <pt x="696" y="614" on="1"/>
        <pt x="935" y="614" on="1"/>
        <pt x="935" y="1239" on="1"/>
        <pt x="935" y="1318" on="0"/>
        <pt x="1006" y="1350" on="1"/>
        <pt x="1028" y="1359" on="0"/>
        <pt x="1079" y="1359" on="0"/>
        <pt x="1121" y="1340" on="0"/>
        <pt x="1137" y="1324" on="1"/>
        <pt x="1171" y="1290" on="0"/>
        <pt x="1171" y="1239" on="1"/>
        <pt x="1171" y="117" on="1"/>
        <pt x="1171" y="42" on="0"/>
        <pt x="1100" y="10" on="1"/>
        <pt x="1079" y="0" on="0"/>
        <pt x="1028" y="0" on="0"/>
        <pt x="985" y="19" on="0"/>
        <pt x="969" y="34" on="1"/>
        <pt x="935" y="67" on="0"/>
        <pt x="935" y="117" on="1"/>
        <pt x="935" y="433" on="1"/>
        <pt x="696" y="433" on="1"/>
        <pt x="696" y="296" on="1"/>
        <pt x="696" y="173" on="0"/>
        <pt x="610" y="87" on="1"/>
        <pt x="523" y="0" on="0"/>
        <pt x="401" y="0" on="1"/>
        <pt x="285" y="0" on="1"/>
        <pt x="247" y="0" on="0"/>
        <pt x="195" y="52" on="0"/>
        <pt x="195" y="127" on="0"/>
        <pt x="247" y="181" on="0"/>
        <pt x="285" y="181" on="1"/>
        <pt x="342" y="181" on="1"/>
        <pt x="391" y="181" on="0"/>
        <pt x="417" y="206" on="1"/>
        <pt x="460" y="247" on="0"/>
        <pt x="460" y="298" on="1"/>
        <pt x="460" y="433" on="1"/>
        <pt x="390" y="433" on="1"/>
        <pt x="355" y="433" on="0"/>
      </contour>
      <contour>
        <pt x="1033" y="1599" on="1"/>
        <pt x="1046" y="1575" on="0"/>
        <pt x="1046" y="1531" on="0"/>
        <pt x="1012" y="1493" on="0"/>
        <pt x="992" y="1493" on="1"/>
        <pt x="952" y="1493" on="0"/>
        <pt x="932" y="1513" on="1"/>
        <pt x="801" y="1647" on="1"/>
        <pt x="670" y="1513" on="1"/>
        <pt x="650" y="1493" on="0"/>
        <pt x="590" y="1493" on="0"/>
        <pt x="556" y="1531" on="0"/>
        <pt x="556" y="1575" on="0"/>
        <pt x="569" y="1599" on="1"/>
        <pt x="689" y="1812" on="1"/>
        <pt x="731" y="1888" on="0"/>
        <pt x="802" y="1888" on="1"/>
        <pt x="867" y="1888" on="0"/>
        <pt x="913" y="1812" on="1"/>
      </contour>
    </TTGlyph>
    <TTGlyph name="I" xMin="30" yMin="0" xMax="662" yMax="1359">
      <contour>
        <pt x="267" y="1003" on="1"/>
        <pt x="267" y="925" on="0"/>
        <pt x="194" y="895" on="1"/>
        <pt x="172" y="886" on="0"/>
        <pt x="123" y="886" on="0"/>
        <pt x="80" y="904" on="0"/>
        <pt x="64" y="920" on="1"/>
        <pt x="30" y="954" on="0"/>
        <pt x="30" y="1003" on="1"/>
        <pt x="30" y="1063" on="1"/>
        <pt x="30" y="1186" on="0"/>
        <pt x="118" y="1272" on="1"/>
        <pt x="206" y="1359" on="0"/>
        <pt x="326" y="1359" on="1"/>
        <pt x="544" y="1359" on="1"/>
        <pt x="593" y="1359" on="0"/>
        <pt x="618" y="1334" on="1"/>
        <pt x="662" y="1290" on="0"/>
        <pt x="662" y="1239" on="1"/>
        <pt x="662" y="296" on="1"/>
        <pt x="662" y="173" on="0"/>
        <pt x="576" y="87" on="1"/>
        <pt x="489" y="0" on="0"/>
        <pt x="367" y="0" on="1"/>
        <pt x="251" y="0" on="1"/>
        <pt x="213" y="0" on="0"/>
        <pt x="161" y="52" on="0"/>
        <pt x="161" y="127" on="0"/>
        <pt x="213" y="181" on="0"/>
        <pt x="251" y="181" on="1"/>
        <pt x="308" y="181" on="1"/>
        <pt x="357" y="181" on="0"/>
        <pt x="383" y="206" on="1"/>
        <pt x="426" y="247" on="0"/>
        <pt x="426" y="298" on="1"/>
        <pt x="426" y="1179" on="1"/>
        <pt x="381" y="1179" on="1"/>
        <pt x="333" y="1179" on="0"/>
        <pt x="308" y="1153" on="1"/>
        <pt x="267" y="1109" on="0"/>
        <pt x="267" y="1060" on="1"/>
      </contour>
    </TTGlyph>
    <TTGlyph name="IJ" xMin="156" yMin="0" xMax="865" yMax="1360">
      <contour>
        <pt x="678" y="1341" on="0"/>
        <pt x="721" y="1360" on="0"/>
        <pt x="770" y="1360" on="0"/>
        <pt x="814" y="1341" on="0"/>
        <pt x="830" y="1326" on="1"/>
        <pt x="865" y="1292" on="0"/>
        <pt x="865" y="1243" on="1"/>
        <pt x="865" y="296" on="1"/>
        <pt x="865" y="173" on="0"/>
        <pt x="778" y="87" on="1"/>
        <pt x="689" y="0" on="0"/>
        <pt x="568" y="0" on="1"/>
        <pt x="276" y="0" on="1"/>
        <pt x="238" y="0" on="0"/>
        <pt x="185" y="52" on="0"/>
        <pt x="185" y="90" on="1"/>
        <pt x="185" y="128" on="0"/>
        <pt x="238" y="181" on="0"/>
        <pt x="276" y="181" on="1"/>
        <pt x="509" y="181" on="1"/>
        <pt x="559" y="181" on="0"/>
        <pt x="584" y="206" on="1"/>
        <pt x="627" y="249" on="0"/>
        <pt x="627" y="298" on="1"/>
        <pt x="627" y="435" on="1"/>
        <pt x="627" y="454" on="0"/>
        <pt x="606" y="467" on="0"/>
        <pt x="586" y="467" on="0"/>
        <pt x="578" y="458" on="1"/>
        <pt x="561" y="442" on="1"/>
        <pt x="493" y="374" on="0"/>
        <pt x="406" y="374" on="1"/>
        <pt x="299" y="374" on="0"/>
        <pt x="227" y="461" on="1"/>
        <pt x="156" y="547" on="0"/>
        <pt x="156" y="670" on="1"/>
        <pt x="156" y="1243" on="1"/>
        <pt x="156" y="1319" on="0"/>
        <pt x="228" y="1350" on="1"/>
        <pt x="249" y="1360" on="0"/>
        <pt x="298" y="1360" on="0"/>
        <pt x="342" y="1341" on="0"/>
        <pt x="358" y="1326" on="1"/>
        <pt x="393" y="1292" on="0"/>
        <pt x="393" y="1243" on="1"/>
        <pt x="393" y="673" on="1"/>
        <pt x="393" y="624" on="0"/>
        <pt x="418" y="598" on="1"/>
        <pt x="460" y="554" on="0"/>
        <pt x="533" y="554" on="0"/>
        <pt x="575" y="569" on="0"/>
        <pt x="592" y="583" on="1"/>
        <pt x="627" y="613" on="0"/>
        <pt x="627" y="661" on="1"/>
        <pt x="627" y="1243" on="1"/>
        <pt x="627" y="1292" on="0"/>
      </contour>
    </TTGlyph>
    <TTGlyph name="Iacute" xMin="30" yMin="0" xMax="767" yMax="1886">
      <contour>
        <pt x="267" y="1003" on="1"/>
        <pt x="267" y="925" on="0"/>
        <pt x="194" y="895" on="1"/>
        <pt x="172" y="886" on="0"/>
        <pt x="123" y="886" on="0"/>
        <pt x="80" y="904" on="0"/>
        <pt x="64" y="920" on="1"/>
        <pt x="30" y="954" on="0"/>
        <pt x="30" y="1003" on="1"/>
        <pt x="30" y="1063" on="1"/>
        <pt x="30" y="1186" on="0"/>
        <pt x="118" y="1272" on="1"/>
        <pt x="206" y="1359" on="0"/>
        <pt x="326" y="1359" on="1"/>
        <pt x="544" y="1359" on="1"/>
        <pt x="593" y="1359" on="0"/>
        <pt x="618" y="1334" on="1"/>
        <pt x="662" y="1290" on="0"/>
        <pt x="662" y="1239" on="1"/>
        <pt x="662" y="296" on="1"/>
        <pt x="662" y="173" on="0"/>
        <pt x="576" y="87" on="1"/>
        <pt x="489" y="0" on="0"/>
        <pt x="367" y="0" on="1"/>
        <pt x="251" y="0" on="1"/>
        <pt x="213" y="0" on="0"/>
        <pt x="161" y="52" on="0"/>
        <pt x="161" y="127" on="0"/>
        <pt x="213" y="181" on="0"/>
        <pt x="251" y="181" on="1"/>
        <pt x="308" y="181" on="1"/>
        <pt x="357" y="181" on="0"/>
        <pt x="383" y="206" on="1"/>
        <pt x="426" y="247" on="0"/>
        <pt x="426" y="298" on="1"/>
        <pt x="426" y="1179" on="1"/>
        <pt x="381" y="1179" on="1"/>
        <pt x="333" y="1179" on="0"/>
        <pt x="308" y="1153" on="1"/>
        <pt x="267" y="1109" on="0"/>
        <pt x="267" y="1060" on="1"/>
      </contour>
      <contour>
        <pt x="547" y="1820" on="1"/>
        <pt x="595" y="1886" on="0"/>
        <pt x="658" y="1886" on="1"/>
        <pt x="700" y="1886" on="0"/>
        <pt x="725" y="1860" on="1"/>
        <pt x="767" y="1819" on="0"/>
        <pt x="767" y="1781" on="1"/>
        <pt x="767" y="1705" on="0"/>
        <pt x="704" y="1662" on="1"/>
        <pt x="484" y="1508" on="1"/>
        <pt x="460" y="1492" on="0"/>
        <pt x="441" y="1492" on="1"/>
        <pt x="407" y="1492" on="0"/>
        <pt x="373" y="1528" on="0"/>
        <pt x="373" y="1579" on="0"/>
        <pt x="390" y="1602" on="1"/>
      </contour>
    </TTGlyph>
    <TTGlyph name="Ibreve" xMin="30" yMin="0" xMax="792" yMax="1879">
      <contour>
        <pt x="267" y="1003" on="1"/>
        <pt x="267" y="925" on="0"/>
        <pt x="194" y="895" on="1"/>
        <pt x="172" y="886" on="0"/>
        <pt x="123" y="886" on="0"/>
        <pt x="80" y="904" on="0"/>
        <pt x="64" y="920" on="1"/>
        <pt x="30" y="954" on="0"/>
        <pt x="30" y="1003" on="1"/>
        <pt x="30" y="1063" on="1"/>
        <pt x="30" y="1186" on="0"/>
        <pt x="118" y="1272" on="1"/>
        <pt x="206" y="1359" on="0"/>
        <pt x="326" y="1359" on="1"/>
        <pt x="544" y="1359" on="1"/>
        <pt x="593" y="1359" on="0"/>
        <pt x="618" y="1334" on="1"/>
        <pt x="662" y="1290" on="0"/>
        <pt x="662" y="1239" on="1"/>
        <pt x="662" y="296" on="1"/>
        <pt x="662" y="173" on="0"/>
        <pt x="576" y="87" on="1"/>
        <pt x="489" y="0" on="0"/>
        <pt x="367" y="0" on="1"/>
        <pt x="251" y="0" on="1"/>
        <pt x="213" y="0" on="0"/>
        <pt x="161" y="52" on="0"/>
        <pt x="161" y="127" on="0"/>
        <pt x="213" y="181" on="0"/>
        <pt x="251" y="181" on="1"/>
        <pt x="308" y="181" on="1"/>
        <pt x="357" y="181" on="0"/>
        <pt x="383" y="206" on="1"/>
        <pt x="426" y="247" on="0"/>
        <pt x="426" y="298" on="1"/>
        <pt x="426" y="1179" on="1"/>
        <pt x="381" y="1179" on="1"/>
        <pt x="333" y="1179" on="0"/>
        <pt x="308" y="1153" on="1"/>
        <pt x="267" y="1109" on="0"/>
        <pt x="267" y="1060" on="1"/>
      </contour>
      <contour>
        <pt x="511" y="1686" on="1"/>
        <pt x="613" y="1686" on="0"/>
        <pt x="649" y="1768" on="1"/>
        <pt x="659" y="1790" on="0"/>
        <pt x="659" y="1843" on="0"/>
        <pt x="699" y="1879" on="0"/>
        <pt x="749" y="1879" on="0"/>
        <pt x="792" y="1846" on="0"/>
        <pt x="792" y="1742" on="0"/>
        <pt x="757" y="1643" on="0"/>
        <pt x="703" y="1575" on="0"/>
        <pt x="636" y="1535" on="0"/>
        <pt x="605" y="1524" on="1"/>
        <pt x="554" y="1506" on="0"/>
        <pt x="511" y="1506" on="1"/>
        <pt x="435" y="1506" on="0"/>
        <pt x="352" y="1555" on="1"/>
        <pt x="281" y="1598" on="0"/>
        <pt x="248" y="1692" on="1"/>
        <pt x="230" y="1742" on="0"/>
        <pt x="230" y="1846" on="0"/>
        <pt x="273" y="1879" on="0"/>
        <pt x="323" y="1879" on="0"/>
        <pt x="363" y="1843" on="0"/>
        <pt x="363" y="1790" on="0"/>
        <pt x="383" y="1745" on="0"/>
        <pt x="402" y="1727" on="1"/>
        <pt x="444" y="1686" on="0"/>
      </contour>
    </TTGlyph>
    <TTGlyph name="Icircumflex" xMin="30" yMin="0" xMax="755" yMax="1888">
      <contour>
        <pt x="267" y="1003" on="1"/>
        <pt x="267" y="925" on="0"/>
        <pt x="194" y="895" on="1"/>
        <pt x="172" y="886" on="0"/>
        <pt x="123" y="886" on="0"/>
        <pt x="80" y="904" on="0"/>
        <pt x="64" y="920" on="1"/>
        <pt x="30" y="954" on="0"/>
        <pt x="30" y="1003" on="1"/>
        <pt x="30" y="1063" on="1"/>
        <pt x="30" y="1186" on="0"/>
        <pt x="118" y="1272" on="1"/>
        <pt x="206" y="1359" on="0"/>
        <pt x="326" y="1359" on="1"/>
        <pt x="544" y="1359" on="1"/>
        <pt x="593" y="1359" on="0"/>
        <pt x="618" y="1334" on="1"/>
        <pt x="662" y="1290" on="0"/>
        <pt x="662" y="1239" on="1"/>
        <pt x="662" y="296" on="1"/>
        <pt x="662" y="173" on="0"/>
        <pt x="576" y="87" on="1"/>
        <pt x="489" y="0" on="0"/>
        <pt x="367" y="0" on="1"/>
        <pt x="251" y="0" on="1"/>
        <pt x="213" y="0" on="0"/>
        <pt x="161" y="52" on="0"/>
        <pt x="161" y="127" on="0"/>
        <pt x="213" y="181" on="0"/>
        <pt x="251" y="181" on="1"/>
        <pt x="308" y="181" on="1"/>
        <pt x="357" y="181" on="0"/>
        <pt x="383" y="206" on="1"/>
        <pt x="426" y="247" on="0"/>
        <pt x="426" y="298" on="1"/>
        <pt x="426" y="1179" on="1"/>
        <pt x="381" y="1179" on="1"/>
        <pt x="333" y="1179" on="0"/>
        <pt x="308" y="1153" on="1"/>
        <pt x="267" y="1109" on="0"/>
        <pt x="267" y="1060" on="1"/>
      </contour>
      <contour>
        <pt x="742" y="1599" on="1"/>
        <pt x="755" y="1575" on="0"/>
        <pt x="755" y="1531" on="0"/>
        <pt x="721" y="1493" on="0"/>
        <pt x="701" y="1493" on="1"/>
        <pt x="661" y="1493" on="0"/>
        <pt x="641" y="1513" on="1"/>
        <pt x="510" y="1647" on="1"/>
        <pt x="379" y="1513" on="1"/>
        <pt x="359" y="1493" on="0"/>
        <pt x="299" y="1493" on="0"/>
        <pt x="265" y="1531" on="0"/>
        <pt x="265" y="1575" on="0"/>
        <pt x="278" y="1599" on="1"/>
        <pt x="398" y="1812" on="1"/>
        <pt x="440" y="1888" on="0"/>
        <pt x="511" y="1888" on="1"/>
        <pt x="576" y="1888" on="0"/>
        <pt x="622" y="1812" on="1"/>
      </contour>
    </TTGlyph>
    <TTGlyph name="Idieresis" xMin="30" yMin="0" xMax="848" yMax="1778">
      <contour>
        <pt x="267" y="1003" on="1"/>
        <pt x="267" y="925" on="0"/>
        <pt x="194" y="895" on="1"/>
        <pt x="172" y="886" on="0"/>
        <pt x="123" y="886" on="0"/>
        <pt x="80" y="904" on="0"/>
        <pt x="64" y="920" on="1"/>
        <pt x="30" y="954" on="0"/>
        <pt x="30" y="1003" on="1"/>
        <pt x="30" y="1063" on="1"/>
        <pt x="30" y="1186" on="0"/>
        <pt x="118" y="1272" on="1"/>
        <pt x="206" y="1359" on="0"/>
        <pt x="326" y="1359" on="1"/>
        <pt x="544" y="1359" on="1"/>
        <pt x="593" y="1359" on="0"/>
        <pt x="618" y="1334" on="1"/>
        <pt x="662" y="1290" on="0"/>
        <pt x="662" y="1239" on="1"/>
        <pt x="662" y="296" on="1"/>
        <pt x="662" y="173" on="0"/>
        <pt x="576" y="87" on="1"/>
        <pt x="489" y="0" on="0"/>
        <pt x="367" y="0" on="1"/>
        <pt x="251" y="0" on="1"/>
        <pt x="213" y="0" on="0"/>
        <pt x="161" y="52" on="0"/>
        <pt x="161" y="127" on="0"/>
        <pt x="213" y="181" on="0"/>
        <pt x="251" y="181" on="1"/>
        <pt x="308" y="181" on="1"/>
        <pt x="357" y="181" on="0"/>
        <pt x="383" y="206" on="1"/>
        <pt x="426" y="247" on="0"/>
        <pt x="426" y="298" on="1"/>
        <pt x="426" y="1179" on="1"/>
        <pt x="381" y="1179" on="1"/>
        <pt x="333" y="1179" on="0"/>
        <pt x="308" y="1153" on="1"/>
        <pt x="267" y="1109" on="0"/>
        <pt x="267" y="1060" on="1"/>
      </contour>
      <contour>
        <pt x="298" y="1778" on="1"/>
        <pt x="353" y="1778" on="0"/>
        <pt x="392" y="1738" on="1"/>
        <pt x="433" y="1698" on="0"/>
        <pt x="433" y="1616" on="0"/>
        <pt x="411" y="1568" on="0"/>
        <pt x="392" y="1550" on="1"/>
        <pt x="353" y="1510" on="0"/>
        <pt x="298" y="1510" on="1"/>
        <pt x="243" y="1510" on="0"/>
        <pt x="204" y="1550" on="1"/>
        <pt x="163" y="1590" on="0"/>
        <pt x="163" y="1630" on="1"/>
        <pt x="163" y="1698" on="0"/>
        <pt x="243" y="1778" on="0"/>
      </contour>
      <contour>
        <pt x="600" y="1568" on="0"/>
        <pt x="579" y="1616" on="0"/>
        <pt x="579" y="1671" on="0"/>
        <pt x="600" y="1720" on="0"/>
        <pt x="618" y="1738" on="1"/>
        <pt x="658" y="1778" on="0"/>
        <pt x="741" y="1778" on="0"/>
        <pt x="790" y="1757" on="0"/>
        <pt x="808" y="1738" on="1"/>
        <pt x="848" y="1699" on="0"/>
        <pt x="848" y="1616" on="0"/>
        <pt x="827" y="1568" on="0"/>
        <pt x="808" y="1550" on="1"/>
        <pt x="769" y="1510" on="0"/>
        <pt x="686" y="1510" on="0"/>
        <pt x="637" y="1531" on="0"/>
      </contour>
    </TTGlyph>
    <TTGlyph name="Idotaccent" xMin="30" yMin="0" xMax="662" yMax="1778">
      <contour>
        <pt x="267" y="1003" on="1"/>
        <pt x="267" y="925" on="0"/>
        <pt x="194" y="895" on="1"/>
        <pt x="172" y="886" on="0"/>
        <pt x="123" y="886" on="0"/>
        <pt x="80" y="904" on="0"/>
        <pt x="64" y="920" on="1"/>
        <pt x="30" y="954" on="0"/>
        <pt x="30" y="1003" on="1"/>
        <pt x="30" y="1063" on="1"/>
        <pt x="30" y="1186" on="0"/>
        <pt x="118" y="1272" on="1"/>
        <pt x="206" y="1359" on="0"/>
        <pt x="326" y="1359" on="1"/>
        <pt x="544" y="1359" on="1"/>
        <pt x="593" y="1359" on="0"/>
        <pt x="618" y="1334" on="1"/>
        <pt x="662" y="1290" on="0"/>
        <pt x="662" y="1239" on="1"/>
        <pt x="662" y="296" on="1"/>
        <pt x="662" y="173" on="0"/>
        <pt x="576" y="87" on="1"/>
        <pt x="489" y="0" on="0"/>
        <pt x="367" y="0" on="1"/>
        <pt x="251" y="0" on="1"/>
        <pt x="213" y="0" on="0"/>
        <pt x="161" y="52" on="0"/>
        <pt x="161" y="127" on="0"/>
        <pt x="213" y="181" on="0"/>
        <pt x="251" y="181" on="1"/>
        <pt x="308" y="181" on="1"/>
        <pt x="357" y="181" on="0"/>
        <pt x="383" y="206" on="1"/>
        <pt x="426" y="247" on="0"/>
        <pt x="426" y="298" on="1"/>
        <pt x="426" y="1179" on="1"/>
        <pt x="381" y="1179" on="1"/>
        <pt x="333" y="1179" on="0"/>
        <pt x="308" y="1153" on="1"/>
        <pt x="267" y="1109" on="0"/>
        <pt x="267" y="1060" on="1"/>
      </contour>
      <contour>
        <pt x="511" y="1778" on="1"/>
        <pt x="566" y="1778" on="0"/>
        <pt x="606" y="1738" on="1"/>
        <pt x="646" y="1698" on="0"/>
        <pt x="646" y="1616" on="0"/>
        <pt x="624" y="1568" on="0"/>
        <pt x="606" y="1550" on="1"/>
        <pt x="566" y="1510" on="0"/>
        <pt x="511" y="1510" on="1"/>
        <pt x="456" y="1510" on="0"/>
        <pt x="416" y="1550" on="1"/>
        <pt x="376" y="1590" on="0"/>
        <pt x="376" y="1630" on="1"/>
        <pt x="376" y="1698" on="0"/>
        <pt x="456" y="1778" on="0"/>
      </contour>
    </TTGlyph>
    <TTGlyph name="Igrave" xMin="30" yMin="0" xMax="662" yMax="1886">
      <contour>
        <pt x="267" y="1003" on="1"/>
        <pt x="267" y="925" on="0"/>
        <pt x="194" y="895" on="1"/>
        <pt x="172" y="886" on="0"/>
        <pt x="123" y="886" on="0"/>
        <pt x="80" y="904" on="0"/>
        <pt x="64" y="920" on="1"/>
        <pt x="30" y="954" on="0"/>
        <pt x="30" y="1003" on="1"/>
        <pt x="30" y="1063" on="1"/>
        <pt x="30" y="1186" on="0"/>
        <pt x="118" y="1272" on="1"/>
        <pt x="206" y="1359" on="0"/>
        <pt x="326" y="1359" on="1"/>
        <pt x="544" y="1359" on="1"/>
        <pt x="593" y="1359" on="0"/>
        <pt x="618" y="1334" on="1"/>
        <pt x="662" y="1290" on="0"/>
        <pt x="662" y="1239" on="1"/>
        <pt x="662" y="296" on="1"/>
        <pt x="662" y="173" on="0"/>
        <pt x="576" y="87" on="1"/>
        <pt x="489" y="0" on="0"/>
        <pt x="367" y="0" on="1"/>
        <pt x="251" y="0" on="1"/>
        <pt x="213" y="0" on="0"/>
        <pt x="161" y="52" on="0"/>
        <pt x="161" y="127" on="0"/>
        <pt x="213" y="181" on="0"/>
        <pt x="251" y="181" on="1"/>
        <pt x="308" y="181" on="1"/>
        <pt x="357" y="181" on="0"/>
        <pt x="383" y="206" on="1"/>
        <pt x="426" y="247" on="0"/>
        <pt x="426" y="298" on="1"/>
        <pt x="426" y="1179" on="1"/>
        <pt x="381" y="1179" on="1"/>
        <pt x="333" y="1179" on="0"/>
        <pt x="308" y="1153" on="1"/>
        <pt x="267" y="1109" on="0"/>
        <pt x="267" y="1060" on="1"/>
      </contour>
      <contour>
        <pt x="631" y="1602" on="1"/>
        <pt x="648" y="1579" on="0"/>
        <pt x="648" y="1528" on="0"/>
        <pt x="635" y="1514" on="1"/>
        <pt x="613" y="1492" on="0"/>
        <pt x="561" y="1492" on="0"/>
        <pt x="537" y="1508" on="1"/>
        <pt x="317" y="1662" on="1"/>
        <pt x="254" y="1705" on="0"/>
        <pt x="254" y="1775" on="1"/>
        <pt x="254" y="1819" on="0"/>
        <pt x="279" y="1844" on="1"/>
        <pt x="321" y="1886" on="0"/>
        <pt x="358" y="1886" on="1"/>
        <pt x="426" y="1886" on="0"/>
        <pt x="474" y="1820" on="1"/>
      </contour>
    </TTGlyph>
    <TTGlyph name="Imacron" xMin="30" yMin="0" xMax="799" yMax="1736">
      <contour>
        <pt x="267" y="1003" on="1"/>
        <pt x="267" y="925" on="0"/>
        <pt x="194" y="895" on="1"/>
        <pt x="172" y="886" on="0"/>
        <pt x="123" y="886" on="0"/>
        <pt x="80" y="904" on="0"/>
        <pt x="64" y="920" on="1"/>
        <pt x="30" y="954" on="0"/>
        <pt x="30" y="1003" on="1"/>
        <pt x="30" y="1063" on="1"/>
        <pt x="30" y="1186" on="0"/>
        <pt x="118" y="1272" on="1"/>
        <pt x="206" y="1359" on="0"/>
        <pt x="326" y="1359" on="1"/>
        <pt x="544" y="1359" on="1"/>
        <pt x="593" y="1359" on="0"/>
        <pt x="618" y="1334" on="1"/>
        <pt x="662" y="1290" on="0"/>
        <pt x="662" y="1239" on="1"/>
        <pt x="662" y="296" on="1"/>
        <pt x="662" y="173" on="0"/>
        <pt x="576" y="87" on="1"/>
        <pt x="489" y="0" on="0"/>
        <pt x="367" y="0" on="1"/>
        <pt x="251" y="0" on="1"/>
        <pt x="213" y="0" on="0"/>
        <pt x="161" y="52" on="0"/>
        <pt x="161" y="127" on="0"/>
        <pt x="213" y="181" on="0"/>
        <pt x="251" y="181" on="1"/>
        <pt x="308" y="181" on="1"/>
        <pt x="357" y="181" on="0"/>
        <pt x="383" y="206" on="1"/>
        <pt x="426" y="247" on="0"/>
        <pt x="426" y="298" on="1"/>
        <pt x="426" y="1179" on="1"/>
        <pt x="381" y="1179" on="1"/>
        <pt x="333" y="1179" on="0"/>
        <pt x="308" y="1153" on="1"/>
        <pt x="267" y="1109" on="0"/>
        <pt x="267" y="1060" on="1"/>
      </contour>
      <contour>
        <pt x="785" y="1697" on="0"/>
        <pt x="799" y="1664" on="0"/>
        <pt x="799" y="1627" on="0"/>
        <pt x="785" y="1594" on="0"/>
        <pt x="773" y="1582" on="1"/>
        <pt x="748" y="1555" on="0"/>
        <pt x="711" y="1555" on="1"/>
        <pt x="308" y="1555" on="1"/>
        <pt x="273" y="1555" on="0"/>
        <pt x="254" y="1574" on="1"/>
        <pt x="220" y="1608" on="0"/>
        <pt x="220" y="1664" on="0"/>
        <pt x="234" y="1697" on="0"/>
        <pt x="246" y="1710" on="1"/>
        <pt x="271" y="1736" on="0"/>
        <pt x="308" y="1736" on="1"/>
        <pt x="711" y="1736" on="1"/>
        <pt x="746" y="1736" on="0"/>
      </contour>
    </TTGlyph>
    <TTGlyph name="Iogonek" xMin="30" yMin="-438" xMax="662" yMax="1359">
      <contour>
        <pt x="428" y="-58" on="1"/>
        <pt x="372" y="-122" on="1"/>
        <pt x="322" y="-183" on="0"/>
        <pt x="322" y="-218" on="1"/>
        <pt x="322" y="-290" on="0"/>
        <pt x="395" y="-290" on="1"/>
        <pt x="468" y="-290" on="1"/>
        <pt x="497" y="-290" on="0"/>
        <pt x="540" y="-333" on="0"/>
        <pt x="540" y="-394" on="0"/>
        <pt x="498" y="-438" on="0"/>
        <pt x="468" y="-438" on="1"/>
        <pt x="326" y="-438" on="1"/>
        <pt x="213" y="-438" on="0"/>
        <pt x="106" y="-349" on="0"/>
        <pt x="106" y="-275" on="1"/>
        <pt x="106" y="-218" on="0"/>
        <pt x="188" y="-109" on="0"/>
        <pt x="222" y="-74" on="1"/>
        <pt x="295" y="0" on="1"/>
        <pt x="251" y="0" on="1"/>
        <pt x="213" y="0" on="0"/>
        <pt x="161" y="52" on="0"/>
        <pt x="161" y="127" on="0"/>
        <pt x="213" y="181" on="0"/>
        <pt x="251" y="181" on="1"/>
        <pt x="308" y="181" on="1"/>
        <pt x="357" y="181" on="0"/>
        <pt x="383" y="206" on="1"/>
        <pt x="426" y="247" on="0"/>
        <pt x="426" y="298" on="1"/>
        <pt x="426" y="1179" on="1"/>
        <pt x="381" y="1179" on="1"/>
        <pt x="333" y="1179" on="0"/>
        <pt x="308" y="1153" on="1"/>
        <pt x="267" y="1109" on="0"/>
        <pt x="267" y="1060" on="1"/>
        <pt x="267" y="1003" on="1"/>
        <pt x="267" y="925" on="0"/>
        <pt x="194" y="895" on="1"/>
        <pt x="172" y="886" on="0"/>
        <pt x="123" y="886" on="0"/>
        <pt x="80" y="904" on="0"/>
        <pt x="64" y="920" on="1"/>
        <pt x="30" y="954" on="0"/>
        <pt x="30" y="1003" on="1"/>
        <pt x="30" y="1063" on="1"/>
        <pt x="30" y="1186" on="0"/>
        <pt x="118" y="1272" on="1"/>
        <pt x="206" y="1359" on="0"/>
        <pt x="326" y="1359" on="1"/>
        <pt x="544" y="1359" on="1"/>
        <pt x="593" y="1359" on="0"/>
        <pt x="618" y="1334" on="1"/>
        <pt x="662" y="1290" on="0"/>
        <pt x="662" y="1239" on="1"/>
        <pt x="662" y="296" on="1"/>
        <pt x="662" y="167" on="0"/>
        <pt x="568" y="78" on="1"/>
        <pt x="538" y="51" on="0"/>
        <pt x="502" y="33" on="1"/>
        <pt x="462" y="-18" on="0"/>
      </contour>
    </TTGlyph>
    <TTGlyph name="Itilde" xMin="30" yMin="0" xMax="848" yMax="1812">
      <contour>
        <pt x="267" y="1003" on="1"/>
        <pt x="267" y="925" on="0"/>
        <pt x="194" y="895" on="1"/>
        <pt x="172" y="886" on="0"/>
        <pt x="123" y="886" on="0"/>
        <pt x="80" y="904" on="0"/>
        <pt x="64" y="920" on="1"/>
        <pt x="30" y="954" on="0"/>
        <pt x="30" y="1003" on="1"/>
        <pt x="30" y="1063" on="1"/>
        <pt x="30" y="1186" on="0"/>
        <pt x="118" y="1272" on="1"/>
        <pt x="206" y="1359" on="0"/>
        <pt x="326" y="1359" on="1"/>
        <pt x="544" y="1359" on="1"/>
        <pt x="593" y="1359" on="0"/>
        <pt x="618" y="1334" on="1"/>
        <pt x="662" y="1290" on="0"/>
        <pt x="662" y="1239" on="1"/>
        <pt x="662" y="296" on="1"/>
        <pt x="662" y="173" on="0"/>
        <pt x="576" y="87" on="1"/>
        <pt x="489" y="0" on="0"/>
        <pt x="367" y="0" on="1"/>
        <pt x="251" y="0" on="1"/>
        <pt x="213" y="0" on="0"/>
        <pt x="161" y="52" on="0"/>
        <pt x="161" y="127" on="0"/>
        <pt x="213" y="181" on="0"/>
        <pt x="251" y="181" on="1"/>
        <pt x="308" y="181" on="1"/>
        <pt x="357" y="181" on="0"/>
        <pt x="383" y="206" on="1"/>
        <pt x="426" y="247" on="0"/>
        <pt x="426" y="298" on="1"/>
        <pt x="426" y="1179" on="1"/>
        <pt x="381" y="1179" on="1"/>
        <pt x="333" y="1179" on="0"/>
        <pt x="308" y="1153" on="1"/>
        <pt x="267" y="1109" on="0"/>
        <pt x="267" y="1060" on="1"/>
      </contour>
      <contour>
        <pt x="744" y="1767" on="1"/>
        <pt x="764" y="1784" on="0"/>
        <pt x="815" y="1784" on="0"/>
        <pt x="848" y="1748" on="0"/>
        <pt x="848" y="1696" on="0"/>
        <pt x="807" y="1636" on="0"/>
        <pt x="758" y="1578" on="0"/>
        <pt x="729" y="1556" on="1"/>
        <pt x="669" y="1511" on="0"/>
        <pt x="537" y="1511" on="0"/>
        <pt x="455" y="1569" on="0"/>
        <pt x="435" y="1592" on="1"/>
        <pt x="409" y="1624" on="1"/>
        <pt x="402" y="1631" on="0"/>
        <pt x="393" y="1631" on="1"/>
        <pt x="382" y="1631" on="0"/>
        <pt x="355" y="1608" on="1"/>
        <pt x="293" y="1556" on="1"/>
        <pt x="273" y="1539" on="0"/>
        <pt x="222" y="1539" on="0"/>
        <pt x="189" y="1575" on="0"/>
        <pt x="189" y="1627" on="0"/>
        <pt x="229" y="1687" on="0"/>
        <pt x="278" y="1746" on="0"/>
        <pt x="307" y="1767" on="1"/>
        <pt x="368" y="1812" on="0"/>
        <pt x="442" y="1812" on="1"/>
        <pt x="521" y="1812" on="0"/>
        <pt x="579" y="1752" on="1"/>
        <pt x="614" y="1715" on="1"/>
        <pt x="622" y="1707" on="0"/>
        <pt x="635" y="1692" on="0"/>
        <pt x="644" y="1692" on="1"/>
        <pt x="655" y="1692" on="0"/>
        <pt x="682" y="1715" on="1"/>
      </contour>
    </TTGlyph>
    <TTGlyph name="J" xMin="49" yMin="-474" xMax="672" yMax="1359">
      <contour>
        <pt x="436" y="1179" on="1"/>
        <pt x="405" y="1179" on="1"/>
        <pt x="355" y="1179" on="0"/>
        <pt x="330" y="1154" on="1"/>
        <pt x="286" y="1110" on="0"/>
        <pt x="286" y="1060" on="1"/>
        <pt x="286" y="1003" on="1"/>
        <pt x="286" y="925" on="0"/>
        <pt x="213" y="895" on="1"/>
        <pt x="191" y="886" on="0"/>
        <pt x="142" y="886" on="0"/>
        <pt x="99" y="904" on="0"/>
        <pt x="84" y="920" on="1"/>
        <pt x="49" y="954" on="0"/>
        <pt x="49" y="1003" on="1"/>
        <pt x="49" y="1063" on="1"/>
        <pt x="49" y="1186" on="0"/>
        <pt x="136" y="1272" on="1"/>
        <pt x="225" y="1359" on="0"/>
        <pt x="345" y="1359" on="1"/>
        <pt x="554" y="1359" on="1"/>
        <pt x="603" y="1359" on="0"/>
        <pt x="628" y="1334" on="1"/>
        <pt x="672" y="1290" on="0"/>
        <pt x="672" y="1239" on="1"/>
        <pt x="672" y="-178" on="1"/>
        <pt x="672" y="-300" on="0"/>
        <pt x="498" y="-474" on="0"/>
        <pt x="375" y="-474" on="1"/>
        <pt x="219" y="-474" on="1"/>
        <pt x="161" y="-474" on="0"/>
        <pt x="136" y="-420" on="1"/>
        <pt x="129" y="-403" on="0"/>
        <pt x="129" y="-384" on="1"/>
        <pt x="129" y="-348" on="0"/>
        <pt x="148" y="-327" on="1"/>
        <pt x="181" y="-293" on="0"/>
        <pt x="219" y="-293" on="1"/>
        <pt x="317" y="-293" on="1"/>
        <pt x="367" y="-293" on="0"/>
        <pt x="392" y="-268" on="1"/>
        <pt x="436" y="-224" on="0"/>
        <pt x="436" y="-176" on="1"/>
      </contour>
    </TTGlyph>
    <TTGlyph name="Jcircumflex" xMin="49" yMin="-474" xMax="755" yMax="1888">
      <contour>
        <pt x="436" y="1179" on="1"/>
        <pt x="405" y="1179" on="1"/>
        <pt x="355" y="1179" on="0"/>
        <pt x="330" y="1154" on="1"/>
        <pt x="286" y="1110" on="0"/>
        <pt x="286" y="1060" on="1"/>
        <pt x="286" y="1003" on="1"/>
        <pt x="286" y="925" on="0"/>
        <pt x="213" y="895" on="1"/>
        <pt x="191" y="886" on="0"/>
        <pt x="142" y="886" on="0"/>
        <pt x="99" y="904" on="0"/>
        <pt x="84" y="920" on="1"/>
        <pt x="49" y="954" on="0"/>
        <pt x="49" y="1003" on="1"/>
        <pt x="49" y="1063" on="1"/>
        <pt x="49" y="1186" on="0"/>
        <pt x="136" y="1272" on="1"/>
        <pt x="225" y="1359" on="0"/>
        <pt x="345" y="1359" on="1"/>
        <pt x="554" y="1359" on="1"/>
        <pt x="603" y="1359" on="0"/>
        <pt x="628" y="1334" on="1"/>
        <pt x="672" y="1290" on="0"/>
        <pt x="672" y="1239" on="1"/>
        <pt x="672" y="-178" on="1"/>
        <pt x="672" y="-300" on="0"/>
        <pt x="498" y="-474" on="0"/>
        <pt x="375" y="-474" on="1"/>
        <pt x="219" y="-474" on="1"/>
        <pt x="161" y="-474" on="0"/>
        <pt x="136" y="-420" on="1"/>
        <pt x="129" y="-403" on="0"/>
        <pt x="129" y="-384" on="1"/>
        <pt x="129" y="-348" on="0"/>
        <pt x="148" y="-327" on="1"/>
        <pt x="181" y="-293" on="0"/>
        <pt x="219" y="-293" on="1"/>
        <pt x="317" y="-293" on="1"/>
        <pt x="367" y="-293" on="0"/>
        <pt x="392" y="-268" on="1"/>
        <pt x="436" y="-224" on="0"/>
        <pt x="436" y="-176" on="1"/>
      </contour>
      <contour>
        <pt x="742" y="1599" on="1"/>
        <pt x="755" y="1575" on="0"/>
        <pt x="755" y="1531" on="0"/>
        <pt x="721" y="1493" on="0"/>
        <pt x="701" y="1493" on="1"/>
        <pt x="661" y="1493" on="0"/>
        <pt x="641" y="1513" on="1"/>
        <pt x="510" y="1647" on="1"/>
        <pt x="379" y="1513" on="1"/>
        <pt x="359" y="1493" on="0"/>
        <pt x="299" y="1493" on="0"/>
        <pt x="265" y="1531" on="0"/>
        <pt x="265" y="1575" on="0"/>
        <pt x="278" y="1599" on="1"/>
        <pt x="398" y="1812" on="1"/>
        <pt x="440" y="1888" on="0"/>
        <pt x="511" y="1888" on="1"/>
        <pt x="576" y="1888" on="0"/>
        <pt x="622" y="1812" on="1"/>
      </contour>
    </TTGlyph>
    <TTGlyph name="K" xMin="44" yMin="-247" xMax="1360" yMax="1359">
      <contour>
        <pt x="1003" y="634" on="1"/>
        <pt x="1151" y="576" on="0"/>
        <pt x="1151" y="414" on="1"/>
        <pt x="1151" y="385" on="1"/>
        <pt x="1151" y="152" on="0"/>
        <pt x="1256" y="17" on="1"/>
        <pt x="1288" y="-25" on="0"/>
        <pt x="1316" y="-56" on="1"/>
        <pt x="1360" y="-105" on="0"/>
        <pt x="1360" y="-147" on="1"/>
        <pt x="1360" y="-213" on="0"/>
        <pt x="1300" y="-239" on="1"/>
        <pt x="1281" y="-247" on="0"/>
        <pt x="1264" y="-247" on="1"/>
        <pt x="1203" y="-247" on="0"/>
        <pt x="1067" y="-123" on="0"/>
        <pt x="1022" y="-43" on="1"/>
        <pt x="913" y="148" on="0"/>
        <pt x="913" y="425" on="1"/>
        <pt x="913" y="474" on="0"/>
        <pt x="888" y="500" on="1"/>
        <pt x="846" y="544" on="0"/>
        <pt x="796" y="544" on="1"/>
        <pt x="679" y="544" on="1"/>
        <pt x="679" y="98" on="1"/>
        <pt x="679" y="50" on="0"/>
        <pt x="654" y="24" on="1"/>
        <pt x="610" y="-19" on="0"/>
        <pt x="536" y="-19" on="0"/>
        <pt x="492" y="0" on="0"/>
        <pt x="476" y="16" on="1"/>
        <pt x="441" y="49" on="0"/>
        <pt x="441" y="98" on="1"/>
        <pt x="441" y="1179" on="1"/>
        <pt x="389" y="1179" on="1"/>
        <pt x="345" y="1179" on="0"/>
        <pt x="321" y="1152" on="1"/>
        <pt x="281" y="1107" on="0"/>
        <pt x="281" y="1060" on="1"/>
        <pt x="281" y="1003" on="1"/>
        <pt x="281" y="925" on="0"/>
        <pt x="208" y="895" on="1"/>
        <pt x="186" y="886" on="0"/>
        <pt x="137" y="886" on="0"/>
        <pt x="94" y="904" on="0"/>
        <pt x="78" y="920" on="1"/>
        <pt x="44" y="954" on="0"/>
        <pt x="44" y="1003" on="1"/>
        <pt x="44" y="1063" on="1"/>
        <pt x="44" y="1185" on="0"/>
        <pt x="218" y="1359" on="0"/>
        <pt x="340" y="1359" on="1"/>
        <pt x="561" y="1359" on="1"/>
        <pt x="611" y="1359" on="0"/>
        <pt x="635" y="1334" on="1"/>
        <pt x="679" y="1288" on="0"/>
        <pt x="679" y="1239" on="1"/>
        <pt x="679" y="724" on="1"/>
        <pt x="795" y="724" on="1"/>
        <pt x="843" y="724" on="0"/>
        <pt x="868" y="750" on="1"/>
        <pt x="912" y="793" on="0"/>
        <pt x="912" y="844" on="1"/>
        <pt x="912" y="1239" on="1"/>
        <pt x="912" y="1288" on="0"/>
        <pt x="938" y="1315" on="1"/>
        <pt x="980" y="1359" on="0"/>
        <pt x="1032" y="1359" on="1"/>
        <pt x="1082" y="1359" on="0"/>
        <pt x="1106" y="1334" on="1"/>
        <pt x="1150" y="1288" on="0"/>
        <pt x="1150" y="1239" on="1"/>
        <pt x="1150" y="886" on="1"/>
        <pt x="1150" y="745" on="0"/>
        <pt x="1063" y="674" on="1"/>
        <pt x="1036" y="652" on="0"/>
      </contour>
    </TTGlyph>
    <TTGlyph name="Kcommaaccent" xMin="44" yMin="-508" xMax="1360" yMax="1359">
      <contour>
        <pt x="1003" y="634" on="1"/>
        <pt x="1151" y="576" on="0"/>
        <pt x="1151" y="414" on="1"/>
        <pt x="1151" y="385" on="1"/>
        <pt x="1151" y="152" on="0"/>
        <pt x="1256" y="17" on="1"/>
        <pt x="1288" y="-25" on="0"/>
        <pt x="1316" y="-56" on="1"/>
        <pt x="1360" y="-105" on="0"/>
        <pt x="1360" y="-147" on="1"/>
        <pt x="1360" y="-213" on="0"/>
        <pt x="1300" y="-239" on="1"/>
        <pt x="1281" y="-247" on="0"/>
        <pt x="1264" y="-247" on="1"/>
        <pt x="1203" y="-247" on="0"/>
        <pt x="1067" y="-123" on="0"/>
        <pt x="1022" y="-43" on="1"/>
        <pt x="913" y="148" on="0"/>
        <pt x="913" y="425" on="1"/>
        <pt x="913" y="474" on="0"/>
        <pt x="888" y="500" on="1"/>
        <pt x="846" y="544" on="0"/>
        <pt x="796" y="544" on="1"/>
        <pt x="679" y="544" on="1"/>
        <pt x="679" y="98" on="1"/>
        <pt x="679" y="50" on="0"/>
        <pt x="654" y="24" on="1"/>
        <pt x="610" y="-19" on="0"/>
        <pt x="536" y="-19" on="0"/>
        <pt x="492" y="0" on="0"/>
        <pt x="476" y="16" on="1"/>
        <pt x="441" y="49" on="0"/>
        <pt x="441" y="98" on="1"/>
        <pt x="441" y="1179" on="1"/>
        <pt x="389" y="1179" on="1"/>
        <pt x="345" y="1179" on="0"/>
        <pt x="321" y="1152" on="1"/>
        <pt x="281" y="1107" on="0"/>
        <pt x="281" y="1060" on="1"/>
        <pt x="281" y="1003" on="1"/>
        <pt x="281" y="925" on="0"/>
        <pt x="208" y="895" on="1"/>
        <pt x="186" y="886" on="0"/>
        <pt x="137" y="886" on="0"/>
        <pt x="94" y="904" on="0"/>
        <pt x="78" y="920" on="1"/>
        <pt x="44" y="954" on="0"/>
        <pt x="44" y="1003" on="1"/>
        <pt x="44" y="1063" on="1"/>
        <pt x="44" y="1185" on="0"/>
        <pt x="218" y="1359" on="0"/>
        <pt x="340" y="1359" on="1"/>
        <pt x="561" y="1359" on="1"/>
        <pt x="611" y="1359" on="0"/>
        <pt x="635" y="1334" on="1"/>
        <pt x="679" y="1288" on="0"/>
        <pt x="679" y="1239" on="1"/>
        <pt x="679" y="724" on="1"/>
        <pt x="795" y="724" on="1"/>
        <pt x="843" y="724" on="0"/>
        <pt x="868" y="750" on="1"/>
        <pt x="912" y="793" on="0"/>
        <pt x="912" y="844" on="1"/>
        <pt x="912" y="1239" on="1"/>
        <pt x="912" y="1288" on="0"/>
        <pt x="938" y="1315" on="1"/>
        <pt x="980" y="1359" on="0"/>
        <pt x="1032" y="1359" on="1"/>
        <pt x="1082" y="1359" on="0"/>
        <pt x="1106" y="1334" on="1"/>
        <pt x="1150" y="1288" on="0"/>
        <pt x="1150" y="1239" on="1"/>
        <pt x="1150" y="886" on="1"/>
        <pt x="1150" y="745" on="0"/>
        <pt x="1063" y="674" on="1"/>
        <pt x="1036" y="652" on="0"/>
      </contour>
      <contour>
        <pt x="751" y="-384" on="0"/>
        <pt x="763" y="-360" on="0"/>
        <pt x="763" y="-310" on="0"/>
        <pt x="740" y="-290" on="1"/>
        <pt x="699" y="-253" on="0"/>
        <pt x="699" y="-179" on="0"/>
        <pt x="717" y="-139" on="0"/>
        <pt x="733" y="-124" on="1"/>
        <pt x="768" y="-93" on="0"/>
        <pt x="847" y="-93" on="0"/>
        <pt x="894" y="-116" on="0"/>
        <pt x="909" y="-136" on="1"/>
        <pt x="938" y="-175" on="0"/>
        <pt x="938" y="-242" on="1"/>
        <pt x="938" y="-378" on="0"/>
        <pt x="866" y="-462" on="1"/>
        <pt x="827" y="-508" on="0"/>
        <pt x="759" y="-508" on="0"/>
        <pt x="725" y="-472" on="0"/>
        <pt x="725" y="-432" on="0"/>
        <pt x="737" y="-408" on="0"/>
      </contour>
    </TTGlyph>
    <TTGlyph name="L" xMin="10" yMin="0" xMax="983" yMax="1359">
      <contour>
        <pt x="360" y="210" on="1"/>
        <pt x="360" y="180" on="0"/>
        <pt x="389" y="180" on="1"/>
        <pt x="638" y="180" on="1"/>
        <pt x="682" y="180" on="0"/>
        <pt x="705" y="206" on="1"/>
        <pt x="746" y="251" on="0"/>
        <pt x="746" y="323" on="0"/>
        <pt x="764" y="365" on="0"/>
        <pt x="780" y="381" on="1"/>
        <pt x="816" y="415" on="0"/>
        <pt x="890" y="415" on="0"/>
        <pt x="933" y="397" on="0"/>
        <pt x="949" y="381" on="1"/>
        <pt x="983" y="347" on="0"/>
        <pt x="983" y="235" on="0"/>
        <pt x="936" y="127" on="0"/>
        <pt x="896" y="87" on="1"/>
        <pt x="809" y="0" on="0"/>
        <pt x="687" y="0" on="1"/>
        <pt x="98" y="0" on="1"/>
        <pt x="63" y="0" on="0"/>
        <pt x="44" y="20" on="1"/>
        <pt x="10" y="53" on="0"/>
        <pt x="10" y="128" on="0"/>
        <pt x="61" y="181" on="0"/>
        <pt x="123" y="181" on="0"/>
        <pt x="166" y="198" on="0"/>
        <pt x="182" y="213" on="1"/>
        <pt x="216" y="245" on="0"/>
        <pt x="216" y="293" on="1"/>
        <pt x="216" y="1063" on="1"/>
        <pt x="216" y="1186" on="0"/>
        <pt x="304" y="1272" on="1"/>
        <pt x="392" y="1359" on="0"/>
        <pt x="512" y="1359" on="1"/>
        <pt x="658" y="1359" on="1"/>
        <pt x="717" y="1359" on="0"/>
        <pt x="741" y="1304" on="1"/>
        <pt x="748" y="1287" on="0"/>
        <pt x="748" y="1231" on="0"/>
        <pt x="696" y="1179" on="0"/>
        <pt x="658" y="1179" on="1"/>
        <pt x="572" y="1179" on="1"/>
        <pt x="522" y="1179" on="0"/>
        <pt x="496" y="1154" on="1"/>
        <pt x="453" y="1110" on="0"/>
        <pt x="453" y="1060" on="1"/>
        <pt x="453" y="402" on="1"/>
        <pt x="453" y="314" on="0"/>
        <pt x="385" y="246" on="1"/>
        <pt x="360" y="224" on="0"/>
      </contour>
    </TTGlyph>
    <TTGlyph name="Lacute" xMin="10" yMin="0" xMax="983" yMax="1886">
      <contour>
        <pt x="360" y="210" on="1"/>
        <pt x="360" y="180" on="0"/>
        <pt x="389" y="180" on="1"/>
        <pt x="638" y="180" on="1"/>
        <pt x="682" y="180" on="0"/>
        <pt x="705" y="206" on="1"/>
        <pt x="746" y="251" on="0"/>
        <pt x="746" y="323" on="0"/>
        <pt x="764" y="365" on="0"/>
        <pt x="780" y="381" on="1"/>
        <pt x="816" y="415" on="0"/>
        <pt x="890" y="415" on="0"/>
        <pt x="933" y="397" on="0"/>
        <pt x="949" y="381" on="1"/>
        <pt x="983" y="347" on="0"/>
        <pt x="983" y="235" on="0"/>
        <pt x="936" y="127" on="0"/>
        <pt x="896" y="87" on="1"/>
        <pt x="809" y="0" on="0"/>
        <pt x="687" y="0" on="1"/>
        <pt x="98" y="0" on="1"/>
        <pt x="63" y="0" on="0"/>
        <pt x="44" y="20" on="1"/>
        <pt x="10" y="53" on="0"/>
        <pt x="10" y="128" on="0"/>
        <pt x="61" y="181" on="0"/>
        <pt x="123" y="181" on="0"/>
        <pt x="166" y="198" on="0"/>
        <pt x="182" y="213" on="1"/>
        <pt x="216" y="245" on="0"/>
        <pt x="216" y="293" on="1"/>
        <pt x="216" y="1063" on="1"/>
        <pt x="216" y="1186" on="0"/>
        <pt x="304" y="1272" on="1"/>
        <pt x="392" y="1359" on="0"/>
        <pt x="512" y="1359" on="1"/>
        <pt x="658" y="1359" on="1"/>
        <pt x="717" y="1359" on="0"/>
        <pt x="741" y="1304" on="1"/>
        <pt x="748" y="1287" on="0"/>
        <pt x="748" y="1231" on="0"/>
        <pt x="696" y="1179" on="0"/>
        <pt x="658" y="1179" on="1"/>
        <pt x="572" y="1179" on="1"/>
        <pt x="522" y="1179" on="0"/>
        <pt x="496" y="1154" on="1"/>
        <pt x="453" y="1110" on="0"/>
        <pt x="453" y="1060" on="1"/>
        <pt x="453" y="402" on="1"/>
        <pt x="453" y="314" on="0"/>
        <pt x="385" y="246" on="1"/>
        <pt x="360" y="224" on="0"/>
      </contour>
      <contour>
        <pt x="504" y="1820" on="1"/>
        <pt x="552" y="1886" on="0"/>
        <pt x="615" y="1886" on="1"/>
        <pt x="657" y="1886" on="0"/>
        <pt x="682" y="1860" on="1"/>
        <pt x="724" y="1819" on="0"/>
        <pt x="724" y="1781" on="1"/>
        <pt x="724" y="1705" on="0"/>
        <pt x="661" y="1662" on="1"/>
        <pt x="441" y="1508" on="1"/>
        <pt x="417" y="1492" on="0"/>
        <pt x="398" y="1492" on="1"/>
        <pt x="364" y="1492" on="0"/>
        <pt x="330" y="1528" on="0"/>
        <pt x="330" y="1579" on="0"/>
        <pt x="347" y="1602" on="1"/>
      </contour>
    </TTGlyph>
    <TTGlyph name="Lcaron" xMin="10" yMin="0" xMax="1096" yMax="1379">
      <contour>
        <pt x="360" y="210" on="1"/>
        <pt x="360" y="180" on="0"/>
        <pt x="389" y="180" on="1"/>
        <pt x="638" y="180" on="1"/>
        <pt x="682" y="180" on="0"/>
        <pt x="705" y="206" on="1"/>
        <pt x="746" y="251" on="0"/>
        <pt x="746" y="323" on="0"/>
        <pt x="764" y="365" on="0"/>
        <pt x="780" y="381" on="1"/>
        <pt x="816" y="415" on="0"/>
        <pt x="890" y="415" on="0"/>
        <pt x="933" y="397" on="0"/>
        <pt x="949" y="381" on="1"/>
        <pt x="983" y="347" on="0"/>
        <pt x="983" y="235" on="0"/>
        <pt x="936" y="127" on="0"/>
        <pt x="896" y="87" on="1"/>
        <pt x="809" y="0" on="0"/>
        <pt x="687" y="0" on="1"/>
        <pt x="98" y="0" on="1"/>
        <pt x="63" y="0" on="0"/>
        <pt x="44" y="20" on="1"/>
        <pt x="10" y="53" on="0"/>
        <pt x="10" y="128" on="0"/>
        <pt x="61" y="181" on="0"/>
        <pt x="123" y="181" on="0"/>
        <pt x="166" y="198" on="0"/>
        <pt x="182" y="213" on="1"/>
        <pt x="216" y="245" on="0"/>
        <pt x="216" y="293" on="1"/>
        <pt x="216" y="1063" on="1"/>
        <pt x="216" y="1186" on="0"/>
        <pt x="304" y="1272" on="1"/>
        <pt x="392" y="1359" on="0"/>
        <pt x="512" y="1359" on="1"/>
        <pt x="608" y="1359" on="1"/>
        <pt x="667" y="1359" on="0"/>
        <pt x="691" y="1304" on="1"/>
        <pt x="698" y="1287" on="0"/>
        <pt x="698" y="1231" on="0"/>
        <pt x="646" y="1179" on="0"/>
        <pt x="608" y="1179" on="1"/>
        <pt x="572" y="1179" on="1"/>
        <pt x="522" y="1179" on="0"/>
        <pt x="496" y="1154" on="1"/>
        <pt x="453" y="1110" on="0"/>
        <pt x="453" y="1060" on="1"/>
        <pt x="453" y="402" on="1"/>
        <pt x="453" y="314" on="0"/>
        <pt x="385" y="246" on="1"/>
        <pt x="360" y="224" on="0"/>
      </contour>
      <contour>
        <pt x="960" y="1379" on="1"/>
        <pt x="1096" y="1379" on="0"/>
        <pt x="1096" y="1189" on="1"/>
        <pt x="1096" y="1085" on="0"/>
        <pt x="1037" y="944" on="0"/>
        <pt x="977" y="882" on="0"/>
        <pt x="908" y="882" on="0"/>
        <pt x="870" y="922" on="0"/>
        <pt x="870" y="968" on="0"/>
        <pt x="882" y="996" on="0"/>
        <pt x="890" y="1009" on="1"/>
        <pt x="909" y="1043" on="0"/>
        <pt x="909" y="1099" on="0"/>
        <pt x="886" y="1139" on="0"/>
        <pt x="872" y="1157" on="1"/>
        <pt x="834" y="1204" on="0"/>
        <pt x="834" y="1275" on="0"/>
        <pt x="851" y="1323" on="0"/>
        <pt x="867" y="1341" on="1"/>
        <pt x="901" y="1379" on="0"/>
      </contour>
    </TTGlyph>
    <TTGlyph name="Lcommaaccent" xMin="10" yMin="-508" xMax="983" yMax="1359">
      <contour>
        <pt x="360" y="210" on="1"/>
        <pt x="360" y="180" on="0"/>
        <pt x="389" y="180" on="1"/>
        <pt x="638" y="180" on="1"/>
        <pt x="682" y="180" on="0"/>
        <pt x="705" y="206" on="1"/>
        <pt x="746" y="251" on="0"/>
        <pt x="746" y="323" on="0"/>
        <pt x="764" y="365" on="0"/>
        <pt x="780" y="381" on="1"/>
        <pt x="816" y="415" on="0"/>
        <pt x="890" y="415" on="0"/>
        <pt x="933" y="397" on="0"/>
        <pt x="949" y="381" on="1"/>
        <pt x="983" y="347" on="0"/>
        <pt x="983" y="235" on="0"/>
        <pt x="936" y="127" on="0"/>
        <pt x="896" y="87" on="1"/>
        <pt x="809" y="0" on="0"/>
        <pt x="687" y="0" on="1"/>
        <pt x="98" y="0" on="1"/>
        <pt x="63" y="0" on="0"/>
        <pt x="44" y="20" on="1"/>
        <pt x="10" y="53" on="0"/>
        <pt x="10" y="128" on="0"/>
        <pt x="61" y="181" on="0"/>
        <pt x="123" y="181" on="0"/>
        <pt x="166" y="198" on="0"/>
        <pt x="182" y="213" on="1"/>
        <pt x="216" y="245" on="0"/>
        <pt x="216" y="293" on="1"/>
        <pt x="216" y="1063" on="1"/>
        <pt x="216" y="1186" on="0"/>
        <pt x="304" y="1272" on="1"/>
        <pt x="392" y="1359" on="0"/>
        <pt x="512" y="1359" on="1"/>
        <pt x="658" y="1359" on="1"/>
        <pt x="717" y="1359" on="0"/>
        <pt x="741" y="1304" on="1"/>
        <pt x="748" y="1287" on="0"/>
        <pt x="748" y="1231" on="0"/>
        <pt x="696" y="1179" on="0"/>
        <pt x="658" y="1179" on="1"/>
        <pt x="572" y="1179" on="1"/>
        <pt x="522" y="1179" on="0"/>
        <pt x="496" y="1154" on="1"/>
        <pt x="453" y="1110" on="0"/>
        <pt x="453" y="1060" on="1"/>
        <pt x="453" y="402" on="1"/>
        <pt x="453" y="314" on="0"/>
        <pt x="385" y="246" on="1"/>
        <pt x="360" y="224" on="0"/>
      </contour>
      <contour>
        <pt x="401" y="-384" on="0"/>
        <pt x="413" y="-360" on="0"/>
        <pt x="413" y="-310" on="0"/>
        <pt x="390" y="-290" on="1"/>
        <pt x="349" y="-253" on="0"/>
        <pt x="349" y="-179" on="0"/>
        <pt x="367" y="-139" on="0"/>
        <pt x="383" y="-124" on="1"/>
        <pt x="418" y="-93" on="0"/>
        <pt x="497" y="-93" on="0"/>
        <pt x="544" y="-116" on="0"/>
        <pt x="559" y="-136" on="1"/>
        <pt x="588" y="-175" on="0"/>
        <pt x="588" y="-242" on="1"/>
        <pt x="588" y="-378" on="0"/>
        <pt x="516" y="-462" on="1"/>
        <pt x="477" y="-508" on="0"/>
        <pt x="409" y="-508" on="0"/>
        <pt x="375" y="-472" on="0"/>
        <pt x="375" y="-432" on="0"/>
        <pt x="387" y="-408" on="0"/>
      </contour>
    </TTGlyph>
    <TTGlyph name="Ldot" xMin="10" yMin="0" xMax="1012" yMax="1359">
      <contour>
        <pt x="360" y="210" on="1"/>
        <pt x="360" y="180" on="0"/>
        <pt x="389" y="180" on="1"/>
        <pt x="638" y="180" on="1"/>
        <pt x="682" y="180" on="0"/>
        <pt x="705" y="206" on="1"/>
        <pt x="746" y="251" on="0"/>
        <pt x="746" y="323" on="0"/>
        <pt x="764" y="365" on="0"/>
        <pt x="780" y="381" on="1"/>
        <pt x="816" y="415" on="0"/>
        <pt x="890" y="415" on="0"/>
        <pt x="933" y="397" on="0"/>
        <pt x="949" y="381" on="1"/>
        <pt x="983" y="347" on="0"/>
        <pt x="983" y="235" on="0"/>
        <pt x="936" y="127" on="0"/>
        <pt x="896" y="87" on="1"/>
        <pt x="809" y="0" on="0"/>
        <pt x="687" y="0" on="1"/>
        <pt x="98" y="0" on="1"/>
        <pt x="63" y="0" on="0"/>
        <pt x="44" y="20" on="1"/>
        <pt x="10" y="53" on="0"/>
        <pt x="10" y="128" on="0"/>
        <pt x="61" y="181" on="0"/>
        <pt x="123" y="181" on="0"/>
        <pt x="166" y="198" on="0"/>
        <pt x="182" y="213" on="1"/>
        <pt x="216" y="245" on="0"/>
        <pt x="216" y="293" on="1"/>
        <pt x="216" y="1063" on="1"/>
        <pt x="216" y="1186" on="0"/>
        <pt x="304" y="1272" on="1"/>
        <pt x="392" y="1359" on="0"/>
        <pt x="512" y="1359" on="1"/>
        <pt x="658" y="1359" on="1"/>
        <pt x="717" y="1359" on="0"/>
        <pt x="741" y="1304" on="1"/>
        <pt x="748" y="1287" on="0"/>
        <pt x="748" y="1231" on="0"/>
        <pt x="696" y="1179" on="0"/>
        <pt x="658" y="1179" on="1"/>
        <pt x="572" y="1179" on="1"/>
        <pt x="522" y="1179" on="0"/>
        <pt x="496" y="1154" on="1"/>
        <pt x="453" y="1110" on="0"/>
        <pt x="453" y="1060" on="1"/>
        <pt x="453" y="402" on="1"/>
        <pt x="453" y="314" on="0"/>
        <pt x="385" y="246" on="1"/>
        <pt x="360" y="224" on="0"/>
      </contour>
      <contour>
        <pt x="877" y="922" on="1"/>
        <pt x="932" y="922" on="0"/>
        <pt x="972" y="882" on="1"/>
        <pt x="1012" y="842" on="0"/>
        <pt x="1012" y="760" on="0"/>
        <pt x="990" y="712" on="0"/>
        <pt x="972" y="694" on="1"/>
        <pt x="932" y="654" on="0"/>
        <pt x="877" y="654" on="1"/>
        <pt x="822" y="654" on="0"/>
        <pt x="782" y="694" on="1"/>
        <pt x="742" y="734" on="0"/>
        <pt x="742" y="774" on="1"/>
        <pt x="742" y="842" on="0"/>
        <pt x="822" y="922" on="0"/>
      </contour>
    </TTGlyph>
    <TTGlyph name="Lslash" xMin="-39" yMin="0" xMax="983" yMax="1359">
      <contour>
        <pt x="360" y="210" on="1"/>
        <pt x="360" y="180" on="0"/>
        <pt x="389" y="180" on="1"/>
        <pt x="638" y="180" on="1"/>
        <pt x="682" y="180" on="0"/>
        <pt x="705" y="206" on="1"/>
        <pt x="746" y="251" on="0"/>
        <pt x="746" y="323" on="0"/>
        <pt x="764" y="365" on="0"/>
        <pt x="780" y="381" on="1"/>
        <pt x="816" y="415" on="0"/>
        <pt x="890" y="415" on="0"/>
        <pt x="933" y="397" on="0"/>
        <pt x="949" y="381" on="1"/>
        <pt x="983" y="347" on="0"/>
        <pt x="983" y="235" on="0"/>
        <pt x="936" y="127" on="0"/>
        <pt x="896" y="87" on="1"/>
        <pt x="809" y="0" on="0"/>
        <pt x="687" y="0" on="1"/>
        <pt x="98" y="0" on="1"/>
        <pt x="63" y="0" on="0"/>
        <pt x="44" y="20" on="1"/>
        <pt x="10" y="53" on="0"/>
        <pt x="10" y="128" on="0"/>
        <pt x="61" y="181" on="0"/>
        <pt x="123" y="181" on="0"/>
        <pt x="166" y="198" on="0"/>
        <pt x="182" y="213" on="1"/>
        <pt x="216" y="245" on="0"/>
        <pt x="216" y="293" on="1"/>
        <pt x="216" y="637" on="1"/>
        <pt x="46" y="575" on="1"/>
        <pt x="21" y="566" on="0"/>
        <pt x="-23" y="585" on="0"/>
        <pt x="-39" y="630" on="0"/>
        <pt x="-18" y="670" on="0"/>
        <pt x="5" y="679" on="1"/>
        <pt x="216" y="755" on="1"/>
        <pt x="216" y="1063" on="1"/>
        <pt x="216" y="1186" on="0"/>
        <pt x="304" y="1272" on="1"/>
        <pt x="392" y="1359" on="0"/>
        <pt x="512" y="1359" on="1"/>
        <pt x="658" y="1359" on="1"/>
        <pt x="717" y="1359" on="0"/>
        <pt x="741" y="1304" on="1"/>
        <pt x="748" y="1287" on="0"/>
        <pt x="748" y="1231" on="0"/>
        <pt x="696" y="1179" on="0"/>
        <pt x="658" y="1179" on="1"/>
        <pt x="572" y="1179" on="1"/>
        <pt x="522" y="1179" on="0"/>
        <pt x="496" y="1154" on="1"/>
        <pt x="453" y="1110" on="0"/>
        <pt x="453" y="1060" on="1"/>
        <pt x="453" y="841" on="1"/>
        <pt x="771" y="957" on="1"/>
        <pt x="793" y="965" on="0"/>
        <pt x="835" y="947" on="0"/>
        <pt x="843" y="924" on="1"/>
        <pt x="851" y="901" on="0"/>
        <pt x="831" y="862" on="0"/>
        <pt x="809" y="854" on="1"/>
        <pt x="453" y="723" on="1"/>
        <pt x="453" y="402" on="1"/>
        <pt x="453" y="314" on="0"/>
        <pt x="385" y="246" on="1"/>
        <pt x="360" y="224" on="0"/>
      </contour>
    </TTGlyph>
</ttFont>
